<svg width="18" height="18" viewBox="0 0 18 18" fill="none" xmlns="http://www.w3.org/2000/svg">
<path d="M13.2965 5.83189L13.3945 5.00326L9.39772 9L13.3945 12.9968L13.2966 12.1681C13.2783 12.0138 13.3886 11.874 13.5429 11.8558C13.6971 11.8377 13.8369 11.9478 13.8552 12.1021L14.0483 13.736C14.0585 13.8215 14.0288 13.9069 13.9679 13.9679C13.9148 14.0209 13.8432 14.0502 13.7691 14.0502C13.7581 14.0502 13.7471 14.0496 13.736 14.0483L12.1021 13.8552C11.9479 13.8369 11.8376 13.6971 11.8558 13.5429C11.874 13.3886 12.0137 13.2783 12.1681 13.2966L12.9968 13.3945L9 9.39772L5.00323 13.3945L5.83189 13.2966C5.98605 13.2784 6.12598 13.3886 6.14422 13.5429C6.16247 13.6971 6.05218 13.8369 5.89792 13.8552L4.26403 14.0483C4.25303 14.0496 4.24199 14.0503 4.23102 14.0503C4.15688 14.0503 4.08523 14.0209 4.03218 13.9679C3.97129 13.907 3.94161 13.8215 3.95174 13.736L4.14485 12.1021C4.1631 11.9479 4.3026 11.8375 4.45718 11.8558C4.61145 11.8741 4.72169 12.0139 4.70348 12.1681L4.60554 12.9968L8.60224 9L4.6055 5.00326L4.70345 5.83193C4.7217 5.9862 4.61141 6.12601 4.45714 6.14426C4.44596 6.14559 4.43479 6.14623 4.42378 6.14623C4.28319 6.14623 4.16173 6.04104 4.14482 5.89795L3.95167 4.26407C3.94154 4.17853 3.97122 4.0931 4.03211 4.03218C4.093 3.97132 4.17846 3.94172 4.264 3.95174L5.89792 4.14485C6.05218 4.1631 6.16243 4.30291 6.14422 4.45718C6.12598 4.61141 5.98623 4.72162 5.83189 4.70348L5.00326 4.60554L9 8.60224L12.9967 4.6055L12.1681 4.70345C12.0139 4.72177 11.874 4.61141 11.8558 4.45714C11.8375 4.30288 11.9478 4.16306 12.1021 4.14482L13.736 3.95167C13.8215 3.94144 13.9069 3.97118 13.9679 4.03211C14.0288 4.093 14.0584 4.17846 14.0483 4.264L13.8552 5.89788C13.8383 6.04093 13.7168 6.14616 13.5762 6.14616C13.5652 6.14616 13.5541 6.14552 13.5429 6.14419C13.3886 6.12598 13.2783 5.98616 13.2965 5.83189ZM2.93421 0.28125V2.65296C2.93421 2.80828 2.80828 2.93421 2.65296 2.93421H0.28125C0.12593 2.93421 0 2.80828 0 2.65296V0.28125C0 0.12593 0.12593 0 0.28125 0H2.65296C2.80832 0 2.93421 0.12593 2.93421 0.28125ZM2.37171 0.5625H0.5625V2.37171H2.37171V0.5625ZM2.93421 15.347V17.7188C2.93421 17.8741 2.80828 18 2.65296 18H0.28125C0.12593 18 0 17.8741 0 17.7188V15.347C0 15.1917 0.12593 15.0658 0.28125 15.0658H2.65296C2.80832 15.0658 2.93421 15.1917 2.93421 15.347ZM2.37171 15.6283H0.5625V17.4375H2.37171V15.6283ZM18 0.28125V2.65296C18 2.80828 17.8741 2.93421 17.7188 2.93421H15.347C15.1917 2.93421 15.0658 2.80828 15.0658 2.65296V0.28125C15.0658 0.12593 15.1917 0 15.347 0H17.7188C17.8741 0 18 0.12593 18 0.28125ZM17.4375 0.5625H15.6283V2.37171H17.4375V0.5625ZM18 15.347V17.7188C18 17.8741 17.8741 18 17.7188 18H15.347C15.1917 18 15.0658 17.8741 15.0658 17.7188V15.347C15.0658 15.1917 15.1917 15.0658 15.347 15.0658H17.7188C17.8741 15.0658 18 15.1917 18 15.347ZM17.4375 15.6283H15.6283V17.4375H17.4375V15.6283ZM3.78042 1.74836H4.96628C5.1216 1.74836 5.24753 1.62243 5.24753 1.46711C5.24753 1.31179 5.1216 1.18586 4.96628 1.18586H3.78042C3.6251 1.18586 3.49917 1.31179 3.49917 1.46711C3.49917 1.62243 3.6251 1.74836 3.78042 1.74836ZM6.09374 1.74836H7.27959C7.43491 1.74836 7.56084 1.62243 7.56084 1.46711C7.56084 1.31179 7.43491 1.18586 7.27959 1.18586H6.09374C5.93842 1.18586 5.81249 1.31179 5.81249 1.46711C5.81249 1.62243 5.93842 1.74836 6.09374 1.74836ZM8.40705 1.74836H9.59291C9.74823 1.74836 9.87416 1.62243 9.87416 1.46711C9.87416 1.31179 9.74823 1.18586 9.59291 1.18586H8.40705C8.25173 1.18586 8.1258 1.31179 8.1258 1.46711C8.1258 1.62243 8.25173 1.74836 8.40705 1.74836ZM10.7204 1.74836H11.9063C12.0616 1.74836 12.1875 1.62243 12.1875 1.46711C12.1875 1.31179 12.0616 1.18586 11.9063 1.18586H10.7204C10.5651 1.18586 10.4392 1.31179 10.4392 1.46711C10.4392 1.62243 10.5651 1.74836 10.7204 1.74836ZM14.2196 1.18586H13.0337C12.8784 1.18586 12.7525 1.31179 12.7525 1.46711C12.7525 1.62243 12.8784 1.74836 13.0337 1.74836H14.2196C14.3749 1.74836 14.5008 1.62243 14.5008 1.46711C14.5008 1.31179 14.3749 1.18586 14.2196 1.18586ZM4.96631 16.2516H3.78046C3.62514 16.2516 3.49921 16.3776 3.49921 16.5329C3.49921 16.6882 3.62514 16.8141 3.78046 16.8141H4.96631C5.12163 16.8141 5.24756 16.6882 5.24756 16.5329C5.24756 16.3776 5.12163 16.2516 4.96631 16.2516ZM7.27959 16.2516H6.09374C5.93842 16.2516 5.81249 16.3776 5.81249 16.5329C5.81249 16.6882 5.93842 16.8141 6.09374 16.8141H7.27959C7.43491 16.8141 7.56084 16.6882 7.56084 16.5329C7.56084 16.3776 7.43495 16.2516 7.27959 16.2516ZM9.59295 16.2516H8.40709C8.25177 16.2516 8.12584 16.3776 8.12584 16.5329C8.12584 16.6882 8.25177 16.8141 8.40709 16.8141H9.59295C9.74827 16.8141 9.8742 16.6882 9.8742 16.5329C9.8742 16.3776 9.74827 16.2516 9.59295 16.2516ZM11.9063 16.2516H10.7204C10.5651 16.2516 10.4392 16.3776 10.4392 16.5329C10.4392 16.6882 10.5651 16.8141 10.7204 16.8141H11.9063C12.0616 16.8141 12.1875 16.6882 12.1875 16.5329C12.1875 16.3776 12.0616 16.2516 11.9063 16.2516ZM14.2196 16.2516H13.0337C12.8784 16.2516 12.7525 16.3776 12.7525 16.5329C12.7525 16.6882 12.8784 16.8141 13.0337 16.8141H14.2196C14.3749 16.8141 14.5008 16.6882 14.5008 16.5329C14.5008 16.3776 14.3749 16.2516 14.2196 16.2516ZM16.5329 5.24756C16.6882 5.24756 16.8141 5.12163 16.8141 4.96631V3.78046C16.8141 3.62514 16.6882 3.49921 16.5329 3.49921C16.3776 3.49921 16.2516 3.62514 16.2516 3.78046V4.96631C16.2516 5.12163 16.3776 5.24756 16.5329 5.24756ZM16.2516 7.27959C16.2516 7.43491 16.3776 7.56084 16.5329 7.56084C16.6882 7.56084 16.8141 7.43491 16.8141 7.27959V6.09374C16.8141 5.93842 16.6882 5.81249 16.5329 5.81249C16.3776 5.81249 16.2516 5.93842 16.2516 6.09374V7.27959ZM16.2516 9.59295C16.2516 9.74827 16.3776 9.8742 16.5329 9.8742C16.6882 9.8742 16.8141 9.74827 16.8141 9.59295V8.40709C16.8141 8.25177 16.6882 8.12584 16.5329 8.12584C16.3776 8.12584 16.2516 8.25177 16.2516 8.40709V9.59295ZM16.2516 11.9063C16.2516 12.0616 16.3776 12.1875 16.5329 12.1875C16.6882 12.1875 16.8141 12.0616 16.8141 11.9063V10.7204C16.8141 10.5651 16.6882 10.4392 16.5329 10.4392C16.3776 10.4392 16.2516 10.5651 16.2516 10.7204V11.9063ZM16.2516 14.2196C16.2516 14.3749 16.3776 14.5008 16.5329 14.5008C16.6882 14.5008 16.8141 14.3749 16.8141 14.2196V13.0337C16.8141 12.8784 16.6882 12.7525 16.5329 12.7525C16.3776 12.7525 16.2516 12.8784 16.2516 13.0337V14.2196ZM1.46711 5.24756C1.62243 5.24756 1.74836 5.12163 1.74836 4.96631V3.78046C1.74836 3.62514 1.62243 3.49921 1.46711 3.49921C1.31179 3.49921 1.18586 3.62514 1.18586 3.78046V4.96631C1.18586 5.12163 1.31179 5.24756 1.46711 5.24756ZM1.18586 7.27959C1.18586 7.43491 1.31179 7.56084 1.46711 7.56084C1.62243 7.56084 1.74836 7.43491 1.74836 7.27959V6.09374C1.74836 5.93842 1.62243 5.81249 1.46711 5.81249C1.31179 5.81249 1.18586 5.93842 1.18586 6.09374V7.27959ZM1.18586 9.59295C1.18586 9.74827 1.31179 9.8742 1.46711 9.8742C1.62243 9.8742 1.74836 9.74827 1.74836 9.59295V8.40709C1.74836 8.25177 1.62243 8.12584 1.46711 8.12584C1.31179 8.12584 1.18586 8.25177 1.18586 8.40709V9.59295ZM1.18586 11.9063C1.18586 12.0616 1.31179 12.1875 1.46711 12.1875C1.62243 12.1875 1.74836 12.0616 1.74836 11.9063V10.7204C1.74836 10.5651 1.62243 10.4392 1.46711 10.4392C1.31179 10.4392 1.18586 10.5651 1.18586 10.7204V11.9063ZM1.18586 14.2196C1.18586 14.3749 1.31179 14.5008 1.46711 14.5008C1.62243 14.5008 1.74836 14.3749 1.74836 14.2196V13.0337C1.74836 12.8784 1.62243 12.7525 1.46711 12.7525C1.31179 12.7525 1.18586 12.8784 1.18586 13.0337V14.2196Z" fill="#2E4562"/>
</svg>
