<svg width="11" height="11" viewBox="0 0 11 11" fill="none" xmlns="http://www.w3.org/2000/svg">
<path d="M10.1908 8.95474C10.1861 9.11886 10.1186 9.27492 10.0022 9.39079C9.88758 9.50746 9.72973 9.57145 9.5662 9.56757C9.39989 9.56972 9.23976 9.50461 9.12215 9.387C9.00454 9.26939 8.93943 9.10926 8.94158 8.94295V2.22537L1.15146 10.0155C0.907386 10.2596 0.511658 10.2596 0.26758 10.0155C0.0235025 9.77141 0.0235028 9.37568 0.26758 9.1316L8.05899 1.34019L1.31662 1.32977C1.15031 1.33193 0.99018 1.26681 0.872572 1.14921C0.754963 1.0316 0.689849 0.87147 0.692006 0.705161C0.69222 0.360287 0.971743 0.0807644 1.31662 0.0805498H9.5662C9.91107 0.0807644 10.1906 0.360287 10.1908 0.705161L10.1908 8.95474Z" fill="#000710"/>
</svg>
