<svg width="20" height="12" viewBox="0 0 20 12" fill="none" xmlns="http://www.w3.org/2000/svg">
<path d="M19.8678 5.68084L15.3225 1.13545C15.1592 0.944791 14.8722 0.922565 14.6816 1.08588C14.4909 1.24916 14.4687 1.53611 14.632 1.72677C14.6472 1.74454 14.6638 1.76114 14.6816 1.77634L18.4497 5.54901H0.454523C0.203512 5.54901 0 5.75252 0 6.00357C0 6.25462 0.203512 6.45809 0.454523 6.45809H18.4497L14.6816 10.2262C14.4909 10.3895 14.4687 10.6764 14.632 10.8671C14.7953 11.0577 15.0822 11.08 15.2729 10.9166C15.2907 10.9014 15.3073 10.8849 15.3225 10.8671L19.8679 6.32169C20.0441 6.14447 20.0441 5.85814 19.8678 5.68084Z" fill="#000710"/>
</svg>
