<svg width="24" height="24" viewBox="0 0 24 24" fill="none" xmlns="http://www.w3.org/2000/svg">
<path d="M2.00021 11.0006H19.5862L14.2932 5.70757C14.1977 5.61532 14.1215 5.50498 14.0691 5.38297C14.0167 5.26097 13.9891 5.12975 13.988 4.99697C13.9868 4.86419 14.0121 4.73251 14.0624 4.60962C14.1127 4.48672 14.1869 4.37507 14.2808 4.28117C14.3747 4.18728 14.4864 4.11303 14.6093 4.06275C14.7322 4.01247 14.8638 3.98717 14.9966 3.98832C15.1294 3.98947 15.2606 4.01706 15.3826 4.06947C15.5046 4.12188 15.615 4.19806 15.7072 4.29357L22.7072 11.2936C22.8947 11.4811 23 11.7354 23 12.0006C23 12.2657 22.8947 12.52 22.7072 12.7076L15.7072 19.7076C15.5186 19.8897 15.266 19.9905 15.0038 19.9882C14.7416 19.986 14.4908 19.8808 14.3054 19.6954C14.12 19.51 14.0148 19.2592 14.0125 18.997C14.0103 18.7348 14.1111 18.4822 14.2932 18.2936L19.5862 13.0006H2.00021C1.735 13.0006 1.48064 12.8952 1.29311 12.7077C1.10557 12.5201 1.00021 12.2658 1.00021 12.0006C1.00021 11.7354 1.10557 11.481 1.29311 11.2935C1.48064 11.1059 1.735 11.0006 2.00021 11.0006Z" fill="white"/>
</svg>
