<svg width="20" height="20" viewBox="0 0 20 20" fill="none" xmlns="http://www.w3.org/2000/svg">
<g clip-path="url(#clip0_129_4942)">
<path d="M19.8678 9.68084L15.3225 5.13545C15.1592 4.94479 14.8722 4.92257 14.6816 5.08588C14.4909 5.24916 14.4687 5.53611 14.632 5.72677C14.6472 5.74454 14.6638 5.76114 14.6816 5.77634L18.4497 9.54901H0.454523C0.203512 9.54901 0 9.75252 0 10.0036C0 10.2546 0.203512 10.4581 0.454523 10.4581H18.4497L14.6816 14.2262C14.4909 14.3895 14.4687 14.6764 14.632 14.8671C14.7953 15.0577 15.0822 15.08 15.2729 14.9166C15.2907 14.9014 15.3073 14.8849 15.3225 14.8671L19.8679 10.3217C20.0441 10.1445 20.0441 9.85814 19.8678 9.68084Z" fill="#388FFF"/>
</g>
<defs>
<clipPath id="clip0_129_4942">
<rect width="20" height="20" fill="white"/>
</clipPath>
</defs>
</svg>
