<svg width="20" height="20" viewBox="0 0 20 20" fill="none" xmlns="http://www.w3.org/2000/svg">
<path d="M10.8745 16.266C10.7551 16.3787 10.597 16.4413 10.4328 16.441C10.2693 16.4424 10.1124 16.376 9.99951 16.2577C9.88038 16.1416 9.8132 15.9823 9.8132 15.816C9.8132 15.6497 9.88038 15.4904 9.99951 15.3743L14.7496 10.6243H3.73267C3.38749 10.6243 3.10767 10.3444 3.10767 9.99927C3.10767 9.65409 3.38749 9.37427 3.73267 9.37427H14.7514L9.99117 4.59932C9.87205 4.48325 9.80487 4.32398 9.80487 4.15765C9.80487 3.99133 9.87205 3.83206 9.99117 3.71599C10.2352 3.47228 10.6305 3.47228 10.8745 3.71599L16.7078 9.54932C16.9516 9.79333 16.9516 10.1886 16.7078 10.4327L10.8745 16.266Z" fill="white"/>
</svg>
