<svg width="20" height="19" viewBox="0 0 20 19" fill="none" xmlns="http://www.w3.org/2000/svg">
<path d="M18.7241 9.32383V3.03766C18.7241 1.50859 17.4801 0.264648 15.9511 0.264648H3.96922C2.44016 0.264648 1.19621 1.50863 1.19621 3.03766V9.40492C0.455586 10.1792 0 11.2283 0 12.3818V17.1484C0 18.0233 0.711836 18.7352 1.58684 18.7352C2.4618 18.7352 3.17363 18.0233 3.17363 17.1484V16.6561H16.8264V17.1484C16.8264 18.0233 17.5382 18.7352 18.4132 18.7352C19.2882 18.7352 20 18.0234 20 17.1484V12.3818C20 11.1875 19.5116 10.1052 18.7241 9.32383ZM3.96922 1.0459H15.9511C17.0493 1.0459 17.9428 1.93941 17.9428 3.03766V8.70902C17.7036 8.56172 17.4489 8.43711 17.1819 8.33828V7.0393C17.1819 5.88773 16.245 4.95086 15.0935 4.95086H11.6979C10.9988 4.95086 10.3793 5.29645 10 5.82539C9.62078 5.29645 9.00129 4.95086 8.30223 4.95086H4.9066C3.75504 4.95086 2.81816 5.8877 2.81816 7.0393V8.33828C2.52125 8.44816 2.23965 8.58988 1.9775 8.75926V3.03766C1.97746 1.93941 2.87094 1.0459 3.96922 1.0459ZM4.30988 8.07195C4.06789 8.07195 3.83055 8.09234 3.59934 8.13086V7.0393C3.59934 6.31852 4.18574 5.73211 4.90652 5.73211H8.30215C9.02293 5.73211 9.60934 6.31852 9.60934 7.0393V8.07199H4.30988V8.07195ZM10.3906 7.03926C10.3906 6.31848 10.977 5.73207 11.6978 5.73207H15.0934C15.8142 5.73207 16.4006 6.31848 16.4006 7.03926V8.13082C16.1694 8.09231 15.9321 8.07191 15.6901 8.07191H10.3906V7.03926ZM4.30988 8.8532H15.6901C17.6358 8.8532 19.2187 10.4361 19.2187 12.3818V13.5407H15.3009C15.0852 13.5407 14.9103 13.7156 14.9103 13.9313C14.9103 14.147 15.0852 14.322 15.3009 14.322H19.2188V15.8749H0.78125V14.322H11.3946C11.6104 14.322 11.7853 14.147 11.7853 13.9313C11.7853 13.7156 11.6104 13.5407 11.3946 13.5407H0.78125V12.3818C0.78125 10.4361 2.36418 8.8532 4.30988 8.8532ZM2.39238 17.1484C2.39238 17.5925 2.03102 17.9539 1.58684 17.9539C1.14266 17.9539 0.78125 17.5925 0.78125 17.1484V16.6561H2.39238V17.1484ZM18.4132 17.9539C17.969 17.9539 17.6076 17.5925 17.6076 17.1484V16.6561H19.2188V17.1484C19.2188 17.5925 18.8574 17.9539 18.4132 17.9539Z" fill="#2E4562"/>
</svg>
