<svg width="46" height="45" viewBox="0 0 46 45" fill="none" xmlns="http://www.w3.org/2000/svg">
<path d="M7.19529 4.41042H12.9812V7.34436C13.4315 7.03512 13.6807 6.88023 13.9089 6.70485C16.3788 4.80645 18.8461 2.90545 21.3129 1.00391C22.4372 0.137185 23.7149 0.177705 24.9746 1.14272C28.5237 3.86166 32.068 6.58536 35.6128 9.30853C38.4863 11.516 41.3545 13.7287 44.2327 15.9317C45.006 16.5237 45.4939 17.2144 45.3073 18.1405C44.9466 19.9305 42.6538 20.5812 40.9926 19.334C38.5245 17.481 36.0981 15.5861 33.6546 13.7083C30.4325 11.232 27.1925 8.7727 24.0038 6.26426C23.308 5.71684 22.8907 5.68594 22.1642 6.24863C16.5451 10.6012 10.8872 14.916 5.22906 19.2302C4.8342 19.5313 4.37456 19.8228 3.88581 19.9648C2.77848 20.2865 1.57682 19.8469 0.999396 19.0063C0.394568 18.1258 0.585306 16.9462 1.53235 16.2004C3.1791 14.9038 4.88765 13.6657 6.50826 12.3454C6.86925 12.0514 7.15261 11.5225 7.16519 11.0951C7.23015 8.88949 7.19529 6.68185 7.19529 4.41042Z" fill="white"/>
<path d="M16.9523 17.6504H21.0331V23.2186H15.4648V19.1378C15.4648 18.3157 16.1302 17.6504 16.9523 17.6504Z" fill="white"/>
<path d="M15.4648 26.5566H21.0331V32.1207H16.9523C16.1302 32.1207 15.4649 31.4554 15.4649 30.6333V26.5566H15.4648Z" fill="white"/>
<path d="M30.5367 19.1378V23.2186H24.9727V17.6504H29.0492C29.8713 17.6505 30.5367 18.3158 30.5367 19.1378Z" fill="white"/>
<path d="M30.5321 26.5605V27.8864C28.9959 29.0933 27.8255 30.849 27.2495 31.8274C27.2037 31.8914 27.1672 31.9646 27.094 32.1108C27.094 32.1108 27.094 32.12 27.0849 32.12H24.9727V26.5605H30.5321Z" fill="white"/>
<path d="M44.7831 25.5293C44.7851 25.5757 42.6731 25.8943 42.4952 25.9251C41.3828 26.1051 40.2479 26.2674 39.1203 26.4688C36.8169 26.8802 34.5449 27.4584 32.5566 28.6924C32.3319 28.8318 32.1101 28.9773 31.8931 29.1342C30.6792 30.0169 29.5749 31.4873 28.8167 32.7643C28.7679 32.8464 28.7248 32.9327 28.6773 33.0157C27.6433 34.8244 26.9085 36.8573 26.4708 38.915C26.3482 39.4916 26.2436 40.0695 26.1676 40.645C26.1422 40.8371 26.0021 42.2882 25.9531 43.132C26.0166 43.0833 26.238 42.9089 26.5923 42.6324C27.0071 42.3097 27.5992 41.8365 28.3008 41.2555C29.0093 40.6835 29.8054 39.982 30.6714 39.2461C31.1063 38.8743 31.5316 38.4715 31.9807 38.0744C32.1697 37.9006 32.3636 37.7223 32.5566 37.5482V37.5441C32.814 37.3188 33.0651 37.0935 33.3161 36.8554C33.755 36.4294 34.194 36.0098 34.6199 35.5968C35.0459 35.1773 35.4848 34.7836 35.8656 34.3576C36.2593 33.9446 36.6401 33.5443 36.9951 33.1701C37.0465 33.1187 37.0916 33.0673 37.1429 33.0159H37.3687H37.3689C37.2915 33.106 37.2079 33.1896 37.1307 33.2862C36.7821 33.6799 36.4206 34.093 36.0464 34.5254C35.672 34.9579 35.2524 35.3774 34.8459 35.8098C34.4264 36.2487 34.0068 36.6876 33.5809 37.1265C33.2452 37.475 32.8967 37.8042 32.5546 38.1399V38.142C32.4664 38.2281 32.3772 38.3172 32.2903 38.4034C31.8575 38.8215 31.4407 39.2419 31.0228 39.6295C30.1816 40.4038 29.4102 41.144 28.7173 41.7424C28.0388 42.3536 27.4592 42.8556 27.0523 43.2012C26.7223 43.4781 26.5086 43.6564 26.4354 43.7173C45.8709 42.71 44.7831 25.5293 44.7831 25.5293Z" fill="#2F9DFF"/>
<path d="M22.224 39.4172C21.6979 38.8068 21.1597 38.273 20.613 37.816C14.5033 32.71 7.46094 36.6046 7.46094 36.6046C7.49005 36.5885 8.32514 37.8321 8.39792 37.9378C9.86605 40.0691 11.2802 42.4142 13.6187 43.6969C14.5431 44.2038 15.8056 44.4621 16.8448 44.5594C18.7698 44.7396 20.8028 44.4613 22.6388 43.8716C22.8223 43.8127 24.6959 43.1363 24.6631 43.0728C23.9017 41.6099 23.0796 40.41 22.224 39.4172Z" fill="#2F9DFF"/>
</svg>
