<svg width="55" height="55" viewBox="0 0 55 55" fill="none" xmlns="http://www.w3.org/2000/svg">
<path d="M50.9609 48.2633C51.8583 48.067 52.6614 47.5695 53.2368 46.8534C53.8121 46.1373 54.125 45.2459 54.1234 44.3273C54.1215 43.3588 53.7672 42.4241 53.1266 41.6977C53.252 41.3504 53.3159 40.984 53.3156 40.6148C53.3156 39.7601 52.9761 38.9404 52.3717 38.3361C51.7674 37.7317 50.9477 37.3922 50.093 37.3922C49.2383 37.3922 48.4186 37.7317 47.8142 38.3361C47.2098 38.9404 46.8703 39.7601 46.8703 40.6148C46.87 40.984 46.934 41.3504 47.0594 41.6977C46.4174 42.4232 46.0628 43.3585 46.0625 44.3273C46.0609 45.2459 46.3738 46.1373 46.9492 46.8534C47.5245 47.5695 48.3276 48.067 49.225 48.2633V51.993H45.5297V16.3805L24.0625 7.59766V15.6758L4.21094 7.59766V51.9758H0.859375V53.6945H53.2812V51.9758H50.9609V48.2633ZM47.7984 44.3273C47.8083 43.9957 47.8903 43.6701 48.0388 43.3733C48.1872 43.0765 48.3984 42.8155 48.6578 42.6086L49.2594 42.1273L48.8469 41.4742C48.7037 41.2481 48.6238 40.9876 48.6155 40.7201C48.6073 40.4525 48.6711 40.1877 48.8001 39.9532C48.9292 39.7187 49.1189 39.5231 49.3493 39.3869C49.5797 39.2507 49.8425 39.1789 50.1102 39.1789C50.3778 39.1789 50.6406 39.2507 50.871 39.3869C51.1015 39.5231 51.2911 39.7187 51.4202 39.9532C51.5492 40.1877 51.613 40.4525 51.6048 40.7201C51.5965 40.9876 51.5167 41.2481 51.3734 41.4742L50.9609 42.1273L51.5453 42.6086C51.8508 42.8548 52.0884 43.1749 52.2355 43.5387C52.3826 43.9024 52.4343 44.2977 52.3858 44.687C52.3372 45.0764 52.19 45.4469 51.9581 45.7634C51.7262 46.0798 51.4173 46.3318 51.0606 46.4954C50.704 46.659 50.3115 46.7288 49.9203 46.6981C49.5292 46.6675 49.1523 46.5374 48.8255 46.3202C48.4988 46.103 48.2329 45.8059 48.0531 45.4572C47.8734 45.1084 47.7857 44.7195 47.7984 44.3273ZM25.7812 10.1586L43.8625 17.532V48.6414H25.7812V10.1586ZM24.0625 20.1273H21.3125V21.8461H24.0625V26.1086H21.3125V27.8273H24.0625V32.0898H21.3125V33.8086H24.0625V38.793H21.3125V40.5117H24.0625V45.2383H15.8984V43.9492H18.4594V42.2305H15.8984V37.6758H18.4594V35.957H15.8984V31.4023H18.4594V29.6836H15.8984V25.1461H18.4594V23.4273H15.8984V18.907H18.4594V17.1883H15.8984V14.232L24.0625 17.5492V20.1273ZM12.375 46.9398V51.9758H10.4672V46.957L12.375 46.9398ZM14.0938 46.9398H15.8984V51.9758H14.0422L14.0938 46.9398ZM17.6687 46.9398H19.525V51.9758H17.6172L17.6687 46.9398ZM14.2312 13.5102V45.2383H5.92969V10.1586L14.2312 13.5102ZM5.92969 46.957H8.74844V51.993H5.92969V46.957ZM21.1922 51.993V46.957H24.0625V51.993H21.1922ZM25.7297 51.993V50.3773H43.8109V51.993H25.7297Z" fill="#388FFF"/>
<path d="M7.68359 22.1719H10.743V23.8906H7.68359V22.1719Z" fill="#388FFF"/>
<path d="M7.68359 26.1094H10.743V27.8281H7.68359V26.1094Z" fill="#388FFF"/>
<path d="M7.68359 30.0469H10.743V31.7656H7.68359V30.0469Z" fill="#388FFF"/>
<path d="M7.68359 33.9805H10.743V35.6992H7.68359V33.9805Z" fill="#388FFF"/>
<path d="M7.68359 37.9141H10.743V39.6328H7.68359V37.9141Z" fill="#388FFF"/>
<path d="M37.6055 22.1719H40.6648V23.8906H37.6055V22.1719Z" fill="#388FFF"/>
<path d="M37.6055 26.1094H40.6648V27.8281H37.6055V26.1094Z" fill="#388FFF"/>
<path d="M37.6055 30.0469H40.6648V31.7656H37.6055V30.0469Z" fill="#388FFF"/>
<path d="M37.6055 33.9805H40.6648V35.6992H37.6055V33.9805Z" fill="#388FFF"/>
<path d="M37.6055 37.9141H40.6648V39.6328H37.6055V37.9141Z" fill="#388FFF"/>
<path d="M37.6055 41.8516H40.6648V43.5703H37.6055V41.8516Z" fill="#388FFF"/>
<path d="M28.875 22.1719H31.9344V23.8906H28.875V22.1719Z" fill="#388FFF"/>
<path d="M28.875 26.1094H31.9344V27.8281H28.875V26.1094Z" fill="#388FFF"/>
<path d="M28.875 30.0469H31.9344V31.7656H28.875V30.0469Z" fill="#388FFF"/>
<path d="M28.875 33.9805H31.9344V35.6992H28.875V33.9805Z" fill="#388FFF"/>
<path d="M28.875 37.9141H31.9344V39.6328H28.875V37.9141Z" fill="#388FFF"/>
<path d="M28.875 41.8516H31.9344V43.5703H28.875V41.8516Z" fill="#388FFF"/>
<path d="M7.68359 41.8516H10.743V43.5703H7.68359V41.8516Z" fill="#388FFF"/>
</svg>
