<svg width="35" height="35" viewBox="0 0 35 35" fill="none" xmlns="http://www.w3.org/2000/svg">
<path d="M32.4297 30.7141C33.0007 30.5892 33.5118 30.2725 33.8779 29.8169C34.2441 29.3612 34.4432 28.7939 34.4422 28.2094C34.441 27.593 34.2155 26.9982 33.8078 26.5359C33.8876 26.315 33.9283 26.0818 33.9281 25.8469C33.9281 25.303 33.7121 24.7813 33.3275 24.3968C32.9429 24.0122 32.4212 23.7961 31.8773 23.7961C31.3334 23.7961 30.8118 24.0122 30.4272 24.3968C30.0426 24.7813 29.8266 25.303 29.8266 25.8469C29.8264 26.0818 29.8671 26.315 29.9469 26.5359C29.5383 26.9977 29.3127 27.5928 29.3125 28.2094C29.3115 28.7939 29.5106 29.3612 29.8767 29.8169C30.2429 30.2725 30.754 30.5892 31.325 30.7141V33.0875H28.9734V10.425L15.3125 4.83594V9.97656L2.67969 4.83594V33.0766H0.546875V34.1703H33.9062V33.0766H32.4297V30.7141ZM30.4172 28.2094C30.4235 27.9983 30.4757 27.7911 30.5701 27.6022C30.6646 27.4134 30.799 27.2473 30.9641 27.1156L31.3469 26.8094L31.0844 26.3937C30.9932 26.2498 30.9424 26.0841 30.9372 25.9139C30.9319 25.7436 30.9725 25.5751 31.0546 25.4258C31.1368 25.2766 31.2575 25.1521 31.4041 25.0655C31.5507 24.9788 31.7179 24.9331 31.8883 24.9331C32.0586 24.9331 32.2258 24.9788 32.3725 25.0655C32.5191 25.1521 32.6398 25.2766 32.7219 25.4258C32.8041 25.5751 32.8446 25.7436 32.8394 25.9139C32.8342 26.0841 32.7833 26.2498 32.6922 26.3937L32.4297 26.8094L32.8016 27.1156C32.996 27.2723 33.1472 27.476 33.2408 27.7075C33.3344 27.939 33.3673 28.1905 33.3364 28.4383C33.3055 28.686 33.2118 28.9218 33.0642 29.1232C32.9167 29.3246 32.7201 29.485 32.4931 29.5891C32.2662 29.6932 32.0164 29.7376 31.7675 29.7181C31.5186 29.6985 31.2787 29.6157 31.0708 29.4775C30.8628 29.3393 30.6937 29.1503 30.5793 28.9284C30.4649 28.7064 30.4091 28.4589 30.4172 28.2094ZM16.4062 6.46562L27.9125 11.1578V30.9547H16.4062V6.46562ZM15.3125 12.8094H13.5625V13.9031H15.3125V16.6156H13.5625V17.7094H15.3125V20.4219H13.5625V21.5156H15.3125V24.6875H13.5625V25.7812H15.3125V28.7891H10.1172V27.9688H11.7469V26.875H10.1172V23.9766H11.7469V22.8828H10.1172V19.9844H11.7469V18.8906H10.1172V16.0031H11.7469V14.9094H10.1172V12.0328H11.7469V10.9391H10.1172V9.05781L15.3125 11.1687V12.8094ZM7.875 29.8719V33.0766H6.66094V29.8828L7.875 29.8719ZM8.96875 29.8719H10.1172V33.0766H8.93594L8.96875 29.8719ZM11.2437 29.8719H12.425V33.0766H11.2109L11.2437 29.8719ZM9.05625 8.59844V28.7891H3.77344V6.46562L9.05625 8.59844ZM3.77344 29.8828H5.56719V33.0875H3.77344V29.8828ZM13.4859 33.0875V29.8828H15.3125V33.0875H13.4859ZM16.3734 33.0875V32.0594H27.8797V33.0875H16.3734Z" fill="white"/>
<path d="M4.89062 14.1094H6.8375V15.2031H4.89062V14.1094Z" fill="white"/>
<path d="M4.89062 16.6172H6.8375V17.7109H4.89062V16.6172Z" fill="white"/>
<path d="M4.89062 19.1211H6.8375V20.2148H4.89062V19.1211Z" fill="white"/>
<path d="M4.89062 21.625H6.8375V22.7188H4.89062V21.625Z" fill="white"/>
<path d="M4.89062 24.1289H6.8375V25.2227H4.89062V24.1289Z" fill="white"/>
<path d="M23.9297 14.1094H25.8766V15.2031H23.9297V14.1094Z" fill="white"/>
<path d="M23.9297 16.6172H25.8766V17.7109H23.9297V16.6172Z" fill="white"/>
<path d="M23.9297 19.1211H25.8766V20.2148H23.9297V19.1211Z" fill="white"/>
<path d="M23.9297 21.625H25.8766V22.7188H23.9297V21.625Z" fill="white"/>
<path d="M23.9297 24.1289H25.8766V25.2227H23.9297V24.1289Z" fill="white"/>
<path d="M23.9297 26.6328H25.8766V27.7266H23.9297V26.6328Z" fill="white"/>
<path d="M18.375 14.1094H20.3219V15.2031H18.375V14.1094Z" fill="white"/>
<path d="M18.375 16.6172H20.3219V17.7109H18.375V16.6172Z" fill="white"/>
<path d="M18.375 19.1211H20.3219V20.2148H18.375V19.1211Z" fill="white"/>
<path d="M18.375 21.625H20.3219V22.7188H18.375V21.625Z" fill="white"/>
<path d="M18.375 24.1289H20.3219V25.2227H18.375V24.1289Z" fill="white"/>
<path d="M18.375 26.6328H20.3219V27.7266H18.375V26.6328Z" fill="white"/>
<path d="M4.89062 26.6328H6.8375V27.7266H4.89062V26.6328Z" fill="white"/>
</svg>
