<svg width="24" height="25" viewBox="0 0 24 25" fill="none" xmlns="http://www.w3.org/2000/svg">
<g clip-path="url(#clip0_201_23635)">
<path d="M12 0.5C5.40891 0.5 0 5.90891 0 12.5C0 19.0911 5.40891 24.5 12 24.5C18.5911 24.5 24 19.0911 24 12.5C24 5.90891 18.5911 0.5 12 0.5ZM17.9662 5.53948L18.9605 6.53375L17.9662 7.52802L16.972 6.53375L17.9662 5.53948ZM14.8482 3.7858L16.1474 4.32411L15.6097 5.62325L14.3106 5.08494L14.8482 3.7858ZM21.1406 12.5C21.1406 17.54 17.04 21.6406 12 21.6406C6.96 21.6406 2.85938 17.54 2.85938 12.5C2.85938 7.46 6.96 3.35938 12 3.35938H12.7031V6.17188H11.2969V4.79722C7.59525 5.13228 4.67264 8.09661 4.33275 11.7969H5.67188V13.2031H4.30125C4.63711 16.9072 7.59277 19.8629 11.2969 20.1987V18.8281H12.7031V20.1672C16.4034 19.8274 19.3677 16.9048 19.7028 13.2031H18.3281V11.7969H21.1406V12.5ZM12.7031 7.57812V12.7911L8.27836 17.2159L7.28409 16.2216L11.2969 12.2089V7.57812H12.7031ZM19.4151 10.1894L18.8768 8.8903L20.1759 8.35264L20.7142 9.65178L19.4151 10.1894Z" fill="#05C467"/>
</g>
<defs>
<clipPath id="clip0_201_23635">
<rect width="24" height="24" fill="white" transform="translate(0 0.5)"/>
</clipPath>
</defs>
</svg>
