<svg width="24" height="25" viewBox="0 0 24 25" fill="none" xmlns="http://www.w3.org/2000/svg">
<path fill-rule="evenodd" clip-rule="evenodd" d="M8.87366 5.51934H22.1972L14.2837 10.9443L8.90084 7.25418C9.10578 6.70542 9.10752 6.08512 8.87366 5.51934ZM5.38911 8.66803L7.33114 7.48556C7.90747 7.13465 8.09877 6.38596 7.76136 5.80157L6.00809 2.76482C5.82823 2.45324 5.55598 2.25281 5.20508 2.17359C4.85412 2.09432 4.52225 2.15831 4.22591 2.36235L1.02847 4.56379C-0.493516 9.92648 6.34597 21.5365 11.5915 22.8594L15.0967 21.1911C15.4215 21.0365 15.6429 20.781 15.7497 20.4374C15.8566 20.0939 15.8191 19.7579 15.6392 19.4464L13.886 16.4096C13.5486 15.8252 12.8045 15.6165 12.2125 15.9402L10.2174 17.0308C8.24445 15.2761 5.92227 11.254 5.38911 8.66803ZM23.1649 6.21703L14.6001 12.0885C14.3997 12.2253 14.1422 12.2146 13.956 12.0808L8.27005 8.18287C8.16233 8.27995 8.04434 8.36845 7.91619 8.44649L6.68787 9.19434C7.3332 11.277 8.93 14.0427 10.411 15.6429L11.6728 14.9531C12.8002 14.3368 14.2177 14.7344 14.8602 15.8471L15.9475 17.7304H22.2807C22.7807 17.7304 23.1898 17.3212 23.1898 16.8212V6.42853C23.1899 6.35578 23.1812 6.28495 23.1649 6.21703Z" fill="#05C467"/>
</svg>
