<svg width="30" height="29" viewBox="0 0 30 29" fill="none" xmlns="http://www.w3.org/2000/svg">
<path d="M4.69292 2.70355H8.46636V4.61699C8.76003 4.41531 8.92251 4.3143 9.07134 4.19992C10.6822 2.96184 12.2913 1.72205 13.9001 0.481913C14.6333 -0.0833405 15.4666 -0.0569147 16.2881 0.572441C18.6027 2.34566 20.9142 4.12199 23.2261 5.89797C25.1001 7.33762 26.9707 8.78072 28.8477 10.2174C29.3521 10.6035 29.6703 11.054 29.5486 11.658C29.3133 12.8253 27.8181 13.2497 26.7347 12.4363C25.125 11.2278 23.5426 9.99203 21.949 8.76736C19.8476 7.1524 17.7346 5.54852 15.655 3.91258C15.2012 3.55557 14.9291 3.53541 14.4553 3.90238C10.7907 6.74102 7.10071 9.55504 3.4106 12.3687C3.15308 12.565 2.85331 12.7551 2.53456 12.8477C1.81239 13.0575 1.0287 12.7708 0.65212 12.2226C0.257666 11.6484 0.382061 10.8791 0.999698 10.3927C2.07366 9.54707 3.18794 8.73959 4.24485 7.87855C4.48028 7.68678 4.66509 7.34189 4.67329 7.06311C4.71565 5.62469 4.69292 4.18492 4.69292 2.70355Z" fill="#05C467"/>
<path d="M11.056 11.3398H13.7174V14.9713H10.0859V12.3099C10.0859 11.7737 10.5199 11.3398 11.056 11.3398Z" fill="#05C467"/>
<path d="M10.0859 17.1484H13.7174V20.7771H11.056C10.5199 20.7771 10.086 20.3433 10.086 19.8071V17.1484H10.0859Z" fill="#05C467"/>
<path d="M19.9139 12.308V14.9694H16.2852V11.3379H18.9438C19.4799 11.3379 19.9139 11.7718 19.9139 12.308Z" fill="#05C467"/>
<path d="M19.9148 17.1484V18.0131C18.9129 18.8003 18.1496 19.9452 17.7739 20.5833C17.7441 20.6251 17.7203 20.6728 17.6726 20.7682C17.6726 20.7682 17.6726 20.7742 17.6666 20.7742H16.2891V17.1484H19.9148Z" fill="#05C467"/>
<path d="M29.2062 16.4766C29.2075 16.5069 27.8301 16.7146 27.7141 16.7347C26.9886 16.8521 26.2485 16.9579 25.513 17.0893C24.0108 17.3576 22.5291 17.7347 21.2324 18.5395C21.0859 18.6304 20.9412 18.7253 20.7997 18.8276C20.008 19.4033 19.2878 20.3622 18.7933 21.1951C18.7615 21.2486 18.7334 21.3049 18.7024 21.359C18.028 22.5386 17.5489 23.8644 17.2634 25.2064C17.1834 25.5824 17.1152 25.9593 17.0656 26.3346C17.0491 26.4599 16.9577 27.4063 16.9258 27.9566C16.9672 27.9248 17.1116 27.8111 17.3426 27.6308C17.6131 27.4203 17.9993 27.1117 18.4569 26.7328C18.9189 26.3597 19.4382 25.9022 20.0029 25.4223C20.2865 25.1798 20.5639 24.9171 20.8568 24.6582C20.9801 24.5448 21.1065 24.4285 21.2324 24.315V24.3123C21.4002 24.1654 21.564 24.0185 21.7277 23.8631C22.0139 23.5853 22.3002 23.3117 22.578 23.0423C22.8558 22.7687 23.1421 22.512 23.3904 22.2342C23.6472 21.9648 23.8956 21.7038 24.1271 21.4597C24.1606 21.4262 24.19 21.3926 24.2235 21.3591H24.3707H24.3708C24.3204 21.4179 24.2659 21.4724 24.2155 21.5354C23.9881 21.7922 23.7524 22.0616 23.5083 22.3436C23.2642 22.6256 22.9905 22.8993 22.7254 23.1813C22.4518 23.4675 22.1782 23.7537 21.9004 24.04C21.6815 24.2672 21.4542 24.4819 21.2311 24.7008V24.7022C21.1736 24.7584 21.1154 24.8165 21.0588 24.8727C20.7764 25.1454 20.5046 25.4195 20.2321 25.6723C19.6835 26.1773 19.1804 26.6601 18.7285 27.0503C18.286 27.4489 17.908 27.7763 17.6426 28.0017C17.4274 28.1823 17.2881 28.2986 17.2403 28.3383C29.9156 27.6814 29.2062 16.4766 29.2062 16.4766Z" fill="#2F9DFF"/>
<path d="M14.4953 25.5345C14.1522 25.1364 13.8012 24.7883 13.4446 24.4903C9.46006 21.1602 4.86719 23.7002 4.86719 23.7002C4.88617 23.6897 5.4308 24.5007 5.47826 24.5696C6.43574 25.9596 7.35801 27.4891 8.88314 28.3256C9.48602 28.6562 10.3094 28.8247 10.9871 28.8881C12.2426 29.0056 13.5684 28.8241 14.7658 28.4395C14.8855 28.4011 16.1074 27.96 16.086 27.9186C15.5894 26.9645 15.0533 26.182 14.4953 25.5345Z" fill="#2F9DFF"/>
</svg>
