<svg width="20" height="20" viewBox="0 0 20 20" fill="none" xmlns="http://www.w3.org/2000/svg">
<g clip-path="url(#clip0_31_1084)">
<path d="M17.7761 13.9426C17.7035 13.8699 17.6027 13.8281 17.5 13.8281C17.3973 13.8281 17.2965 13.8699 17.2238 13.9426C17.1512 14.0153 17.1094 14.1156 17.1094 14.2188C17.1094 14.3215 17.1511 14.4223 17.2238 14.4949C17.2965 14.5675 17.3973 14.6094 17.5 14.6094C17.6027 14.6094 17.7035 14.5676 17.7761 14.4949C17.8488 14.4223 17.8906 14.3215 17.8906 14.2188C17.8906 14.116 17.8488 14.0152 17.7761 13.9426Z" fill="#004AA9"/>
<path d="M19.6094 19.2187H17.8906V15.5859C17.8906 15.3702 17.7157 15.1953 17.5 15.1953C17.2843 15.1953 17.1094 15.3702 17.1094 15.5859V19.2187H4.76562V15.5468C4.76562 15.3311 4.5907 15.1562 4.375 15.1562C4.1593 15.1562 3.98438 15.3311 3.98438 15.5468V19.2187H2.89062V8.94536L10 3.39509L17.1094 8.94536V12.6562C17.1094 12.8719 17.2843 13.0468 17.5 13.0468C17.7157 13.0468 17.8906 12.8719 17.8906 12.6562V9.55528L17.9589 9.6086C18.0299 9.66403 18.1147 9.69134 18.1991 9.69134C18.2996 9.69134 18.3997 9.65271 18.4755 9.57692L19.8844 8.16794C19.9635 8.0888 20.0049 7.9795 19.9981 7.86778C19.9912 7.75606 19.9368 7.65267 19.8486 7.5838L17.5 5.75028V1.83591C17.5 1.62017 17.3251 1.44528 17.1094 1.44528H14.8454C14.6297 1.44528 14.4548 1.62017 14.4548 1.83591V3.37286L10.2404 0.0827051C10.0991 -0.0275684 9.90086 -0.0275684 9.75961 0.0827051L0.151406 7.5838C0.0631641 7.65267 0.00875 7.75606 0.001875 7.86778C-0.00496094 7.9795 0.0364453 8.08876 0.115547 8.16794L1.52449 9.57692C1.66395 9.71634 1.88559 9.73001 2.04109 9.6086L2.10938 9.55528V19.2187H0.390625C0.174922 19.2187 0 19.3936 0 19.6093C0 19.825 0.174922 20 0.390625 20H19.6094C19.8251 20 20 19.825 20 19.6093C20 19.3936 19.8251 19.2187 19.6094 19.2187ZM15.236 2.22653H16.7188V5.14036L15.236 3.98278V2.22653ZM1.83266 8.7802L0.980313 7.92782L10 0.886143L19.0197 7.92782L18.1673 8.7802L10.2404 2.59161C10.1697 2.53646 10.0849 2.50888 10 2.50888C9.91512 2.50888 9.83023 2.53646 9.75965 2.59161L1.83266 8.7802Z" fill="#004AA9"/>
<path d="M13.75 8.51562H6.25C6.0343 8.51562 5.85938 8.69051 5.85938 8.90625V16.4062C5.85938 16.622 6.0343 16.7969 6.25 16.7969H13.75C13.9657 16.7969 14.1406 16.622 14.1406 16.4062V8.90625C14.1406 8.69051 13.9657 8.51562 13.75 8.51562ZM9.60938 16.0156H6.64062V13.0469H9.60938V16.0156ZM9.60938 12.2656H6.64062V9.29688H9.60938V12.2656ZM13.3594 16.0156H10.3906V13.0469H13.3594V16.0156ZM13.3594 12.2656H10.3906V9.29688H13.3594V12.2656Z" fill="#004AA9"/>
<path d="M4.375 13.6133C4.1593 13.6133 3.98438 13.7882 3.98438 14.0039V14.0102C3.98438 14.2259 4.1593 14.4008 4.375 14.4008C4.5907 14.4008 4.76562 14.2259 4.76562 14.0102V14.0039C4.76562 13.7882 4.5907 13.6133 4.375 13.6133Z" fill="#004AA9"/>
</g>
<defs>
<clipPath id="clip0_31_1084">
<rect width="20" height="20" fill="white"/>
</clipPath>
</defs>
</svg>
