<svg width="24" height="24" viewBox="0 0 24 24" fill="none" xmlns="http://www.w3.org/2000/svg">
<g clip-path="url(#clip0_31_552)">
<path d="M23.9823 4.2597L23.3229 7.48135C23.1877 8.13984 22.3748 8.38389 21.8996 7.90874L21.0819 7.0909L18.6805 9.49227C18.0162 10.1565 16.9354 10.1565 16.2712 9.49227C16.0907 9.3118 15.797 9.31175 15.6165 9.49227L7.88564 17.2231C7.22135 17.8873 6.14055 17.8873 5.47632 17.2231L5.09486 16.8416C4.91429 16.6612 4.62065 16.6611 4.44013 16.8416L1.03533 20.2464C0.824647 20.4571 0.483094 20.4571 0.272412 20.2464L0.158012 20.132C-0.0526706 19.9213 -0.0526706 19.5797 0.158012 19.3691L3.56276 15.9643C4.22705 15.3 5.30785 15.3001 5.97213 15.9643C6.36361 16.3558 6.99829 16.3558 7.38978 15.9643L14.739 8.615C15.4033 7.95071 16.4841 7.95071 17.1484 8.615C17.3289 8.79542 17.6226 8.79547 17.8031 8.615L20.2046 6.21354L19.3377 5.34653C18.8626 4.87137 19.1062 4.05848 19.7647 3.92375L22.9868 3.26389C23.0774 3.24516 23.1662 3.24158 23.2518 3.25142C23.6395 3.29471 23.9514 3.60657 23.9946 3.99471C24.0046 4.07989 24.001 4.16869 23.9823 4.2597Z" fill="url(#paint0_linear_31_552)"/>
<path d="M23.9824 4.28468L23.323 7.50633C23.1878 8.16482 22.3749 8.40887 21.8997 7.93371L21.082 7.11588L23.9948 4.20312C23.9918 4.23014 23.988 4.25724 23.9824 4.28468Z" fill="url(#paint1_linear_31_552)"/>
<path d="M20.2046 6.21307L19.3377 5.34606C18.8626 4.87091 19.1062 4.05801 19.7647 3.92328L22.9868 3.26342C23.0494 3.25048 23.1111 3.24526 23.1715 3.2462L20.2046 6.21307Z" fill="url(#paint2_linear_31_552)"/>
<path d="M10.9317 18.1007H3.61732C3.27854 18.1007 3.00391 17.826 3.00391 17.4872V15.838C3.00391 15.4992 3.27854 15.2246 3.61732 15.2246H10.9317C11.2705 15.2246 11.5451 15.4992 11.5451 15.838V17.4872C11.5451 17.826 11.2705 18.1007 10.9317 18.1007Z" fill="url(#paint3_linear_31_552)"/>
<path d="M10.0221 18.1006H4.52259C4.22532 18.1006 3.98438 17.8596 3.98438 17.5624V15.7628C3.98438 15.4656 4.22536 15.2246 4.52259 15.2246H10.0221C10.3193 15.2246 10.5603 15.4656 10.5603 15.7628V17.5624C10.5603 17.8596 10.3193 18.1006 10.0221 18.1006Z" fill="url(#paint4_linear_31_552)"/>
<path d="M8.88115 18.1006H5.66148C5.42774 18.1006 5.23828 17.9111 5.23828 17.6774V15.6478C5.23828 15.4141 5.42774 15.2246 5.66148 15.2246H8.88115C9.11489 15.2246 9.30435 15.4141 9.30435 15.6478V17.6774C9.30435 17.9111 9.11485 18.1006 8.88115 18.1006Z" fill="url(#paint5_linear_31_552)"/>
<path d="M7.76443 18.1007H6.78386C6.64221 18.1007 6.52734 17.9858 6.52734 17.8441V15.4811C6.52734 15.3395 6.64217 15.2246 6.78386 15.2246H7.76443C7.90607 15.2246 8.02094 15.3394 8.02094 15.4811V17.8441C8.02094 17.9858 7.90607 18.1007 7.76443 18.1007Z" fill="url(#paint6_linear_31_552)"/>
<path d="M11.5435 15.8378V17.4872C11.5435 17.8256 11.2692 18.1004 10.9303 18.1004H8.88281C9.11669 18.1004 9.30587 17.9107 9.30587 17.6773V15.6477C9.30587 15.4138 9.11669 15.2246 8.88281 15.2246H10.9303C11.2692 15.2246 11.5435 15.499 11.5435 15.8378Z" fill="url(#paint7_linear_31_552)"/>
<path d="M3.00391 15.9238V17.4874C3.00391 17.8261 3.27854 18.1007 3.61732 18.1007H10.9317C11.2705 18.1007 11.5451 17.8261 11.5451 17.4874V15.9238H3.00391Z" fill="url(#paint8_linear_31_552)"/>
<path d="M10.0528 20.9757H2.73841C2.39964 20.9757 2.125 20.701 2.125 20.3622V18.713C2.125 18.3742 2.39964 18.0996 2.73841 18.0996H10.0528C10.3916 18.0996 10.6662 18.3742 10.6662 18.713V20.3622C10.6662 20.7011 10.3915 20.9757 10.0528 20.9757Z" fill="url(#paint9_linear_31_552)"/>
<path d="M9.14707 20.9756H3.64759C3.35032 20.9756 3.10938 20.7346 3.10938 20.4374V18.6378C3.10938 18.3406 3.35036 18.0996 3.64759 18.0996H9.14707C9.44434 18.0996 9.68528 18.3406 9.68528 18.6378V20.4374C9.68528 20.7347 9.44434 20.9756 9.14707 20.9756Z" fill="url(#paint10_linear_31_552)"/>
<path d="M8.00615 20.9756H4.78648C4.55274 20.9756 4.36328 20.7861 4.36328 20.5524V18.5228C4.36328 18.2891 4.55274 18.0996 4.78648 18.0996H8.00615C8.23989 18.0996 8.42935 18.2891 8.42935 18.5228V20.5524C8.4294 20.7861 8.23989 20.9756 8.00615 20.9756Z" fill="url(#paint11_linear_31_552)"/>
<path d="M6.88943 20.9757H5.90886C5.76721 20.9757 5.65234 20.8608 5.65234 20.7191V18.3561C5.65234 18.2145 5.76717 18.0996 5.90886 18.0996H6.88943C7.03107 18.0996 7.14594 18.2144 7.14594 18.3561V20.7191C7.1459 20.8608 7.03107 20.9757 6.88943 20.9757Z" fill="url(#paint12_linear_31_552)"/>
<path d="M10.6685 18.7128V20.3622C10.6685 20.7006 10.3942 20.9754 10.0553 20.9754H8.00781C8.24169 20.9754 8.43087 20.7857 8.43087 20.5523V18.5227C8.43087 18.2888 8.24169 18.0996 8.00781 18.0996H10.0553C10.3942 18.0996 10.6685 18.374 10.6685 18.7128Z" fill="url(#paint13_linear_31_552)"/>
<path d="M2.125 18.7988V20.3624C2.125 20.7011 2.39964 20.9757 2.73841 20.9757H10.0528C10.3916 20.9757 10.6662 20.7011 10.6662 20.3624V18.7988H2.125Z" fill="url(#paint14_linear_31_552)"/>
<path d="M21.2403 15.2237H13.9259C13.5871 15.2237 13.3125 14.9491 13.3125 14.6103V12.9611C13.3125 12.6223 13.5871 12.3477 13.9259 12.3477H21.2403C21.5791 12.3477 21.8537 12.6223 21.8537 12.9611V14.6103C21.8537 14.9491 21.5791 15.2237 21.2403 15.2237Z" fill="url(#paint15_linear_31_552)"/>
<path d="M20.3345 15.2237H14.8351C14.5379 15.2237 14.2969 14.9827 14.2969 14.6854V12.8859C14.2969 12.5886 14.5379 12.3477 14.8351 12.3477H20.3346C20.6318 12.3477 20.8728 12.5886 20.8728 12.8859V14.6854C20.8728 14.9827 20.6318 15.2237 20.3345 15.2237Z" fill="url(#paint16_linear_31_552)"/>
<path d="M19.1937 15.2236H15.974C15.7402 15.2236 15.5508 15.0342 15.5508 14.8004V12.7709C15.5508 12.5371 15.7403 12.3477 15.974 12.3477H19.1937C19.4274 12.3477 19.6169 12.5371 19.6169 12.7709V14.8004C19.6169 15.0341 19.4274 15.2236 19.1937 15.2236Z" fill="url(#paint17_linear_31_552)"/>
<path d="M18.0769 15.2237H17.0964C16.9547 15.2237 16.8398 15.1089 16.8398 14.9672V12.6042C16.8398 12.4625 16.9547 12.3477 17.0964 12.3477H18.0769C18.2186 12.3477 18.3334 12.4625 18.3334 12.6042V14.9672C18.3334 15.1088 18.2186 15.2237 18.0769 15.2237Z" fill="url(#paint18_linear_31_552)"/>
<path d="M21.856 12.9608V14.6102C21.856 14.9486 21.5817 15.2234 21.2428 15.2234H19.1953C19.4292 15.2234 19.6184 15.0338 19.6184 14.8004V12.7707C19.6184 12.5368 19.4292 12.3477 19.1953 12.3477H21.2428C21.5817 12.3477 21.856 12.622 21.856 12.9608Z" fill="url(#paint19_linear_31_552)"/>
<path d="M13.3125 13.0469V14.6104C13.3125 14.9492 13.5871 15.2238 13.9259 15.2238H21.2403C21.5791 15.2238 21.8537 14.9491 21.8537 14.6104V13.0469H13.3125Z" fill="url(#paint20_linear_31_552)"/>
<path d="M22.1192 18.1007H14.8048C14.466 18.1007 14.1914 17.826 14.1914 17.4872V15.838C14.1914 15.4992 14.466 15.2246 14.8048 15.2246H22.1192C22.458 15.2246 22.7326 15.4992 22.7326 15.838V17.4872C22.7326 17.826 22.4579 18.1007 22.1192 18.1007Z" fill="url(#paint21_linear_31_552)"/>
<path d="M21.2135 18.1006H15.714C15.4168 18.1006 15.1758 17.8596 15.1758 17.5624V15.7628C15.1758 15.4656 15.4168 15.2246 15.714 15.2246H21.2135C21.5107 15.2246 21.7517 15.4656 21.7517 15.7628V17.5624C21.7517 17.8596 21.5107 18.1006 21.2135 18.1006Z" fill="url(#paint22_linear_31_552)"/>
<path d="M20.0726 18.1006H16.8529C16.6191 18.1006 16.4297 17.9111 16.4297 17.6774V15.6478C16.4297 15.4141 16.6191 15.2246 16.8529 15.2246H20.0726C20.3063 15.2246 20.4958 15.4141 20.4958 15.6478V17.6774C20.4958 17.9111 20.3063 18.1006 20.0726 18.1006Z" fill="url(#paint23_linear_31_552)"/>
<path d="M18.9558 18.1007H17.9753C17.8336 18.1007 17.7188 17.9858 17.7188 17.8441V15.4811C17.7188 15.3395 17.8336 15.2246 17.9753 15.2246H18.9558C19.0975 15.2246 19.2124 15.3394 19.2124 15.4811V17.8441C19.2124 17.9858 19.0975 18.1007 18.9558 18.1007Z" fill="url(#paint24_linear_31_552)"/>
<path d="M22.731 15.8378V17.4872C22.731 17.8256 22.4567 18.1004 22.1178 18.1004H20.0703C20.3042 18.1004 20.4934 17.9107 20.4934 17.6773V15.6477C20.4934 15.4138 20.3042 15.2246 20.0703 15.2246H22.1178C22.4567 15.2246 22.731 15.499 22.731 15.8378Z" fill="url(#paint25_linear_31_552)"/>
<path d="M14.1914 15.9238V17.4874C14.1914 17.8261 14.466 18.1007 14.8048 18.1007H22.1192C22.458 18.1007 22.7326 17.8261 22.7326 17.4874V15.9238H14.1914Z" fill="url(#paint26_linear_31_552)"/>
<path d="M20.3888 20.9757H13.0743C12.7356 20.9757 12.4609 20.701 12.4609 20.3622V18.713C12.4609 18.3742 12.7356 18.0996 13.0743 18.0996H20.3888C20.7275 18.0996 21.0022 18.3742 21.0022 18.713V20.3622C21.0021 20.7011 20.7275 20.9757 20.3888 20.9757Z" fill="url(#paint27_linear_31_552)"/>
<path d="M19.483 20.9756H13.9835C13.6863 20.9756 13.4453 20.7346 13.4453 20.4374V18.6378C13.4453 18.3406 13.6863 18.0996 13.9835 18.0996H19.483C19.7802 18.0996 20.0212 18.3406 20.0212 18.6378V20.4374C20.0212 20.7347 19.7803 20.9756 19.483 20.9756Z" fill="url(#paint28_linear_31_552)"/>
<path d="M18.3421 20.9756H15.1224C14.8887 20.9756 14.6992 20.7861 14.6992 20.5524V18.5228C14.6992 18.2891 14.8887 18.0996 15.1224 18.0996H18.3421C18.5758 18.0996 18.7653 18.2891 18.7653 18.5228V20.5524C18.7653 20.7861 18.5758 20.9756 18.3421 20.9756Z" fill="url(#paint29_linear_31_552)"/>
<path d="M17.2254 20.9757H16.2448C16.1032 20.9757 15.9883 20.8608 15.9883 20.7191V18.3561C15.9883 18.2145 16.1031 18.0996 16.2448 18.0996H17.2254C17.367 18.0996 17.4819 18.2144 17.4819 18.3561V20.7191C17.4818 20.8608 17.367 20.9757 17.2254 20.9757Z" fill="url(#paint30_linear_31_552)"/>
<path d="M21.0045 18.7128V20.3622C21.0045 20.7006 20.7301 20.9754 20.3913 20.9754H18.3438C18.5776 20.9754 18.7668 20.7857 18.7668 20.5523V18.5227C18.7668 18.2888 18.5776 18.0996 18.3438 18.0996H20.3913C20.7301 18.0996 21.0045 18.374 21.0045 18.7128Z" fill="url(#paint31_linear_31_552)"/>
<path d="M12.4609 18.7988V20.3624C12.4609 20.7011 12.7356 20.9757 13.0743 20.9757H20.3887C20.7275 20.9757 21.0021 20.7011 21.0021 20.3624V18.7988H12.4609Z" fill="url(#paint32_linear_31_552)"/>
<path d="M14.1901 16.6657V17.4872C14.1901 17.826 14.4647 18.1006 14.8035 18.1006H13.0743C12.7356 18.1006 12.4609 18.3752 12.4609 18.7139V20.3632C12.4609 20.7019 12.7356 20.9766 13.0743 20.9766H20.3887C20.6634 20.9766 20.8958 20.796 20.974 20.5472L15.6514 15.2246H15.6312L14.1901 16.6657Z" fill="url(#paint33_linear_31_552)"/>
<path d="M12.002 24.0001C14.8444 24.0001 17.1486 21.6959 17.1486 18.8536C17.1486 16.0112 14.8444 13.707 12.002 13.707C9.15965 13.707 6.85547 16.0112 6.85547 18.8536C6.85547 21.6959 9.15965 24.0001 12.002 24.0001Z" fill="url(#paint34_linear_31_552)"/>
<path d="M17.1465 18.8536C17.1465 16.0112 14.8424 13.707 12 13.707V24.0001C14.8424 24.0001 17.1465 21.6959 17.1465 18.8536Z" fill="url(#paint35_linear_31_552)"/>
<path d="M12.002 24.0001C14.8444 24.0001 17.1486 21.6959 17.1486 18.8535H6.85547C6.85547 21.6959 9.15966 24.0001 12.002 24.0001Z" fill="url(#paint36_linear_31_552)"/>
<path d="M15.6416 15.2144C13.6318 13.2046 10.3731 13.2046 8.36328 15.2144L15.6416 22.4927C17.6514 20.4829 17.6514 17.2243 15.6416 15.2144Z" fill="url(#paint37_linear_31_552)"/>
<path d="M15.6416 22.4931C17.6514 20.4833 17.6514 17.2247 15.6416 15.2148L8.36328 22.4931C10.3731 24.503 13.6318 24.503 15.6416 22.4931Z" fill="url(#paint38_linear_31_552)"/>
<path d="M16.7647 20.8057C17.8427 18.1757 16.5846 15.1698 13.9545 14.0918L10.0508 23.6159C12.6808 24.6939 15.6867 23.4357 16.7647 20.8057Z" fill="url(#paint39_linear_31_552)"/>
<path d="M10.0515 23.6163C12.6815 24.6943 15.6874 23.4361 16.7654 20.8061L7.24134 16.9023C6.16331 19.5323 7.42148 22.5382 10.0515 23.6163Z" fill="url(#paint40_linear_31_552)"/>
<path d="M16.7541 16.8659C15.6567 14.2439 12.6415 13.0081 10.0195 14.1055L13.9937 23.6004C16.6157 22.5029 17.8515 19.4878 16.7541 16.8659Z" fill="url(#paint41_linear_31_552)"/>
<path d="M13.9924 23.6017C16.6143 22.5043 17.8501 19.4891 16.7527 16.8672L7.25781 20.8414C8.35527 23.4633 11.3704 24.6991 13.9924 23.6017Z" fill="url(#paint42_linear_31_552)"/>
<path d="M12.0051 23.397C14.5148 23.397 16.5493 21.3625 16.5493 18.8528C16.5493 16.3431 14.5148 14.3086 12.0051 14.3086C9.49544 14.3086 7.46094 16.3431 7.46094 18.8528C7.46094 21.3625 9.49544 23.397 12.0051 23.397Z" fill="url(#paint43_linear_31_552)"/>
<path d="M12.0045 22.8878C14.2333 22.8878 16.0402 21.081 16.0402 18.8521C16.0402 16.6233 14.2333 14.8164 12.0045 14.8164C9.7756 14.8164 7.96875 16.6233 7.96875 18.8521C7.96875 21.081 9.7756 22.8878 12.0045 22.8878Z" fill="url(#paint44_linear_31_552)"/>
<path d="M12.4253 18.1582V16.8897C12.9901 16.9331 13.1551 17.2111 13.4418 17.2111C13.8242 17.2111 13.9806 16.7333 13.9806 16.4987C13.9806 15.8993 12.964 15.7602 12.4253 15.7429V15.5257C12.4253 15.404 12.2603 15.291 12.0952 15.291C11.9041 15.291 11.7651 15.404 11.7651 15.5257V15.7689C10.8441 15.8993 10.0275 16.4292 10.0275 17.5326C10.0275 18.6447 10.9658 19.0183 11.7651 19.3224V20.7298C11.1221 20.6169 10.8268 20.1043 10.4619 20.1043C10.1317 20.1043 9.87109 20.5387 9.87109 20.8341C9.87109 21.3901 10.7225 21.9289 11.7651 21.9636V22.1808C11.7651 22.3025 11.9042 22.4154 12.0953 22.4154C12.2603 22.4154 12.4254 22.3025 12.4254 22.1808V21.9289C13.4419 21.7638 14.137 21.1121 14.137 20.0348C14.1369 18.8619 13.216 18.4536 12.4253 18.1582ZM11.8519 17.9497C11.5218 17.8107 11.2959 17.6543 11.2959 17.4023C11.2959 17.1938 11.4609 16.9939 11.8519 16.9158V17.9497ZM12.3385 20.7212V19.557C12.6512 19.7047 12.8685 19.8872 12.8685 20.1738C12.8685 20.4866 12.6339 20.6517 12.3385 20.7212Z" fill="url(#paint45_linear_31_552)"/>
<path d="M17.1151 19.4648C16.8134 22.0193 14.6403 24.0001 12.0048 24.0001C9.36935 24.0001 7.19632 22.0193 6.89453 19.4648H17.1151Z" fill="url(#paint46_linear_31_552)"/>
<path d="M8.6132 8.72921C9.32332 8.86728 10.0466 8.92596 10.777 8.90098C11.2518 8.88474 11.3485 8.22258 10.8974 8.07335C10.6885 8.00422 10.4833 7.92752 10.2818 7.84319C9.90516 7.68549 9.75631 7.23514 9.96003 6.88126C10.3605 6.18549 10.5841 5.37495 10.569 4.511C10.5259 2.05378 8.52435 0.0483639 6.06718 0.000881582C3.45828 -0.0496125 1.33315 2.07556 1.3837 4.6846C1.43141 7.14531 3.44266 9.14822 5.90351 9.18629C6.5677 9.19655 7.20021 9.06582 7.77306 8.82211C8.03847 8.70921 8.33014 8.67415 8.6132 8.72921Z" fill="url(#paint47_linear_31_552)"/>
<path d="M1.38369 4.68383C1.43141 7.14454 3.44265 9.14745 5.9035 9.18553C6.56769 9.19578 7.20021 9.06505 7.77306 8.82134C8.03842 8.70844 8.33009 8.67338 8.61315 8.72844C9.32327 8.86651 10.0466 8.9252 10.777 8.90021C11.2517 8.88397 11.3484 8.22176 10.8974 8.07258C10.6885 8.00345 10.4832 7.92675 10.2818 7.84242C9.9051 7.68473 9.75626 7.23437 9.95997 6.88049C10.3605 6.18472 10.5841 5.37418 10.5689 4.51023C10.5609 4.05447 10.4854 3.61428 10.3523 3.19922H1.59828C1.44981 3.66614 1.37367 4.16534 1.38369 4.68383Z" fill="url(#paint48_linear_31_552)"/>
<path d="M10.898 8.07398C10.6891 8.00485 10.4838 7.92814 10.2824 7.84381C9.90573 7.68612 9.75688 7.23576 9.9606 6.88188C10.3611 6.18612 10.5847 5.37558 10.5695 4.51162C10.5446 3.09002 9.86418 1.81972 8.81924 0.992188L2.375 7.43642C3.20451 8.48376 4.47886 9.16489 5.90404 9.18696C6.56822 9.19722 7.20074 9.06649 7.77359 8.82278C8.03895 8.70988 8.33062 8.67482 8.61368 8.72988C9.3238 8.86795 10.0471 8.92663 10.7775 8.90165C11.2524 8.88536 11.349 8.22315 10.898 8.07398Z" fill="url(#paint49_linear_31_552)"/>
<path d="M5.36089 3.74089V2.59012C5.36089 1.78781 4.82602 1.49609 4.14526 1.49609C3.45642 1.49609 2.92969 1.78781 2.92969 2.59012V3.74089C2.92969 4.54315 3.45646 4.83492 4.14526 4.83492C4.82602 4.83492 5.36089 4.54315 5.36089 3.74089ZM4.55049 3.74089C4.55049 4.00828 4.39651 4.12988 4.14531 4.12988C3.89411 4.12988 3.74818 4.00833 3.74818 3.74089V2.59012C3.74818 2.32268 3.89406 2.20113 4.14531 2.20113C4.39656 2.20113 4.55049 2.32268 4.55049 2.59012V3.74089Z" fill="url(#paint50_linear_31_552)"/>
<path d="M7.8754 1.59357C7.8754 1.33423 7.62416 1.16406 7.39724 1.16406C7.25136 1.16406 7.12171 1.22891 7.05686 1.3667L4.21239 7.20966C4.18806 7.25832 4.17188 7.31503 4.17188 7.36369C4.17188 7.56627 4.35018 7.79319 4.62571 7.79319C4.77969 7.79319 4.93366 7.71216 4.99042 7.59056L7.84298 1.74759C7.86731 1.69893 7.8754 1.64223 7.8754 1.59357Z" fill="url(#paint51_linear_31_552)"/>
<path d="M7.86406 4.10547C7.17521 4.10547 6.64844 4.39723 6.64844 5.19954V6.35027C6.64844 7.15258 7.17521 7.44434 7.86406 7.44434C8.54481 7.44434 9.07964 7.15258 9.07964 6.35027V5.19954C9.07968 4.39719 8.54481 4.10547 7.86406 4.10547ZM8.26924 6.35027C8.26924 6.6177 8.11526 6.73926 7.86406 6.73926C7.61286 6.73926 7.46693 6.6177 7.46693 6.35027V5.19954C7.46693 4.9321 7.61281 4.81055 7.86406 4.81055C8.11531 4.81055 8.26924 4.9321 8.26924 5.19954V6.35027Z" fill="url(#paint52_linear_31_552)"/>
</g>
<defs>
<linearGradient id="paint0_linear_31_552" x1="11.015" y1="10.7298" x2="15.062" y2="15.3886" gradientUnits="userSpaceOnUse">
<stop stop-color="#BBEC6C"/>
<stop offset="1" stop-color="#78A91F"/>
</linearGradient>
<linearGradient id="paint1_linear_31_552" x1="22.334" y1="7.27922" x2="21.6281" y2="7.98505" gradientUnits="userSpaceOnUse">
<stop stop-color="#026841" stop-opacity="0"/>
<stop offset="0.3243" stop-color="#046842" stop-opacity="0.324"/>
<stop offset="0.5509" stop-color="#0E6546" stop-opacity="0.551"/>
<stop offset="0.7476" stop-color="#1D614C" stop-opacity="0.748"/>
<stop offset="0.9263" stop-color="#335C54" stop-opacity="0.926"/>
<stop offset="1" stop-color="#3E5959"/>
</linearGradient>
<linearGradient id="paint2_linear_31_552" x1="20.0269" y1="4.92629" x2="19.3079" y2="5.64526" gradientUnits="userSpaceOnUse">
<stop stop-color="#026841" stop-opacity="0"/>
<stop offset="0.3243" stop-color="#046842" stop-opacity="0.324"/>
<stop offset="0.5509" stop-color="#0E6546" stop-opacity="0.551"/>
<stop offset="0.7476" stop-color="#1D614C" stop-opacity="0.748"/>
<stop offset="0.9263" stop-color="#335C54" stop-opacity="0.926"/>
<stop offset="1" stop-color="#3E5959"/>
</linearGradient>
<linearGradient id="paint3_linear_31_552" x1="7.27454" y1="15.7359" x2="7.27454" y2="18.4437" gradientUnits="userSpaceOnUse">
<stop stop-color="#FEF0AE"/>
<stop offset="1" stop-color="#FAC600"/>
</linearGradient>
<linearGradient id="paint4_linear_31_552" x1="7.27233" y1="13.6491" x2="7.27233" y2="21.2413" gradientUnits="userSpaceOnUse">
<stop stop-color="#FEA613" stop-opacity="0"/>
<stop offset="0.2032" stop-color="#FDA215" stop-opacity="0.203"/>
<stop offset="0.4052" stop-color="#FB961B" stop-opacity="0.405"/>
<stop offset="0.6066" stop-color="#F68225" stop-opacity="0.607"/>
<stop offset="0.8066" stop-color="#F06633" stop-opacity="0.807"/>
<stop offset="1" stop-color="#E94444"/>
</linearGradient>
<linearGradient id="paint5_linear_31_552" x1="7.27132" y1="13.6491" x2="7.27132" y2="21.2413" gradientUnits="userSpaceOnUse">
<stop stop-color="#FEA613" stop-opacity="0"/>
<stop offset="0.2032" stop-color="#FDA215" stop-opacity="0.203"/>
<stop offset="0.4052" stop-color="#FB961B" stop-opacity="0.405"/>
<stop offset="0.6066" stop-color="#F68225" stop-opacity="0.607"/>
<stop offset="0.8066" stop-color="#F06633" stop-opacity="0.807"/>
<stop offset="1" stop-color="#E94444"/>
</linearGradient>
<linearGradient id="paint6_linear_31_552" x1="7.27417" y1="13.6492" x2="7.27417" y2="21.2414" gradientUnits="userSpaceOnUse">
<stop stop-color="#FEA613" stop-opacity="0"/>
<stop offset="0.2032" stop-color="#FDA215" stop-opacity="0.203"/>
<stop offset="0.4052" stop-color="#FB961B" stop-opacity="0.405"/>
<stop offset="0.6066" stop-color="#F68225" stop-opacity="0.607"/>
<stop offset="0.8066" stop-color="#F06633" stop-opacity="0.807"/>
<stop offset="1" stop-color="#E94444"/>
</linearGradient>
<linearGradient id="paint7_linear_31_552" x1="10.2786" y1="16.6625" x2="11.9032" y2="16.6625" gradientUnits="userSpaceOnUse">
<stop stop-color="#FEA613" stop-opacity="0"/>
<stop offset="0.2032" stop-color="#FDA215" stop-opacity="0.203"/>
<stop offset="0.4052" stop-color="#FB961B" stop-opacity="0.405"/>
<stop offset="0.6066" stop-color="#F68225" stop-opacity="0.607"/>
<stop offset="0.8066" stop-color="#F06633" stop-opacity="0.807"/>
<stop offset="1" stop-color="#E94444"/>
</linearGradient>
<linearGradient id="paint8_linear_31_552" x1="7.27449" y1="16.7474" x2="7.27449" y2="18.2314" gradientUnits="userSpaceOnUse">
<stop stop-color="#FEA613" stop-opacity="0"/>
<stop offset="0.2032" stop-color="#FDA215" stop-opacity="0.203"/>
<stop offset="0.4052" stop-color="#FB961B" stop-opacity="0.405"/>
<stop offset="0.6066" stop-color="#F68225" stop-opacity="0.607"/>
<stop offset="0.8066" stop-color="#F06633" stop-opacity="0.807"/>
<stop offset="1" stop-color="#E94444"/>
</linearGradient>
<linearGradient id="paint9_linear_31_552" x1="6.39559" y1="18.6109" x2="6.39559" y2="21.3188" gradientUnits="userSpaceOnUse">
<stop stop-color="#FEF0AE"/>
<stop offset="1" stop-color="#FAC600"/>
</linearGradient>
<linearGradient id="paint10_linear_31_552" x1="6.39733" y1="16.5242" x2="6.39733" y2="24.1163" gradientUnits="userSpaceOnUse">
<stop stop-color="#FEA613" stop-opacity="0"/>
<stop offset="0.2032" stop-color="#FDA215" stop-opacity="0.203"/>
<stop offset="0.4052" stop-color="#FB961B" stop-opacity="0.405"/>
<stop offset="0.6066" stop-color="#F68225" stop-opacity="0.607"/>
<stop offset="0.8066" stop-color="#F06633" stop-opacity="0.807"/>
<stop offset="1" stop-color="#E94444"/>
</linearGradient>
<linearGradient id="paint11_linear_31_552" x1="6.39632" y1="16.5241" x2="6.39632" y2="24.1163" gradientUnits="userSpaceOnUse">
<stop stop-color="#FEA613" stop-opacity="0"/>
<stop offset="0.2032" stop-color="#FDA215" stop-opacity="0.203"/>
<stop offset="0.4052" stop-color="#FB961B" stop-opacity="0.405"/>
<stop offset="0.6066" stop-color="#F68225" stop-opacity="0.607"/>
<stop offset="0.8066" stop-color="#F06633" stop-opacity="0.807"/>
<stop offset="1" stop-color="#E94444"/>
</linearGradient>
<linearGradient id="paint12_linear_31_552" x1="6.39912" y1="16.5242" x2="6.39912" y2="24.1164" gradientUnits="userSpaceOnUse">
<stop stop-color="#FEA613" stop-opacity="0"/>
<stop offset="0.2032" stop-color="#FDA215" stop-opacity="0.203"/>
<stop offset="0.4052" stop-color="#FB961B" stop-opacity="0.405"/>
<stop offset="0.6066" stop-color="#F68225" stop-opacity="0.607"/>
<stop offset="0.8066" stop-color="#F06633" stop-opacity="0.807"/>
<stop offset="1" stop-color="#E94444"/>
</linearGradient>
<linearGradient id="paint13_linear_31_552" x1="9.40358" y1="19.5375" x2="11.0283" y2="19.5375" gradientUnits="userSpaceOnUse">
<stop stop-color="#FEA613" stop-opacity="0"/>
<stop offset="0.2032" stop-color="#FDA215" stop-opacity="0.203"/>
<stop offset="0.4052" stop-color="#FB961B" stop-opacity="0.405"/>
<stop offset="0.6066" stop-color="#F68225" stop-opacity="0.607"/>
<stop offset="0.8066" stop-color="#F06633" stop-opacity="0.807"/>
<stop offset="1" stop-color="#E94444"/>
</linearGradient>
<linearGradient id="paint14_linear_31_552" x1="6.39559" y1="19.6224" x2="6.39559" y2="21.1064" gradientUnits="userSpaceOnUse">
<stop stop-color="#FEA613" stop-opacity="0"/>
<stop offset="0.2032" stop-color="#FDA215" stop-opacity="0.203"/>
<stop offset="0.4052" stop-color="#FB961B" stop-opacity="0.405"/>
<stop offset="0.6066" stop-color="#F68225" stop-opacity="0.607"/>
<stop offset="0.8066" stop-color="#F06633" stop-opacity="0.807"/>
<stop offset="1" stop-color="#E94444"/>
</linearGradient>
<linearGradient id="paint15_linear_31_552" x1="17.5831" y1="12.8589" x2="17.5831" y2="15.5668" gradientUnits="userSpaceOnUse">
<stop stop-color="#FEF0AE"/>
<stop offset="1" stop-color="#FAC600"/>
</linearGradient>
<linearGradient id="paint16_linear_31_552" x1="17.5848" y1="10.7722" x2="17.5848" y2="18.3644" gradientUnits="userSpaceOnUse">
<stop stop-color="#FEA613" stop-opacity="0"/>
<stop offset="0.2032" stop-color="#FDA215" stop-opacity="0.203"/>
<stop offset="0.4052" stop-color="#FB961B" stop-opacity="0.405"/>
<stop offset="0.6066" stop-color="#F68225" stop-opacity="0.607"/>
<stop offset="0.8066" stop-color="#F06633" stop-opacity="0.807"/>
<stop offset="1" stop-color="#E94444"/>
</linearGradient>
<linearGradient id="paint17_linear_31_552" x1="17.5839" y1="10.7721" x2="17.5839" y2="18.3643" gradientUnits="userSpaceOnUse">
<stop stop-color="#FEA613" stop-opacity="0"/>
<stop offset="0.2032" stop-color="#FDA215" stop-opacity="0.203"/>
<stop offset="0.4052" stop-color="#FB961B" stop-opacity="0.405"/>
<stop offset="0.6066" stop-color="#F68225" stop-opacity="0.607"/>
<stop offset="0.8066" stop-color="#F06633" stop-opacity="0.807"/>
<stop offset="1" stop-color="#E94444"/>
</linearGradient>
<linearGradient id="paint18_linear_31_552" x1="17.5867" y1="10.7722" x2="17.5867" y2="18.3644" gradientUnits="userSpaceOnUse">
<stop stop-color="#FEA613" stop-opacity="0"/>
<stop offset="0.2032" stop-color="#FDA215" stop-opacity="0.203"/>
<stop offset="0.4052" stop-color="#FB961B" stop-opacity="0.405"/>
<stop offset="0.6066" stop-color="#F68225" stop-opacity="0.607"/>
<stop offset="0.8066" stop-color="#F06633" stop-opacity="0.807"/>
<stop offset="1" stop-color="#E94444"/>
</linearGradient>
<linearGradient id="paint19_linear_31_552" x1="20.5911" y1="13.7855" x2="22.2157" y2="13.7855" gradientUnits="userSpaceOnUse">
<stop stop-color="#FEA613" stop-opacity="0"/>
<stop offset="0.2032" stop-color="#FDA215" stop-opacity="0.203"/>
<stop offset="0.4052" stop-color="#FB961B" stop-opacity="0.405"/>
<stop offset="0.6066" stop-color="#F68225" stop-opacity="0.607"/>
<stop offset="0.8066" stop-color="#F06633" stop-opacity="0.807"/>
<stop offset="1" stop-color="#E94444"/>
</linearGradient>
<linearGradient id="paint20_linear_31_552" x1="17.5831" y1="13.8704" x2="17.5831" y2="15.3544" gradientUnits="userSpaceOnUse">
<stop stop-color="#FEA613" stop-opacity="0"/>
<stop offset="0.2032" stop-color="#FDA215" stop-opacity="0.203"/>
<stop offset="0.4052" stop-color="#FB961B" stop-opacity="0.405"/>
<stop offset="0.6066" stop-color="#F68225" stop-opacity="0.607"/>
<stop offset="0.8066" stop-color="#F06633" stop-opacity="0.807"/>
<stop offset="1" stop-color="#E94444"/>
</linearGradient>
<linearGradient id="paint21_linear_31_552" x1="18.462" y1="15.7359" x2="18.462" y2="18.4437" gradientUnits="userSpaceOnUse">
<stop stop-color="#FEF0AE"/>
<stop offset="1" stop-color="#FAC600"/>
</linearGradient>
<linearGradient id="paint22_linear_31_552" x1="18.4637" y1="13.6491" x2="18.4637" y2="21.2413" gradientUnits="userSpaceOnUse">
<stop stop-color="#FEA613" stop-opacity="0"/>
<stop offset="0.2032" stop-color="#FDA215" stop-opacity="0.203"/>
<stop offset="0.4052" stop-color="#FB961B" stop-opacity="0.405"/>
<stop offset="0.6066" stop-color="#F68225" stop-opacity="0.607"/>
<stop offset="0.8066" stop-color="#F06633" stop-opacity="0.807"/>
<stop offset="1" stop-color="#E94444"/>
</linearGradient>
<linearGradient id="paint23_linear_31_552" x1="18.4627" y1="13.6491" x2="18.4627" y2="21.2413" gradientUnits="userSpaceOnUse">
<stop stop-color="#FEA613" stop-opacity="0"/>
<stop offset="0.2032" stop-color="#FDA215" stop-opacity="0.203"/>
<stop offset="0.4052" stop-color="#FB961B" stop-opacity="0.405"/>
<stop offset="0.6066" stop-color="#F68225" stop-opacity="0.607"/>
<stop offset="0.8066" stop-color="#F06633" stop-opacity="0.807"/>
<stop offset="1" stop-color="#E94444"/>
</linearGradient>
<linearGradient id="paint24_linear_31_552" x1="18.4656" y1="13.6492" x2="18.4656" y2="21.2414" gradientUnits="userSpaceOnUse">
<stop stop-color="#FEA613" stop-opacity="0"/>
<stop offset="0.2032" stop-color="#FDA215" stop-opacity="0.203"/>
<stop offset="0.4052" stop-color="#FB961B" stop-opacity="0.405"/>
<stop offset="0.6066" stop-color="#F68225" stop-opacity="0.607"/>
<stop offset="0.8066" stop-color="#F06633" stop-opacity="0.807"/>
<stop offset="1" stop-color="#E94444"/>
</linearGradient>
<linearGradient id="paint25_linear_31_552" x1="21.4661" y1="16.6625" x2="23.0907" y2="16.6625" gradientUnits="userSpaceOnUse">
<stop stop-color="#FEA613" stop-opacity="0"/>
<stop offset="0.2032" stop-color="#FDA215" stop-opacity="0.203"/>
<stop offset="0.4052" stop-color="#FB961B" stop-opacity="0.405"/>
<stop offset="0.6066" stop-color="#F68225" stop-opacity="0.607"/>
<stop offset="0.8066" stop-color="#F06633" stop-opacity="0.807"/>
<stop offset="1" stop-color="#E94444"/>
</linearGradient>
<linearGradient id="paint26_linear_31_552" x1="18.462" y1="16.7474" x2="18.462" y2="18.2314" gradientUnits="userSpaceOnUse">
<stop stop-color="#FEA613" stop-opacity="0"/>
<stop offset="0.2032" stop-color="#FDA215" stop-opacity="0.203"/>
<stop offset="0.4052" stop-color="#FB961B" stop-opacity="0.405"/>
<stop offset="0.6066" stop-color="#F68225" stop-opacity="0.607"/>
<stop offset="0.8066" stop-color="#F06633" stop-opacity="0.807"/>
<stop offset="1" stop-color="#E94444"/>
</linearGradient>
<linearGradient id="paint27_linear_31_552" x1="16.7315" y1="18.6109" x2="16.7315" y2="21.3188" gradientUnits="userSpaceOnUse">
<stop stop-color="#FEF0AE"/>
<stop offset="1" stop-color="#FAC600"/>
</linearGradient>
<linearGradient id="paint28_linear_31_552" x1="16.7333" y1="16.5242" x2="16.7333" y2="24.1163" gradientUnits="userSpaceOnUse">
<stop stop-color="#FEA613" stop-opacity="0"/>
<stop offset="0.2032" stop-color="#FDA215" stop-opacity="0.203"/>
<stop offset="0.4052" stop-color="#FB961B" stop-opacity="0.405"/>
<stop offset="0.6066" stop-color="#F68225" stop-opacity="0.607"/>
<stop offset="0.8066" stop-color="#F06633" stop-opacity="0.807"/>
<stop offset="1" stop-color="#E94444"/>
</linearGradient>
<linearGradient id="paint29_linear_31_552" x1="16.7323" y1="16.5241" x2="16.7323" y2="24.1163" gradientUnits="userSpaceOnUse">
<stop stop-color="#FEA613" stop-opacity="0"/>
<stop offset="0.2032" stop-color="#FDA215" stop-opacity="0.203"/>
<stop offset="0.4052" stop-color="#FB961B" stop-opacity="0.405"/>
<stop offset="0.6066" stop-color="#F68225" stop-opacity="0.607"/>
<stop offset="0.8066" stop-color="#F06633" stop-opacity="0.807"/>
<stop offset="1" stop-color="#E94444"/>
</linearGradient>
<linearGradient id="paint30_linear_31_552" x1="16.7351" y1="16.5242" x2="16.7351" y2="24.1164" gradientUnits="userSpaceOnUse">
<stop stop-color="#FEA613" stop-opacity="0"/>
<stop offset="0.2032" stop-color="#FDA215" stop-opacity="0.203"/>
<stop offset="0.4052" stop-color="#FB961B" stop-opacity="0.405"/>
<stop offset="0.6066" stop-color="#F68225" stop-opacity="0.607"/>
<stop offset="0.8066" stop-color="#F06633" stop-opacity="0.807"/>
<stop offset="1" stop-color="#E94444"/>
</linearGradient>
<linearGradient id="paint31_linear_31_552" x1="19.7395" y1="19.5375" x2="21.3642" y2="19.5375" gradientUnits="userSpaceOnUse">
<stop stop-color="#FEA613" stop-opacity="0"/>
<stop offset="0.2032" stop-color="#FDA215" stop-opacity="0.203"/>
<stop offset="0.4052" stop-color="#FB961B" stop-opacity="0.405"/>
<stop offset="0.6066" stop-color="#F68225" stop-opacity="0.607"/>
<stop offset="0.8066" stop-color="#F06633" stop-opacity="0.807"/>
<stop offset="1" stop-color="#E94444"/>
</linearGradient>
<linearGradient id="paint32_linear_31_552" x1="16.7315" y1="19.6224" x2="16.7315" y2="21.1064" gradientUnits="userSpaceOnUse">
<stop stop-color="#FEA613" stop-opacity="0"/>
<stop offset="0.2032" stop-color="#FDA215" stop-opacity="0.203"/>
<stop offset="0.4052" stop-color="#FB961B" stop-opacity="0.405"/>
<stop offset="0.6066" stop-color="#F68225" stop-opacity="0.607"/>
<stop offset="0.8066" stop-color="#F06633" stop-opacity="0.807"/>
<stop offset="1" stop-color="#E94444"/>
</linearGradient>
<linearGradient id="paint33_linear_31_552" x1="20.7708" y1="18.1006" x2="16.5483" y2="18.1006" gradientUnits="userSpaceOnUse">
<stop stop-color="#FEA613" stop-opacity="0"/>
<stop offset="0.2032" stop-color="#FDA215" stop-opacity="0.203"/>
<stop offset="0.4052" stop-color="#FB961B" stop-opacity="0.405"/>
<stop offset="0.6066" stop-color="#F68225" stop-opacity="0.607"/>
<stop offset="0.8066" stop-color="#F06633" stop-opacity="0.807"/>
<stop offset="1" stop-color="#E94444"/>
</linearGradient>
<linearGradient id="paint34_linear_31_552" x1="10.0171" y1="16.8687" x2="18.0637" y2="24.9152" gradientUnits="userSpaceOnUse">
<stop stop-color="#FEF0AE"/>
<stop offset="1" stop-color="#FAC600"/>
</linearGradient>
<linearGradient id="paint35_linear_31_552" x1="16.7163" y1="18.8536" x2="9.38151" y2="18.8536" gradientUnits="userSpaceOnUse">
<stop stop-color="#FEA613" stop-opacity="0"/>
<stop offset="0.2032" stop-color="#FDA215" stop-opacity="0.203"/>
<stop offset="0.4052" stop-color="#FB961B" stop-opacity="0.405"/>
<stop offset="0.6066" stop-color="#F68225" stop-opacity="0.607"/>
<stop offset="0.8066" stop-color="#F06633" stop-opacity="0.807"/>
<stop offset="1" stop-color="#E94444"/>
</linearGradient>
<linearGradient id="paint36_linear_31_552" x1="12.002" y1="23.5699" x2="12.002" y2="16.235" gradientUnits="userSpaceOnUse">
<stop stop-color="#FEA613" stop-opacity="0"/>
<stop offset="0.2032" stop-color="#FDA215" stop-opacity="0.203"/>
<stop offset="0.4052" stop-color="#FB961B" stop-opacity="0.405"/>
<stop offset="0.6066" stop-color="#F68225" stop-opacity="0.607"/>
<stop offset="0.8066" stop-color="#F06633" stop-opacity="0.807"/>
<stop offset="1" stop-color="#E94444"/>
</linearGradient>
<linearGradient id="paint37_linear_31_552" x1="15.3509" y1="15.5144" x2="10.1652" y2="20.7001" gradientUnits="userSpaceOnUse">
<stop stop-color="#FEA613" stop-opacity="0"/>
<stop offset="0.2032" stop-color="#FDA215" stop-opacity="0.203"/>
<stop offset="0.4052" stop-color="#FB961B" stop-opacity="0.405"/>
<stop offset="0.6066" stop-color="#F68225" stop-opacity="0.607"/>
<stop offset="0.8066" stop-color="#F06633" stop-opacity="0.807"/>
<stop offset="1" stop-color="#E94444"/>
</linearGradient>
<linearGradient id="paint38_linear_31_552" x1="15.3225" y1="22.175" x2="10.1368" y2="16.9893" gradientUnits="userSpaceOnUse">
<stop stop-color="#FEA613" stop-opacity="0"/>
<stop offset="0.2032" stop-color="#FDA215" stop-opacity="0.203"/>
<stop offset="0.4052" stop-color="#FB961B" stop-opacity="0.405"/>
<stop offset="0.6066" stop-color="#F68225" stop-opacity="0.607"/>
<stop offset="0.8066" stop-color="#F06633" stop-opacity="0.807"/>
<stop offset="1" stop-color="#E94444"/>
</linearGradient>
<linearGradient id="paint39_linear_31_552" x1="16.3491" y1="20.6177" x2="9.56431" y2="17.8378" gradientUnits="userSpaceOnUse">
<stop stop-color="#FEA613" stop-opacity="0"/>
<stop offset="0.2032" stop-color="#FDA215" stop-opacity="0.203"/>
<stop offset="0.4052" stop-color="#FB961B" stop-opacity="0.405"/>
<stop offset="0.6066" stop-color="#F68225" stop-opacity="0.607"/>
<stop offset="0.8066" stop-color="#F06633" stop-opacity="0.807"/>
<stop offset="1" stop-color="#E94444"/>
</linearGradient>
<linearGradient id="paint40_linear_31_552" x1="10.218" y1="23.1189" x2="12.9979" y2="16.3342" gradientUnits="userSpaceOnUse">
<stop stop-color="#FEA613" stop-opacity="0"/>
<stop offset="0.2032" stop-color="#FDA215" stop-opacity="0.203"/>
<stop offset="0.4052" stop-color="#FB961B" stop-opacity="0.405"/>
<stop offset="0.6066" stop-color="#F68225" stop-opacity="0.607"/>
<stop offset="0.8066" stop-color="#F06633" stop-opacity="0.807"/>
<stop offset="1" stop-color="#E94444"/>
</linearGradient>
<linearGradient id="paint41_linear_31_552" x1="16.3359" y1="17.0266" x2="9.56578" y2="19.8578" gradientUnits="userSpaceOnUse">
<stop stop-color="#FEA613" stop-opacity="0"/>
<stop offset="0.2032" stop-color="#FDA215" stop-opacity="0.203"/>
<stop offset="0.4052" stop-color="#FB961B" stop-opacity="0.405"/>
<stop offset="0.6066" stop-color="#F68225" stop-opacity="0.607"/>
<stop offset="0.8066" stop-color="#F06633" stop-opacity="0.807"/>
<stop offset="1" stop-color="#E94444"/>
</linearGradient>
<linearGradient id="paint42_linear_31_552" x1="13.8346" y1="23.305" x2="11.0034" y2="16.535" gradientUnits="userSpaceOnUse">
<stop stop-color="#FEA613" stop-opacity="0"/>
<stop offset="0.2032" stop-color="#FDA215" stop-opacity="0.203"/>
<stop offset="0.4052" stop-color="#FB961B" stop-opacity="0.405"/>
<stop offset="0.6066" stop-color="#F68225" stop-opacity="0.607"/>
<stop offset="0.8066" stop-color="#F06633" stop-opacity="0.807"/>
<stop offset="1" stop-color="#E94444"/>
</linearGradient>
<linearGradient id="paint43_linear_31_552" x1="15.3959" y1="22.2436" x2="7.67665" y2="14.5243" gradientUnits="userSpaceOnUse">
<stop stop-color="#FEF0AE"/>
<stop offset="1" stop-color="#FAC600"/>
</linearGradient>
<linearGradient id="paint44_linear_31_552" x1="20.9235" y1="27.7711" x2="5.11741" y2="11.9651" gradientUnits="userSpaceOnUse">
<stop stop-color="#FEA613" stop-opacity="0"/>
<stop offset="0.2032" stop-color="#FDA215" stop-opacity="0.203"/>
<stop offset="0.4052" stop-color="#FB961B" stop-opacity="0.405"/>
<stop offset="0.6066" stop-color="#F68225" stop-opacity="0.607"/>
<stop offset="0.8066" stop-color="#F06633" stop-opacity="0.807"/>
<stop offset="1" stop-color="#E94444"/>
</linearGradient>
<linearGradient id="paint45_linear_31_552" x1="5.17514" y1="11.9513" x2="14.8937" y2="21.6699" gradientUnits="userSpaceOnUse">
<stop stop-color="#FEA613" stop-opacity="0"/>
<stop offset="0.2032" stop-color="#FDA215" stop-opacity="0.203"/>
<stop offset="0.4052" stop-color="#FB961B" stop-opacity="0.405"/>
<stop offset="0.6066" stop-color="#F68225" stop-opacity="0.607"/>
<stop offset="0.8066" stop-color="#F06633" stop-opacity="0.807"/>
<stop offset="1" stop-color="#E94444"/>
</linearGradient>
<linearGradient id="paint46_linear_31_552" x1="12.0048" y1="21.2936" x2="12.0048" y2="24.4724" gradientUnits="userSpaceOnUse">
<stop stop-color="#FEA613" stop-opacity="0"/>
<stop offset="0.2032" stop-color="#FDA215" stop-opacity="0.203"/>
<stop offset="0.4052" stop-color="#FB961B" stop-opacity="0.405"/>
<stop offset="0.6066" stop-color="#F68225" stop-opacity="0.607"/>
<stop offset="0.8066" stop-color="#F06633" stop-opacity="0.807"/>
<stop offset="1" stop-color="#E94444"/>
</linearGradient>
<linearGradient id="paint47_linear_31_552" x1="4.04741" y1="2.66446" x2="7.92379" y2="6.54083" gradientUnits="userSpaceOnUse">
<stop stop-color="#5B5555"/>
<stop offset="1" stop-color="#433F43"/>
</linearGradient>
<linearGradient id="paint48_linear_31_552" x1="6.286" y1="5.88152" x2="6.286" y2="8.61461" gradientUnits="userSpaceOnUse">
<stop stop-color="#554E56" stop-opacity="0"/>
<stop offset="0.269" stop-color="#524B52" stop-opacity="0.269"/>
<stop offset="0.521" stop-color="#464147" stop-opacity="0.521"/>
<stop offset="0.7654" stop-color="#343034" stop-opacity="0.765"/>
<stop offset="1" stop-color="#1A1A1A"/>
</linearGradient>
<linearGradient id="paint49_linear_31_552" x1="7.38695" y1="5.27092" x2="9.9046" y2="6.30621" gradientUnits="userSpaceOnUse">
<stop stop-color="#554E56" stop-opacity="0"/>
<stop offset="0.269" stop-color="#524B52" stop-opacity="0.269"/>
<stop offset="0.521" stop-color="#464147" stop-opacity="0.521"/>
<stop offset="0.7654" stop-color="#343034" stop-opacity="0.765"/>
<stop offset="1" stop-color="#1A1A1A"/>
</linearGradient>
<linearGradient id="paint50_linear_31_552" x1="4.19171" y1="3.21322" x2="7.45505" y2="6.47656" gradientUnits="userSpaceOnUse">
<stop stop-color="#FEF6AD"/>
<stop offset="1" stop-color="#BBEC6C"/>
</linearGradient>
<linearGradient id="paint51_linear_31_552" x1="4.47475" y1="2.93272" x2="7.73809" y2="6.19611" gradientUnits="userSpaceOnUse">
<stop stop-color="#FEF6AD"/>
<stop offset="1" stop-color="#BBEC6C"/>
</linearGradient>
<linearGradient id="paint52_linear_31_552" x1="4.74585" y1="2.65799" x2="8.00919" y2="5.92133" gradientUnits="userSpaceOnUse">
<stop stop-color="#FEF6AD"/>
<stop offset="1" stop-color="#BBEC6C"/>
</linearGradient>
<clipPath id="clip0_31_552">
<rect width="24" height="24" fill="white"/>
</clipPath>
</defs>
</svg>
