<svg width="51" height="48" viewBox="0 0 51 48" fill="none" xmlns="http://www.w3.org/2000/svg">
<path d="M8.2247 24.1706C9.77399 28.2918 14.4179 30.4184 16.4488 32.4885C18.4547 34.533 17.5769 33.4361 17.5769 33.4361L17.8945 33.7025C17.8945 33.7025 18.967 35.1319 17.6467 30.4313C16.981 28.0618 16.3649 26.2812 15.6448 23.9278C14.6552 20.6948 13.6791 17.2452 15.4543 12.363C15.3827 12.5736 13.5967 18.0622 18.4526 28.7659C19.3193 30.6766 19.5765 32.4377 19.2109 33.8965C20.8791 32.6126 22.434 30.8966 23.4546 29.1731C24.4752 27.45 25.2034 25.5112 25.2546 23.5091C25.3151 21.1311 24.425 18.8276 23.3194 16.721C22.214 14.6145 20.8785 12.6253 19.9326 10.4423C18.9868 8.25939 18.2918 4.99046 20.9575 2.37868C17.5369 4.8079 12.2707 8.62371 10.0214 12.1649C7.77203 15.7064 6.74833 20.2431 8.2247 24.1706Z" fill="#81D2FF"/>
<path d="M18.5217 39.1253L18.8238 39.2754C18.8238 39.2754 20.9043 36.9559 23.0792 37.7915C25.2812 38.6376 28.3931 41.3862 31.9489 41.238C35.3374 41.0966 38.3453 38.9276 40.2118 36.1687C42.0781 33.4098 43.7107 27.9785 43.7025 25.5254C42.876 27.5185 40.1164 28.3603 38.1913 28.3468C36.2662 28.3335 34.3547 27.9733 32.4331 27.8186C30.5113 27.6639 28.5157 27.7289 26.7809 28.5161C25.3205 29.1791 24.1316 30.3194 23.1989 31.6076C22.2663 32.8957 21.5162 34.5743 21.1227 36.2011C22.078 35.4772 23.4629 35.1162 25.1607 35.1564C34.6724 35.3826 38.1296 32.3561 38.2611 32.2379C35.248 35.0671 32.378 35.4269 29.6634 35.7091C27.6876 35.9147 26.1689 36.0179 24.1993 36.2688C20.2921 36.7663 18.5217 39.1253 18.5217 39.1253Z" fill="#81D2FF"/>
</svg>
