<svg width="24" height="25" viewBox="0 0 24 25" fill="none" xmlns="http://www.w3.org/2000/svg">
<g clip-path="url(#clip0_201_23619)">
<path d="M12 0.6875C6.93398 0.6875 2.8125 4.80898 2.8125 9.875C2.8125 12.3359 4.30345 15.4962 7.24392 19.2677C8.59109 20.9912 10.05 22.6243 11.6112 24.1565C11.7159 24.2566 11.8552 24.3125 12 24.3125C12.1448 24.3125 12.2841 24.2566 12.3888 24.1565C13.95 22.6243 15.4089 20.9912 16.7561 19.2677C19.6965 15.4962 21.1875 12.3359 21.1875 9.875C21.1875 4.80898 17.066 0.6875 12 0.6875ZM12 16.4375C8.38125 16.4375 5.4375 13.4937 5.4375 9.875C5.4375 6.25625 8.38125 3.3125 12 3.3125C15.6187 3.3125 18.5625 6.25625 18.5625 9.875C18.5625 13.4937 15.6187 16.4375 12 16.4375Z" fill="#05C467"/>
<path d="M16.5034 9.08378L12.3784 5.33378C12.2749 5.23965 12.14 5.1875 12 5.1875C11.8601 5.1875 11.7252 5.23965 11.6217 5.33378L7.49665 9.08378C7.40055 9.17117 7.33764 9.28911 7.31859 9.4176C7.29954 9.54609 7.32552 9.67722 7.39212 9.78873C7.44467 9.87364 7.51832 9.94348 7.60589 9.99145C7.69347 10.0394 7.79197 10.0639 7.89181 10.0625H8.43753V13.625C8.43753 13.7742 8.49679 13.9172 8.60228 14.0227C8.70777 14.1282 8.85085 14.1875 9.00003 14.1875H10.3125C10.4617 14.1875 10.6048 14.1282 10.7103 14.0227C10.8158 13.9172 10.875 13.7742 10.875 13.625V11.5625C10.875 11.4133 10.9343 11.2702 11.0398 11.1647C11.1453 11.0592 11.2883 11 11.4375 11H12.5625C12.7117 11 12.8548 11.0592 12.9603 11.1647C13.0658 11.2702 13.125 11.4133 13.125 11.5625V13.625C13.125 13.7742 13.1843 13.9172 13.2898 14.0227C13.3953 14.1282 13.5383 14.1875 13.6875 14.1875H15C15.1492 14.1875 15.2923 14.1282 15.3978 14.0227C15.5033 13.9172 15.5625 13.7742 15.5625 13.625V10.0625H16.1082C16.2081 10.0639 16.3066 10.0394 16.3942 9.99145C16.4817 9.94348 16.5554 9.87364 16.6079 9.78873C16.6745 9.67722 16.7005 9.54609 16.6815 9.4176C16.6624 9.28911 16.5995 9.17117 16.5034 9.08378Z" fill="#05C467"/>
</g>
<defs>
<clipPath id="clip0_201_23619">
<rect width="24" height="24" fill="white" transform="translate(0 0.5)"/>
</clipPath>
</defs>
</svg>
