<svg width="16" height="12" viewBox="0 0 16 12" fill="none" xmlns="http://www.w3.org/2000/svg">
<path d="M14.0316 0.943359H1.71565C0.992982 0.943359 0.402344 1.5314 0.402344 2.25667V10.1365C0.402344 10.862 0.993362 11.4498 1.71565 11.4498H14.0316C14.7542 11.4498 15.3449 10.8618 15.3449 10.1365V2.25667C15.3449 1.53123 14.7539 0.943359 14.0316 0.943359ZM13.8299 1.8189C13.4053 2.24491 8.41776 7.2487 8.21285 7.45427C8.04171 7.62594 7.70559 7.62606 7.53437 7.45427L1.91732 1.8189H13.8299ZM1.27788 9.97556V2.41762L5.0446 6.19659L1.27788 9.97556ZM1.91732 10.5743L5.6627 6.81671L6.91428 8.07238C7.42717 8.58693 8.32025 8.58673 8.83297 8.07238L10.0845 6.81674L13.8299 10.5743H1.91732ZM14.4693 9.97556L10.7026 6.19659L14.4693 2.41762V9.97556Z" fill="white"/>
</svg>
