<svg width="24" height="24" viewBox="0 0 24 24" fill="none" xmlns="http://www.w3.org/2000/svg">
<path fill-rule="evenodd" clip-rule="evenodd" d="M10.7451 0.65625C10.7451 0.500906 10.871 0.375 11.0264 0.375C11.1817 0.375 11.3076 0.500906 11.3076 0.65625V1.32131C11.3076 1.47666 11.1817 1.60256 11.0264 1.60256C10.871 1.60256 10.7451 1.47666 10.7451 1.32131V0.65625ZM8.90962 1.05755C8.83926 0.919828 8.89387 0.751078 9.03159 0.680719C9.16931 0.610359 9.33806 0.664969 9.40842 0.802688L9.71147 1.39472C9.78183 1.53244 9.72722 1.70119 9.5895 1.77155C9.45178 1.84191 9.28303 1.7873 9.21267 1.64958L8.90962 1.05755ZM12.6443 0.802641C12.7147 0.664922 12.8834 0.610313 13.0211 0.680672C13.1588 0.751031 13.2135 0.919781 13.1431 1.0575L12.84 1.64953C12.7697 1.78725 12.6009 1.84186 12.4632 1.7715C12.3255 1.70114 12.2709 1.53239 12.3412 1.39467L12.6443 0.802641Z" fill="#43F043"/>
<path fill-rule="evenodd" clip-rule="evenodd" d="M10.6328 14.0356H1.49219V12.2683C1.49219 12.095 1.60234 11.9481 1.76875 11.8996L2.66842 11.6374L3.65477 10.2816C3.71758 10.1952 3.8095 10.1484 3.91628 10.1484H7.22102C7.32522 10.1484 7.41489 10.1872 7.48619 10.2632L8.77689 11.6374L10.3057 11.9252C10.4972 11.9612 10.6328 12.1247 10.6328 12.3195L10.6328 14.0356Z" fill="#2A93FC"/>
<path fill-rule="evenodd" clip-rule="evenodd" d="M1.49219 14.0356V12.2683C1.49219 12.095 1.60234 11.9481 1.76875 11.8996L2.66842 11.6374L3.65481 10.2816C3.71763 10.1952 3.80955 10.1484 3.91633 10.1484H6.72564C6.82877 10.149 6.91764 10.1878 6.98837 10.2632L8.27908 11.6374L9.80791 11.9252C9.99939 11.9612 10.135 12.1247 10.135 12.3195V14.0356H1.49219Z" fill="#4EB1FC"/>
<path fill-rule="evenodd" clip-rule="evenodd" d="M8.77697 11.6378H5.90414V10.5117H7.71933L8.77697 11.6378ZM5.54128 11.6378H3.11719L3.93642 10.5117H5.54128V11.6378Z" fill="#CFE8FF"/>
<path d="M8.47428 14.8743C8.93685 14.8743 9.31184 14.4994 9.31184 14.0368C9.31184 13.5742 8.93685 13.1992 8.47428 13.1992C8.01171 13.1992 7.63672 13.5742 7.63672 14.0368C7.63672 14.4994 8.01171 14.8743 8.47428 14.8743Z" fill="#3D4A75"/>
<path d="M3.47819 14.8724C3.94076 14.8724 4.31575 14.4974 4.31575 14.0348C4.31575 13.5723 3.94076 13.1973 3.47819 13.1973C3.01561 13.1973 2.64062 13.5723 2.64062 14.0348C2.64062 14.4974 3.01561 14.8724 3.47819 14.8724Z" fill="#3D4A75"/>
<path fill-rule="evenodd" clip-rule="evenodd" d="M10.6318 13.0619H10.0329C9.86589 13.0619 9.73047 12.9264 9.73047 12.7595C9.73047 12.5925 9.86589 12.457 10.0329 12.457H10.6318V13.0619Z" fill="#CFE8FF"/>
<path fill-rule="evenodd" clip-rule="evenodd" d="M1.97289 12.6172C2.13991 12.6172 2.27533 12.7526 2.27533 12.9196C2.27533 13.0865 2.13991 13.222 1.97289 13.222H1.49219V12.6172H1.97289Z" fill="#CFE8FF"/>
<path d="M4.38281 10.1484H6.58477V10.5113H4.38281V10.1484Z" fill="#4EB1FC"/>
<path d="M8.53037 14.41C8.7369 14.3765 8.87719 14.1819 8.84371 13.9754C8.81023 13.7688 8.61566 13.6286 8.40912 13.662C8.20259 13.6955 8.0623 13.8901 8.09578 14.0966C8.12926 14.3032 8.32383 14.4434 8.53037 14.41Z" fill="#5D689E"/>
<path fill-rule="evenodd" clip-rule="evenodd" d="M3.48045 14.414C3.68914 14.414 3.85934 14.2438 3.85934 14.0351C3.85934 13.8265 3.68914 13.6562 3.48045 13.6562C3.27177 13.6562 3.10156 13.8265 3.10156 14.0351C3.10156 14.2438 3.27177 14.414 3.48045 14.414Z" fill="#5D689E"/>
<path fill-rule="evenodd" clip-rule="evenodd" d="M8.77816 11.6378H8.2803L7.22266 10.5117H7.72056L8.77816 11.6378Z" fill="#B6DBFF"/>
<path fill-rule="evenodd" clip-rule="evenodd" d="M7.13672 4.45914L11.0273 9.63541L14.918 4.45914L13.6211 2.21289H11.0273H8.43361L7.13672 4.45914Z" fill="#43F043"/>
<path fill-rule="evenodd" clip-rule="evenodd" d="M12.3242 4.45914L13.6211 2.21289L14.918 4.45914H12.3242Z" fill="#43F043"/>
<path fill-rule="evenodd" clip-rule="evenodd" d="M13.2578 2.84134L13.6206 2.21289L14.9175 4.45914H14.1918L13.2578 2.84134Z" fill="#2DD62D"/>
<path fill-rule="evenodd" clip-rule="evenodd" d="M7.13672 4.45914L8.43361 2.21289L9.7305 4.45914H7.13672Z" fill="#43F043"/>
<path fill-rule="evenodd" clip-rule="evenodd" d="M8.43359 2.21289L9.73044 4.45914L11.0273 2.21289H8.43359Z" fill="#96FF96"/>
<path fill-rule="evenodd" clip-rule="evenodd" d="M8.43359 2.21289L8.79641 2.84134H10.6645L11.0273 2.21289H8.43359Z" fill="#43F043"/>
<path fill-rule="evenodd" clip-rule="evenodd" d="M9.73047 4.45914L11.0273 2.21289L12.3242 4.45914H9.73047Z" fill="#2DD62D"/>
<path fill-rule="evenodd" clip-rule="evenodd" d="M11.0273 2.21289L12.3242 4.45914L13.6211 2.21289H11.0273Z" fill="#96FF96"/>
<path fill-rule="evenodd" clip-rule="evenodd" d="M11.0273 2.21289L11.3902 2.84134H13.2583L13.6211 2.21289H11.0273Z" fill="#43F043"/>
<path fill-rule="evenodd" clip-rule="evenodd" d="M12.3242 4.45898H14.918L11.0273 9.63525L12.3242 4.45898Z" fill="#96FF96"/>
<path fill-rule="evenodd" clip-rule="evenodd" d="M9.73045 4.45898H7.13672L11.0273 9.63525L9.73045 4.45898Z" fill="#96FF96"/>
<path fill-rule="evenodd" clip-rule="evenodd" d="M9.73047 4.45898H12.3242L11.0273 9.63525L9.73047 4.45898Z" fill="#43F043"/>
<path fill-rule="evenodd" clip-rule="evenodd" d="M11.0273 9.63525L14.1923 4.45898H14.918L11.0273 9.63525Z" fill="#43F043"/>
<path fill-rule="evenodd" clip-rule="evenodd" d="M8.79642 2.84134L8.43361 2.21289L7.13672 4.45914H7.86239L8.79642 2.84134Z" fill="#2DD62D"/>
<path fill-rule="evenodd" clip-rule="evenodd" d="M11.0273 9.63525L7.86239 4.45898H7.13672L11.0273 9.63525Z" fill="#43F043"/>
<path fill-rule="evenodd" clip-rule="evenodd" d="M21.0427 10.9495V16.2948H13.9027V10.9495H12.6848C12.5686 10.9495 12.4705 10.8734 12.4417 10.7609C12.4129 10.6484 12.4623 10.5344 12.5642 10.4786L17.1574 7.96202C17.3596 7.8512 17.5857 7.8512 17.7879 7.96202L22.3811 10.4786C22.4829 10.5344 22.5323 10.6484 22.5036 10.7609C22.4748 10.8734 22.3767 10.9495 22.2605 10.9495H21.0427H21.0427Z" fill="#D19458"/>
<path fill-rule="evenodd" clip-rule="evenodd" d="M20.4978 16.2956H13.9027V10.9503H12.6848C12.5686 10.9503 12.4705 10.8742 12.4417 10.7617C12.4129 10.6492 12.4624 10.5352 12.5642 10.4794L17.0753 8.00781L21.5864 10.4794C21.6883 10.5352 21.7377 10.6491 21.7089 10.7617C21.6801 10.8742 21.582 10.9503 21.4658 10.9503H20.4977V16.2956H20.4978Z" fill="#E6B17C"/>
<path d="M14.832 12.2305H16.6134V15.3167H14.832V12.2305Z" fill="#F3F3FF"/>
<path fill-rule="evenodd" clip-rule="evenodd" d="M17.2252 10.2726C17.5901 10.2726 17.8878 9.97491 17.8878 9.60994C17.8878 9.24497 17.5901 8.94727 17.2252 8.94727C16.8602 8.94727 16.5625 9.24497 16.5625 9.60994C16.5625 9.97491 16.8602 10.2726 17.2252 10.2726Z" fill="#D19458"/>
<path fill-rule="evenodd" clip-rule="evenodd" d="M17.4726 10.2577C17.8298 10.2577 18.121 9.96645 18.121 9.60931C18.121 9.25217 17.8298 8.96094 17.4726 8.96094C17.1155 8.96094 16.8242 9.25222 16.8242 9.60931C16.8242 9.96641 17.1155 10.2577 17.4726 10.2577Z" fill="#F3F3FF"/>
<path d="M21.9427 15.3164H13.0052C12.8621 15.3164 12.7461 15.4324 12.7461 15.5755V16.037C12.7461 16.1801 12.8621 16.296 13.0052 16.296H21.9427C22.0858 16.296 22.2018 16.1801 22.2018 16.037V15.5755C22.2018 15.4324 22.0858 15.3164 21.9427 15.3164Z" fill="#5D689E"/>
<path fill-rule="evenodd" clip-rule="evenodd" d="M21.5718 15.9657V15.3164H21.9427C22.0852 15.3164 22.2018 15.433 22.2018 15.5755V16.0369C22.2018 16.1794 22.0852 16.296 21.9427 16.296H13.0052C12.8627 16.296 12.7461 16.1794 12.7461 16.0369V15.9657H21.5718V15.9657Z" fill="#3D4A75"/>
<path d="M17.8711 11.3984H20.1116V12.4001H17.8711V11.3984Z" fill="#F3F3FF"/>
<path d="M17.6367 11.3984H17.8704V12.4001H17.6367V11.3984Z" fill="#D19458"/>
<path d="M14.4727 12.2305H14.8314V15.3167H14.4727V12.2305Z" fill="#D19458"/>
<path fill-rule="evenodd" clip-rule="evenodd" d="M14.3359 12.5117C14.1806 12.5117 14.0547 12.3858 14.0547 12.2305C14.0547 12.0751 14.1806 11.9492 14.3359 11.9492H16.8715C17.0268 11.9492 17.1528 12.0751 17.1528 12.2305C17.1528 12.3858 17.0268 12.5117 16.8715 12.5117H14.3359Z" fill="#D19458"/>
<path fill-rule="evenodd" clip-rule="evenodd" d="M14.6042 20.5649C15 19.8989 14.4986 19.0552 13.7244 19.0845C12.501 19.0845 12.181 19.1476 11.0474 18.4723L9.81403 17.7375C9.06033 17.2885 8.37061 17.1016 7.49705 17.1824L4.10156 17.4964V22.5139C7.37128 22.5139 10.9498 24.164 14.4149 23.4462C15.6324 23.194 19.5946 20.9273 20.3313 19.959C20.997 19.0837 20.1375 18.2594 19.122 18.8457C17.7545 19.6352 14.7217 21.0086 13.4501 21.1337C13.9815 21.0681 14.4084 20.8944 14.6042 20.5649H14.6042Z" fill="#F2C496"/>
<path fill-rule="evenodd" clip-rule="evenodd" d="M14.6042 20.5649C15 19.8989 14.4986 19.0552 13.7244 19.0845C12.501 19.0845 12.181 19.1476 11.0474 18.4723L9.81403 17.7375C9.06033 17.2885 8.37061 17.1016 7.49705 17.1824L4.10156 17.4964V21.6627C7.34213 21.7012 10.9913 23.3032 14.4149 22.5941C15.6324 22.3419 19.5946 20.0752 20.3313 19.1069C20.3725 19.0526 20.4079 18.9986 20.4377 18.9451C20.2059 18.6306 19.6883 18.5188 19.122 18.8457C17.7545 19.6352 14.7217 21.0086 13.4501 21.1337C13.9815 21.0681 14.4084 20.8944 14.6042 20.5649H14.6042Z" fill="#FDD7AD"/>
<path fill-rule="evenodd" clip-rule="evenodd" d="M9.56221 19.6801C10.0264 19.956 11.0421 20.2544 12.0331 20.3593C12.5319 20.4121 13.0151 20.4188 13.3923 20.35C14.6631 20.1182 14.6038 19.5644 14.2461 19.2109C14.6943 19.4675 14.9016 20.0663 14.6049 20.5653C14.4439 20.8363 14.1265 21.0019 13.7232 21.0887C13.6413 21.104 13.551 21.1191 13.4508 21.1342C13.002 21.206 12.4665 21.2069 11.9519 21.1524C10.8519 21.036 9.7003 20.6903 9.15627 20.367C8.62438 20.0508 9.02732 19.362 9.56221 19.6801V19.6801Z" fill="#F2C496"/>
<path fill-rule="evenodd" clip-rule="evenodd" d="M1.48828 16.6602H3.55017C3.95494 16.6602 4.28611 16.9913 4.28611 17.396V22.6134C4.28611 23.0182 3.95494 23.3494 3.55017 23.3494H1.48828V16.6602Z" fill="#2A93FC"/>
<path fill-rule="evenodd" clip-rule="evenodd" d="M1.48828 16.6602H3.55017C3.62311 16.7743 3.66548 16.9097 3.66548 17.0544V22.2003C3.66548 22.5148 3.40898 22.7713 3.0945 22.7713H1.48828V16.6602Z" fill="#4EB1FC"/>
<path fill-rule="evenodd" clip-rule="evenodd" d="M2.887 22.4322C3.19052 22.4322 3.43806 22.1847 3.43806 21.8811C3.43806 21.5776 3.19052 21.3301 2.887 21.3301C2.58348 21.3301 2.33594 21.5776 2.33594 21.8811C2.33594 22.1847 2.58348 22.4322 2.887 22.4322Z" fill="#0062D9"/>
</svg>
