<svg width="26" height="27" viewBox="0 0 26 27" fill="none" xmlns="http://www.w3.org/2000/svg">
<path fill-rule="evenodd" clip-rule="evenodd" d="M3.25 6.9388C3.25 6.3405 3.73503 5.85547 4.33333 5.85547H21.6667C22.265 5.85547 22.75 6.3405 22.75 6.9388C22.75 7.53711 22.265 8.02214 21.6667 8.02214H4.33333C3.73503 8.02214 3.25 7.53711 3.25 6.9388ZM3.25 13.4388C3.25 12.8405 3.73503 12.3555 4.33333 12.3555H15.1667C15.765 12.3555 16.25 12.8405 16.25 13.4388C16.25 14.0371 15.765 14.5221 15.1667 14.5221H4.33333C3.73503 14.5221 3.25 14.0371 3.25 13.4388ZM3.25 19.9388C3.25 19.3405 3.73503 18.8555 4.33333 18.8555H9.75C10.3483 18.8555 10.8333 19.3405 10.8333 19.9388C10.8333 20.5371 10.3483 21.0221 9.75 21.0221H4.33333C3.73503 21.0221 3.25 20.5371 3.25 19.9388Z" fill="black"/>
</svg>
