<svg width="24" height="24" viewBox="0 0 24 24" fill="none" xmlns="http://www.w3.org/2000/svg">
<g clip-path="url(#clip0_37_2165)">
<path fill-rule="evenodd" clip-rule="evenodd" d="M14.254 5.40648V13.9342H2.8632V5.40648H0.920234C0.734937 5.40648 0.578421 5.28498 0.532484 5.10555C0.486546 4.92606 0.56539 4.74433 0.727906 4.65531L8.05569 0.640422C8.37833 0.463609 8.73894 0.463609 9.06158 0.640422L16.3893 4.65527C16.5518 4.74428 16.6307 4.92602 16.5847 5.1055C16.5388 5.28498 16.3823 5.40644 16.197 5.40644H14.2541L14.254 5.40648Z" fill="#AEAED6"/>
<path fill-rule="evenodd" clip-rule="evenodd" d="M13.3847 13.9349H2.86315V5.40723H0.920183C0.734933 5.40723 0.578417 5.28573 0.53248 5.1063C0.486542 4.92681 0.565433 4.74503 0.727902 4.65606L7.92471 0.712891L15.1215 4.65602C15.284 4.74503 15.3629 4.92677 15.3169 5.10625C15.271 5.28573 15.1144 5.40719 14.9292 5.40719H13.3847V13.9349V13.9349Z" fill="#D1D1F0"/>
<path d="M4.34766 7.44727H7.18955V12.3708H4.34766V7.44727Z" fill="#F3F3FF"/>
<path d="M9.19531 5.40625H12.7697V7.00417H9.19531V5.40625Z" fill="#F3F3FF"/>
<path d="M10.6992 5.28711H11.2617V7.12189H10.6992V5.28711Z" fill="#D1D1F0"/>
<path fill-rule="evenodd" clip-rule="evenodd" d="M3.64062 7.72852C3.48528 7.72852 3.35938 7.60261 3.35938 7.44727C3.35938 7.29192 3.48528 7.16602 3.64062 7.16602H7.60222C7.75756 7.16602 7.88347 7.29192 7.88347 7.44727C7.88347 7.60261 7.75756 7.72852 7.60222 7.72852H3.64062Z" fill="#AEAED6"/>
<path d="M8.16655 4.32333C8.75041 4.32333 9.22372 3.85002 9.22372 3.26616C9.22372 2.6823 8.75041 2.20898 8.16655 2.20898C7.58269 2.20898 7.10938 2.6823 7.10938 3.26616C7.10938 3.85002 7.58269 4.32333 8.16655 4.32333Z" fill="#AEAED6"/>
<path d="M9.28769 3.99889C9.69159 3.595 9.69159 2.94016 9.28769 2.53626C8.8838 2.13237 8.22896 2.13237 7.82506 2.53626C7.42117 2.94016 7.42117 3.595 7.82506 3.99889C8.22896 4.40279 8.8838 4.40279 9.28769 3.99889Z" fill="#F3F3FF"/>
<path d="M1.42897 12.3711H15.6874C15.9155 12.3711 16.1008 12.5563 16.1008 12.7845V13.5206C16.1008 13.7487 15.9156 13.934 15.6875 13.934H1.42897C1.20083 13.934 1.01562 13.7487 1.01562 13.5206V12.7844C1.01562 12.5563 1.20083 12.3711 1.42897 12.3711Z" fill="#909CD1"/>
<path fill-rule="evenodd" clip-rule="evenodd" d="M15.0957 13.407V12.3711H15.6875C15.9148 12.3711 16.1008 12.5571 16.1008 12.7844V13.5206C16.1008 13.748 15.9148 13.934 15.6875 13.934H1.42897C1.20163 13.934 1.01562 13.748 1.01562 13.5206V13.407H15.0957Z" fill="#7986BF"/>
<path d="M8.82031 5.40625H9.1932V7.00417H8.82031V5.40625Z" fill="#AEAED6"/>
<path d="M3.77734 7.44727H4.34973V12.3708H3.77734V7.44727Z" fill="#AEAED6"/>
<path fill-rule="evenodd" clip-rule="evenodd" d="M8.66094 22.8009L9.31044 23.1703C10.1488 23.6543 10.6555 22.6251 10.0006 22.2437L10.3652 22.4543C10.6565 22.6224 11.0324 22.5217 11.2006 22.2305C11.3682 21.9402 11.2681 21.5647 10.9787 21.3962L11.1737 21.5089C11.4838 21.6879 11.8842 21.5807 12.0632 21.2705C12.2415 20.9617 12.1352 20.5621 11.8274 20.3826L11.8281 20.383L12.0219 20.4949C12.332 20.6739 12.7323 20.5667 12.9113 20.2565C13.0003 20.1023 13.0179 19.9235 12.9754 19.7628C12.9247 19.6316 12.8802 19.5162 12.673 19.3671L10.7165 18.2375C9.68108 17.4067 9.12083 16.929 8.34739 16.1435C7.00358 15.1776 6.03636 16.3791 4.25854 15.3792L2.99394 14.668C1.86543 15.5874 1.22511 16.7382 1.62196 18.6147L3.88035 19.7789L4.46258 20.4055L8.66099 22.801L8.66094 22.8009Z" fill="#E6B17C"/>
<path fill-rule="evenodd" clip-rule="evenodd" d="M12.8007 20.3985C12.843 20.3577 12.8803 20.3104 12.911 20.2571C13 20.1028 13.0176 19.924 12.9751 19.7632C12.9244 19.632 12.8799 19.5167 12.6727 19.3676L10.7161 18.238C9.68077 17.4072 9.12052 16.9295 8.34708 16.1439C8.17927 16.0233 8.01736 15.9365 7.85897 15.875L6.14954 16.9408C5.53721 17.3225 5.55225 18.1091 6.08377 18.5492C6.39314 18.8053 6.75249 18.9538 7.15786 18.938C7.96772 18.9065 8.6063 18.2341 9.34083 18.2297C9.75994 18.2272 10.1228 18.4571 10.4729 18.6592L12.407 19.7759C12.5725 19.8816 12.9017 20.0695 12.8007 20.3985Z" fill="#D19458"/>
<path fill-rule="evenodd" clip-rule="evenodd" d="M10.2788 22.8782C10.3366 22.6561 10.261 22.3987 9.9981 22.2456L10.3627 22.4562L10.3634 22.4566L9.78196 22.1209C9.68488 22.0648 9.55972 22.0984 9.50366 22.1955C9.44769 22.2924 9.48125 22.4178 9.57824 22.4738L10.2788 22.8782Z" fill="#D19458"/>
<path fill-rule="evenodd" clip-rule="evenodd" d="M11.272 22.0357C11.3169 21.7892 11.2064 21.5285 10.9787 21.3959L11.1738 21.5085H11.1739L10.2859 20.9959C10.1887 20.9398 10.0636 20.9734 10.0076 21.0705C9.9516 21.1675 9.98516 21.2928 10.0821 21.3488L11.272 22.0357V22.0357Z" fill="#D19458"/>
<path fill-rule="evenodd" clip-rule="evenodd" d="M12.1443 21.0361C12.1791 20.7824 12.0618 20.5196 11.8286 20.3833L10.9851 19.8963C10.888 19.8402 10.7628 19.8738 10.7068 19.9709C10.6508 20.0678 10.6844 20.1932 10.7814 20.2492L12.1443 21.0361Z" fill="#D19458"/>
<path fill-rule="evenodd" clip-rule="evenodd" d="M4.35138 20.5954C4.17434 20.902 4.28037 21.2978 4.58707 21.4749C4.89331 21.6517 5.28977 21.5455 5.46659 21.2392L5.92929 20.4377C6.10638 20.1311 6.00031 19.7353 5.6936 19.5582C5.38732 19.3814 4.9909 19.4876 4.81409 19.7939L4.35138 20.5954Z" fill="#FDD7AD"/>
<path fill-rule="evenodd" clip-rule="evenodd" d="M4.71094 21.5282C4.99411 21.6214 5.31623 21.5065 5.47078 21.239L5.93353 20.4375C6.08827 20.1695 6.02677 19.8334 5.80416 19.6348L4.71094 21.5282Z" fill="#F2C496"/>
<path fill-rule="evenodd" clip-rule="evenodd" d="M7.69904 22.5251C7.52199 22.8317 7.62802 23.2275 7.93473 23.4046C8.24096 23.5814 8.63743 23.4752 8.81424 23.1689L9.27694 22.3674C9.45399 22.0608 9.34796 21.665 9.04126 21.4879C8.73498 21.3111 8.33855 21.4173 8.16174 21.7236L7.69904 22.5251Z" fill="#FDD7AD"/>
<path fill-rule="evenodd" clip-rule="evenodd" d="M8.05473 23.4598C8.33791 23.5531 8.66008 23.4382 8.81458 23.1706L9.27728 22.3691C9.43202 22.1011 9.37052 21.7651 9.14786 21.5664L8.05473 23.4598Z" fill="#F2C496"/>
<path fill-rule="evenodd" clip-rule="evenodd" d="M6.4256 22.1531C6.24856 22.4597 6.35459 22.8556 6.66129 23.0326C6.96752 23.2094 7.36399 23.1032 7.54081 22.7969L8.15974 21.7248C8.33679 21.4182 8.23076 21.0224 7.92405 20.8453C7.61782 20.6685 7.22135 20.7747 7.04454 21.081L6.4256 22.153V22.1531Z" fill="#FDD7AD"/>
<path fill-rule="evenodd" clip-rule="evenodd" d="M6.78125 23.0859C7.06442 23.1791 7.38659 23.0642 7.54109 22.7966L8.16003 21.7246C8.31476 21.4566 8.25327 21.1205 8.03061 20.9219L6.78125 23.0859V23.0859Z" fill="#F2C496"/>
<path fill-rule="evenodd" clip-rule="evenodd" d="M5.17951 21.7377C5.00246 22.0444 5.10849 22.4402 5.4152 22.6172C5.72143 22.794 6.1179 22.6878 6.29471 22.3815L7.0448 21.0823C7.22185 20.7756 7.11582 20.3798 6.80916 20.2027C6.50293 20.0259 6.10646 20.1322 5.92965 20.4384L5.17951 21.7377Z" fill="#FDD7AD"/>
<path fill-rule="evenodd" clip-rule="evenodd" d="M5.53516 22.6685C5.81781 22.7616 6.13933 22.6473 6.29416 22.3808L7.04514 21.08C7.19987 20.812 7.13838 20.476 6.91572 20.2773L5.53516 22.6686V22.6685Z" fill="#F2C496"/>
<path fill-rule="evenodd" clip-rule="evenodd" d="M15.4585 18.6148L12.9772 19.7628C12.9266 19.6316 12.8821 19.5162 12.6749 19.3671L10.7183 18.2375C10.2908 17.9907 9.87852 17.7396 9.34021 17.7429C8.16918 17.7498 7.38252 18.9908 6.39627 18.1741C6.14798 17.9684 6.05493 17.574 6.40917 17.3531L8.50129 16.0487C9.19921 15.6136 9.95048 15.4062 10.7131 15.6575C11.3671 15.8731 12.0135 15.821 12.6153 15.4863L14.0866 14.668C15.3547 15.5444 15.9096 17.1408 15.4586 18.6148H15.4585Z" fill="#FDD7AD"/>
<path fill-rule="evenodd" clip-rule="evenodd" d="M15.8709 18.8059L15.2493 19.0699C15.1708 19.1033 15.0879 19.0959 15.0166 19.0492C14.9452 19.0024 14.9053 18.9295 14.9044 18.8442C14.8895 17.3678 14.2853 16.1573 13.2134 15.2549C13.1491 15.2007 13.1182 15.1251 13.1263 15.0413C13.1343 14.9577 13.1791 14.8893 13.2526 14.8485L14.0454 14.4075C14.1794 14.3331 14.3362 14.3456 14.4565 14.4406C15.7103 15.4295 16.3726 17.155 16.09 18.538C16.0647 18.6616 15.9871 18.7566 15.8709 18.8059V18.8059Z" fill="#2A92FA"/>
<path fill-rule="evenodd" clip-rule="evenodd" d="M15.8709 18.8059L15.4427 18.9878C15.4402 18.9863 15.4377 18.9847 15.4352 18.9831C15.3595 18.9335 15.3172 18.8562 15.3163 18.7658C15.3004 17.2004 14.6598 15.917 13.5234 14.9602C13.4594 14.9063 13.4265 14.8322 13.4299 14.7499L14.0454 14.4075C14.1794 14.3331 14.3362 14.3456 14.4565 14.4406C15.7103 15.4295 16.3726 17.155 16.09 18.538C16.0647 18.6616 15.9871 18.7566 15.8709 18.8059V18.8059Z" fill="#5CAEFF"/>
<path fill-rule="evenodd" clip-rule="evenodd" d="M1.24849 18.8059L1.87015 19.0699C1.94866 19.1033 2.03149 19.0959 2.10288 19.0492C2.17427 19.0024 2.21416 18.9295 2.21501 18.8442C2.22996 17.3678 2.83418 16.1573 3.90602 15.2549C3.97034 15.2007 4.00123 15.1251 3.99317 15.0413C3.9851 14.9577 3.94034 14.8893 3.86688 14.8485L3.07409 14.4075C2.94012 14.3331 2.78332 14.3456 2.66295 14.4406C1.40909 15.4295 0.746837 17.155 1.02949 18.538C1.05476 18.6616 1.13238 18.7566 1.24854 18.8059L1.24849 18.8059Z" fill="#29B933"/>
<path fill-rule="evenodd" clip-rule="evenodd" d="M1.24854 18.8059L1.67679 18.9878C1.67932 18.9863 1.6818 18.9847 1.68429 18.9831C1.75994 18.9335 1.80227 18.8562 1.80321 18.7658C1.81905 17.2004 2.45965 15.917 3.59608 14.9602C3.66012 14.9063 3.69293 14.8322 3.68955 14.7499L3.07408 14.4075C2.94012 14.3331 2.78332 14.3456 2.66294 14.4406C1.40913 15.4295 0.746834 17.155 1.02949 18.538C1.05476 18.6616 1.13238 18.7566 1.24854 18.8059V18.8059Z" fill="#2DD62D"/>
<path fill-rule="evenodd" clip-rule="evenodd" d="M10.582 8.39205L22.3716 6.29688L22.8774 9.14327H10.7155L10.582 8.39205Z" fill="#009914"/>
<path fill-rule="evenodd" clip-rule="evenodd" d="M10.582 8.39339L22.9516 7.27734L23.1201 9.14461H10.6498L10.582 8.39339Z" fill="#29B933"/>
<path d="M10.582 8.39062H23.4805V14.7902H10.582V8.39062Z" fill="#2DD62D"/>
<path fill-rule="evenodd" clip-rule="evenodd" d="M22.0206 9.0625C21.9547 9.54166 22.2689 9.86247 22.5921 9.86247V10.9271H11.4688V9.86247C11.7919 9.86247 12.1062 9.54166 12.0402 9.0625H22.0206Z" fill="#29B933"/>
<path fill-rule="evenodd" clip-rule="evenodd" d="M12.2687 9.2793H21.7921C21.7921 9.72109 22.1503 10.0793 22.5921 10.0793V13.1038C22.1503 13.1038 21.7921 13.462 21.7921 13.9038H12.2687C12.2687 13.462 11.9105 13.1038 11.4688 13.1038V10.0793C11.9106 10.0793 12.2687 9.72109 12.2687 9.2793Z" fill="#96FF96"/>
<path d="M19.2393 12.264C19.6084 11.046 18.9202 9.75938 17.7022 9.39028C16.4842 9.02118 15.1976 9.70937 14.8285 10.9274C14.4594 12.1454 15.1476 13.432 16.3656 13.8011C17.5836 14.1702 18.8702 13.482 19.2393 12.264Z" fill="#29B933"/>
<path fill-rule="evenodd" clip-rule="evenodd" d="M17.0306 9.28711C18.2561 9.28711 19.258 10.2437 19.3307 11.451C19.258 12.6583 18.2561 13.6149 17.0306 13.6149C15.8051 13.6149 14.8032 12.6583 14.7305 11.451C14.8032 10.2438 15.8051 9.28711 17.0306 9.28711Z" fill="#2DD62D"/>
<path fill-rule="evenodd" clip-rule="evenodd" d="M12.8555 11.873C12.7001 11.873 12.5742 11.7471 12.5742 11.5918C12.5742 11.4365 12.7001 11.3105 12.8555 11.3105H13.3396C13.4949 11.3105 13.6208 11.4365 13.6208 11.5918C13.6208 11.7471 13.4949 11.873 13.3396 11.873H12.8555ZM20.7217 11.873C20.5663 11.873 20.4404 11.7471 20.4404 11.5918C20.4404 11.4365 20.5663 11.3105 20.7217 11.3105H21.2058C21.3611 11.3105 21.487 11.4365 21.487 11.5918C21.487 11.7471 21.3611 11.873 21.2058 11.873H20.7217Z" fill="#29B933"/>
<path fill-rule="evenodd" clip-rule="evenodd" d="M18.146 10.8449C18.18 10.996 18.085 11.1461 17.9339 11.18C17.7829 11.214 17.6328 11.1191 17.5989 10.968C17.5898 10.9281 17.567 10.8924 17.5346 10.8612C17.4803 10.8092 17.4019 10.7698 17.3114 10.7436V11.3861L17.3203 11.3886C17.3275 11.3906 17.3345 11.393 17.3413 11.3954C17.5779 11.465 17.7941 11.5683 17.9435 11.7181C18.128 11.9031 18.2114 12.1391 18.1263 12.4385C18.1238 12.4473 18.1209 12.4558 18.1176 12.4642C18.026 12.7446 17.7605 12.9241 17.4406 12.9987C17.3987 13.0085 17.3555 13.0165 17.3114 13.0227V13.1675C17.3114 13.3228 17.1855 13.4487 17.0301 13.4487C16.8748 13.4487 16.7489 13.3228 16.7489 13.1675V13.0057C16.7076 12.9973 16.6668 12.9873 16.6269 12.9756C16.2814 12.8747 15.9926 12.6531 15.9097 12.2977C15.8745 12.1467 15.9685 11.9956 16.1196 11.9605C16.2707 11.9253 16.4217 12.0192 16.4569 12.1703C16.4851 12.2915 16.6017 12.377 16.7489 12.4267V11.8246C16.5737 11.7765 16.4019 11.7134 16.26 11.6033C16.2324 11.5819 16.2071 11.56 16.184 11.5379C16.0323 11.3922 15.9535 11.2168 15.9411 11.0379C15.9286 10.8584 15.9843 10.6805 16.1012 10.53C16.1197 10.5061 16.1392 10.4834 16.1597 10.4621C16.2938 10.3224 16.4832 10.2292 16.6917 10.1817C16.7106 10.1774 16.7297 10.1735 16.7489 10.17V10.0156C16.7489 9.86028 16.8748 9.73438 17.0302 9.73438C17.1855 9.73438 17.3114 9.86028 17.3114 10.0156V10.1682C17.32 10.1697 17.3286 10.1712 17.3371 10.1729C17.5615 10.2167 17.7715 10.3111 17.9235 10.457C18.0322 10.5613 18.1109 10.6905 18.146 10.845L18.146 10.8449ZM16.7489 10.7467C16.6718 10.7712 16.607 10.8062 16.5639 10.851C16.5566 10.8586 16.5502 10.8659 16.545 10.8727C16.5136 10.9131 16.4984 10.9579 16.5013 11.0005C16.5043 11.0437 16.5275 11.09 16.5729 11.1336C16.5824 11.1428 16.5924 11.1514 16.6027 11.1594C16.6405 11.1887 16.6909 11.2136 16.7488 11.2355V10.7467H16.7489ZM17.3114 12.452L17.3131 12.4517C17.449 12.42 17.5557 12.3663 17.5827 12.2964C17.5837 12.2925 17.5847 12.2886 17.5858 12.2847C17.6066 12.2118 17.588 12.156 17.5458 12.1137C17.492 12.0597 17.4096 12.0142 17.3114 11.9763V12.452Z" fill="#009914"/>
</g>
<defs>
<clipPath id="clip0_37_2165">
<rect width="24" height="24" fill="white"/>
</clipPath>
</defs>
</svg>
