<svg width="16" height="16" viewBox="0 0 16 16" fill="none" xmlns="http://www.w3.org/2000/svg">
<path d="M3.45019 10.6574C4.92401 12.4192 6.69817 13.8063 8.72312 14.7878C9.49408 15.1532 10.5251 15.5866 11.6738 15.6609C11.7451 15.664 11.8132 15.6671 11.8844 15.6671C12.6554 15.6671 13.2746 15.4009 13.7793 14.8528C13.7824 14.8497 13.7886 14.8435 13.7917 14.8373C13.9713 14.6206 14.1756 14.4255 14.3893 14.2181C14.5348 14.0788 14.6834 13.9332 14.8258 13.7846C15.4853 13.0972 15.4853 12.2241 14.8196 11.5584L12.9588 9.69756C12.643 9.36935 12.2652 9.19596 11.8689 9.19596C11.4726 9.19596 11.0918 9.36936 10.7666 9.69446L9.65819 10.8029C9.55601 10.7441 9.45074 10.6915 9.35166 10.6419C9.22781 10.58 9.11325 10.5212 9.01107 10.4561C8.00169 9.81522 7.0852 8.97923 6.20896 7.90483C5.76619 7.3444 5.46895 6.87377 5.2615 6.39385C5.55255 6.13067 5.82502 5.8551 6.0882 5.58573C6.18109 5.48975 6.27708 5.39376 6.37306 5.29778C6.70746 4.96338 6.88704 4.57635 6.88704 4.18313C6.88704 3.7899 6.71055 3.40287 6.37306 3.06847L5.45038 2.14579C5.34201 2.03742 5.23983 1.93215 5.13456 1.82378C4.9302 1.61323 4.71656 1.3965 4.50602 1.20143C4.1871 0.888711 3.81246 0.724609 3.41614 0.724609C3.02291 0.724609 2.64517 0.888711 2.31387 1.20453L1.15587 2.36253C0.734779 2.78362 0.496367 3.2945 0.446827 3.88589C0.387998 4.62589 0.524233 5.41234 0.877206 6.36289C1.41905 7.83361 2.23646 9.19906 3.45019 10.6574ZM1.20231 3.95091C1.23947 3.53911 1.39738 3.19542 1.69462 2.89818L2.84642 1.74637C3.02601 1.57298 3.22417 1.48319 3.41614 1.48319C3.60501 1.48319 3.79698 1.57298 3.97346 1.75257C4.18091 1.94453 4.37597 2.14579 4.58652 2.35943C4.69179 2.4678 4.80016 2.57617 4.90853 2.68764L5.83121 3.61032C6.02318 3.80229 6.12226 3.99735 6.12226 4.18932C6.12226 4.38129 6.02318 4.57635 5.83121 4.76832C5.73523 4.8643 5.63925 4.96338 5.54326 5.05937C5.25531 5.35042 4.98594 5.62598 4.6887 5.88916C4.6825 5.89536 4.67941 5.89845 4.67322 5.90464C4.41623 6.16163 4.45648 6.40624 4.5184 6.59201C4.5215 6.6013 4.5246 6.60749 4.52769 6.61678C4.7661 7.18959 5.0974 7.73453 5.61448 8.38475C6.54335 9.53036 7.52177 10.419 8.59927 11.1033C8.73241 11.19 8.87483 11.2581 9.00797 11.3262C9.13182 11.3881 9.24638 11.4469 9.34856 11.512C9.36094 11.5182 9.37023 11.5243 9.38262 11.5305C9.4848 11.5832 9.58388 11.6079 9.68296 11.6079C9.93066 11.6079 10.0917 11.45 10.1443 11.3974L11.3023 10.2394C11.4819 10.0598 11.6769 9.96384 11.8689 9.96384C12.1042 9.96384 12.2962 10.1094 12.4169 10.2394L14.284 12.1033C14.6555 12.4749 14.6524 12.8774 14.2747 13.2706C14.1447 13.41 14.0084 13.5431 13.8629 13.6824C13.6462 13.893 13.4201 14.1097 13.2158 14.3543C12.8597 14.7383 12.4355 14.9178 11.8875 14.9178C11.8349 14.9178 11.7791 14.9147 11.7265 14.9117C10.7109 14.8466 9.76655 14.4503 9.05751 14.1128C7.13164 13.1808 5.44109 11.8587 4.03848 10.1806C2.88358 8.79035 2.10642 7.49612 1.59244 6.109C1.27353 5.25753 1.15277 4.57325 1.20231 3.95091Z" fill="white"/>
</svg>
