<svg width="24" height="20" viewBox="0 0 24 20" fill="none" xmlns="http://www.w3.org/2000/svg">
<path d="M20.9316 0.753906H15.0938V15.3598H20.9316C22.001 15.3598 22.8673 14.4888 22.8673 13.4241V2.68961C22.8673 1.6201 22.001 0.753906 20.9316 0.753906Z" fill="black"/>
<path d="M20.9315 15.5862H15.0936C14.9685 15.5862 14.8672 15.4849 14.8672 15.3597V0.753759C14.8672 0.628611 14.9685 0.527344 15.0936 0.527344H20.9315C22.1237 0.527344 23.0935 1.49713 23.0935 2.68934V13.4237C23.0935 14.6159 22.1237 15.5862 20.9315 15.5862ZM15.32 15.1333H20.9315C21.8739 15.1333 22.6407 14.3665 22.6407 13.4237V2.68934C22.6407 1.74698 21.8739 0.980174 20.9315 0.980174H15.32V15.1333Z" fill="black"/>
<path d="M21.4867 2.68961V13.4242C21.4867 14.4888 20.6205 15.3599 19.551 15.3599H3.06852C1.99903 15.3599 1.13281 14.4888 1.13281 13.4242V2.68961C1.13281 1.62012 1.99903 0.753906 3.06852 0.753906H19.551C20.6205 0.753906 21.4867 1.62012 21.4867 2.68961Z" fill="white"/>
<path d="M19.551 15.5862H3.06847C1.87625 15.5862 0.90625 14.6159 0.90625 13.4237V2.68934C0.90625 1.49713 1.87625 0.527344 3.06847 0.527344H19.551C20.7432 0.527344 21.713 1.49713 21.713 2.68934V13.4237C21.713 14.6159 20.7432 15.5862 19.551 15.5862ZM3.06847 0.980174C2.12588 0.980174 1.35908 1.74698 1.35908 2.68934V13.4237C1.35908 14.3665 2.12588 15.1333 3.06847 15.1333H19.551C20.4934 15.1333 21.2602 14.3665 21.2602 13.4237V2.68934C21.2602 1.74698 20.4934 0.980174 19.551 0.980174H3.06847Z" fill="black"/>
<path d="M14.0142 14.4138H8.60142C8.47627 14.4138 8.375 14.3125 8.375 14.1874C8.375 14.0622 8.47627 13.9609 8.60142 13.9609H14.0142C14.1393 13.9609 14.2406 14.0622 14.2406 14.1874C14.2406 14.3125 14.1393 14.4138 14.0142 14.4138Z" fill="black"/>
<path d="M19.9516 2.83815V12.4289C19.9516 12.7744 19.6706 13.0554 19.3251 13.0554H3.29906C2.95357 13.0554 2.66797 12.7744 2.66797 12.4289V2.83815C2.66797 2.49266 2.95357 2.20703 3.29906 2.20703H19.3251C19.6706 2.20703 19.9516 2.49266 19.9516 2.83815Z" fill="white"/>
<path d="M19.325 13.2818H3.29886C2.82614 13.2818 2.44141 12.8992 2.44141 12.4287V2.83837C2.44141 2.3652 2.82614 1.98047 3.29886 1.98047H19.325C19.7953 1.98047 20.1778 2.3652 20.1778 2.83837V12.4287C20.1778 12.8992 19.7953 13.2818 19.325 13.2818ZM3.29886 2.4333C3.07953 2.4333 2.89424 2.61859 2.89424 2.83837V12.4287C2.89424 12.6494 3.07577 12.8289 3.29886 12.8289H19.325C19.5455 12.8289 19.725 12.6494 19.725 12.4287V2.83837C19.725 2.61505 19.5455 2.4333 19.325 2.4333H3.29886Z" fill="black"/>
<path d="M14.6815 6.678V11.513C14.6815 11.7437 14.4941 11.9312 14.2634 11.9312H8.34692C8.11623 11.9312 7.93359 11.7437 7.93359 11.513V6.678L11.3076 4.12109L14.6815 6.678Z" fill="#DDDDDD"/>
<path d="M14.2633 12.1571H8.34692C7.99403 12.1571 7.70703 11.8679 7.70703 11.5128V6.67762C7.70703 6.60687 7.7402 6.54009 7.7968 6.4972L11.1709 3.9403C11.2514 3.87927 11.3637 3.87927 11.4442 3.9403L14.8181 6.4972C14.8747 6.54009 14.9079 6.60687 14.9079 6.67762V11.5128C14.9079 11.8679 14.6187 12.1571 14.2633 12.1571ZM8.15986 6.78995V11.5128C8.15986 11.6203 8.24211 11.7043 8.34692 11.7043H14.2633C14.369 11.7043 14.455 11.6185 14.455 11.5128V6.78995L11.3076 4.40463L8.15986 6.78995Z" fill="black"/>
<path d="M12.6572 10.3202V11.929H9.95312V10.3202C9.95312 9.57081 10.5558 8.96289 11.3052 8.96289C11.6825 8.96289 12.0179 9.11489 12.2642 9.36118C12.5053 9.6075 12.6572 9.9429 12.6572 10.3202Z" fill="#5AE4A7"/>
<path d="M12.6571 12.1551H9.95298C9.82783 12.1551 9.72656 12.0538 9.72656 11.9287V10.3199C9.72656 9.44653 10.4348 8.73633 11.3051 8.73633C11.7269 8.73633 12.1245 8.90128 12.4241 9.2011C12.721 9.50402 12.8835 9.90113 12.8835 10.3199V11.9287C12.8835 12.0538 12.7823 12.1551 12.6571 12.1551ZM10.1794 11.7023H12.4307V10.3199C12.4307 10.0201 12.314 9.73574 12.1022 9.51949C11.8897 9.30723 11.606 9.18916 11.3051 9.18916C10.6844 9.18916 10.1794 9.69638 10.1794 10.3199V11.7023Z" fill="black"/>
<path d="M11.3074 7.46634C11.7878 7.46634 12.1773 7.07687 12.1773 6.59645C12.1773 6.11602 11.7878 5.72656 11.3074 5.72656C10.827 5.72656 10.4375 6.11602 10.4375 6.59645C10.4375 7.07687 10.827 7.46634 11.3074 7.46634Z" fill="white"/>
<path d="M15.0879 7.27869C14.9743 7.27869 14.8596 7.24279 14.7621 7.16888L11.3066 4.55259L7.85121 7.16888C7.61344 7.34964 7.27432 7.30234 7.09398 7.06457C6.91386 6.82638 6.96053 6.48725 7.19872 6.30734L10.9804 3.44358C11.1734 3.29745 11.4399 3.29745 11.6329 3.44358L15.4146 6.30734C15.6528 6.48725 15.6994 6.82638 15.5193 7.06457C15.4129 7.20478 15.2513 7.27869 15.0879 7.27869Z" fill="#5AE4A7"/>
<path d="M15.0877 7.50612C14.9199 7.50612 14.76 7.45217 14.6254 7.35001L11.3065 4.83734L7.9877 7.35001C7.82541 7.47384 7.62309 7.52646 7.42122 7.49904C7.2178 7.47118 7.03738 7.36549 6.91334 7.20187C6.78974 7.03869 6.73711 6.83704 6.76519 6.63407C6.79305 6.43109 6.89852 6.25111 7.06214 6.12773L10.8435 3.26393C11.1164 3.05786 11.4969 3.05786 11.7693 3.26393L15.5512 6.12773C15.7143 6.25111 15.8198 6.43065 15.8479 6.63362C15.876 6.8366 15.8233 7.03869 15.6995 7.20187C15.5551 7.39247 15.3263 7.50612 15.0877 7.50612ZM11.3065 4.32702C11.3547 4.32702 11.4027 4.3425 11.4432 4.37301L14.8987 6.98917C15.0353 7.09264 15.2376 7.06213 15.3387 6.92858C15.3893 6.86137 15.411 6.77911 15.3993 6.69553C15.388 6.61284 15.3449 6.53943 15.2781 6.48858L11.496 3.62478C11.3846 3.54076 11.2283 3.5412 11.1168 3.62478L7.33521 6.48858C7.26821 6.53943 7.2251 6.61284 7.2136 6.69598C7.2021 6.77911 7.22377 6.86181 7.27441 6.92858C7.32504 6.9958 7.39911 7.03869 7.48247 7.05019C7.56538 7.06257 7.64764 7.04002 7.71397 6.98961L11.1699 4.37301C11.2104 4.3425 11.2583 4.32702 11.3065 4.32702Z" fill="black"/>
<path d="M19.943 11.3005L21.192 14.1233C21.3103 14.3906 21.3877 14.6742 21.4216 14.9645L21.6526 16.9385C21.7134 17.4582 21.4286 17.957 20.9501 18.1687L18.7504 19.142C18.4644 19.2686 18.14 19.2778 17.8472 19.1676L12.686 17.2261C12.4869 17.1491 12.3887 16.9271 12.4656 16.728C12.5967 16.389 12.8506 16.1361 13.1583 15.9999C13.4661 15.8637 13.8259 15.8451 14.1649 15.9761L14.66 16.1675L12.0933 10.3668C11.8942 9.91662 12.0891 9.35999 12.5491 9.18451C12.7519 9.10711 12.9681 9.11336 13.1588 9.18561C13.3606 9.26361 13.5341 9.41881 13.629 9.6333L15.2797 13.3639C15.0899 12.9349 15.2833 12.4344 15.7123 12.2446C15.9268 12.1496 16.1596 12.1515 16.3633 12.2287C16.5651 12.3067 16.7386 12.4619 16.8335 12.6764C16.6437 12.2474 16.839 11.746 17.268 11.5562C17.4825 11.4613 17.7153 11.4632 17.9171 11.5412C18.1189 11.6192 18.2924 11.7744 18.3873 11.9889C18.1975 11.5599 18.3927 11.0585 18.8218 10.8687C19.0363 10.7738 19.2691 10.7757 19.4727 10.8528C19.6745 10.9308 19.8481 11.086 19.943 11.3005Z" fill="#FFDDAB"/>
<path d="M18.2677 19.4709C18.099 19.4709 17.9298 19.4404 17.7673 19.3794L12.6062 17.4376C12.4516 17.3779 12.3311 17.2633 12.2652 17.1143C12.1991 16.9648 12.1954 16.799 12.2544 16.646C12.4026 16.2622 12.6911 15.9592 13.0668 15.793C13.4387 15.628 13.8521 15.6165 14.2318 15.7594L11.8863 10.4581C11.7598 10.1728 11.7567 9.84338 11.8772 9.55417C11.9911 9.28088 12.2011 9.07481 12.4684 8.9731C12.7148 8.87802 12.9885 8.87935 13.2388 8.97354C13.5085 9.07835 13.7201 9.27956 13.836 9.54135L15.1321 12.471C15.2423 12.2853 15.4087 12.131 15.6206 12.0372C15.8821 11.9214 16.1744 11.9152 16.4438 12.0169C16.4862 12.0337 16.5273 12.0523 16.5669 12.0735C16.645 11.7622 16.8605 11.4889 17.1763 11.3491C17.4383 11.2333 17.7308 11.2258 17.9988 11.3301C18.0408 11.346 18.0813 11.3646 18.1202 11.3854C18.1313 11.3421 18.145 11.2992 18.1613 11.2567C18.2652 10.9892 18.4673 10.7773 18.7302 10.6615C18.9911 10.5461 19.2837 10.5385 19.5528 10.6407C19.8227 10.7455 20.0341 10.9472 20.1498 11.2089L21.3988 14.0316C21.5264 14.3195 21.6097 14.6242 21.6464 14.9377L21.8775 16.9118C21.9502 17.534 21.6144 18.1221 21.0417 18.3755L18.8419 19.3488C18.6582 19.4302 18.4631 19.4709 18.2677 19.4709ZM13.6901 16.1131C13.5404 16.1131 13.3909 16.1445 13.2498 16.2069C12.985 16.3241 12.7815 16.5381 12.6767 16.8092C12.6613 16.8494 12.6621 16.8923 12.6794 16.9308C12.6964 16.9693 12.7276 16.9993 12.7676 17.0144L17.927 18.9557C18.1655 19.0455 18.4258 19.0384 18.6588 18.9349L20.8584 17.9616C21.2484 17.7887 21.4773 17.388 21.4278 16.9648L21.1967 14.9908C21.1651 14.7224 21.0939 14.461 20.9849 14.2147L19.7358 11.392C19.6688 11.2408 19.5461 11.124 19.3907 11.0635C19.235 11.0051 19.065 11.0086 18.9131 11.0754C18.761 11.1431 18.6438 11.2656 18.5834 11.4208C18.5233 11.576 18.527 11.7449 18.5943 11.897C18.6449 12.0111 18.5932 12.1451 18.4788 12.1955C18.3645 12.2464 18.2305 12.1942 18.1803 12.0801C18.1801 12.0797 18.1797 12.0792 18.1795 12.0783C18.1122 11.9276 17.9902 11.8121 17.8356 11.7524C17.68 11.6923 17.5106 11.6963 17.3596 11.763C17.0447 11.9023 16.9017 12.2707 17.0403 12.5847C17.0536 12.6143 17.0598 12.6453 17.0598 12.6758C17.06 12.7629 17.0096 12.846 16.9249 12.8832C16.8101 12.934 16.6768 12.8819 16.6264 12.7678C16.5592 12.6161 16.4369 12.4998 16.2817 12.4401C16.1256 12.3808 15.9553 12.3848 15.8036 12.4511C15.4906 12.59 15.3482 12.9579 15.4864 13.2714L15.4866 13.2723C15.5372 13.3869 15.4855 13.5204 15.3712 13.5708C15.2566 13.6212 15.1229 13.5695 15.0727 13.4554L13.4221 9.72443C13.3549 9.57319 13.2324 9.45689 13.0769 9.3963C12.9326 9.34191 12.7727 9.34235 12.6296 9.39586C12.4795 9.45335 12.3608 9.57142 12.2951 9.72841C12.2221 9.90352 12.2241 10.1025 12.3002 10.275L14.8668 16.0755C14.904 16.1591 14.8869 16.2569 14.8237 16.3232C14.7607 16.39 14.6638 16.4112 14.5783 16.3785L14.0832 16.1874C13.9558 16.1379 13.8227 16.1131 13.6901 16.1131Z" fill="black"/>
<path d="M15.2812 13.3633L16.1126 15.243L15.2812 13.3633Z" fill="#DBDBDB"/>
<path d="M16.1129 15.4693C16.026 15.4693 15.9431 15.4189 15.9057 15.3344L15.0742 13.455C15.0235 13.3409 15.075 13.2069 15.1896 13.1565C15.3032 13.1052 15.4374 13.1574 15.4881 13.2719L16.3197 15.1513C16.3703 15.2654 16.3188 15.3994 16.2042 15.4498C16.1746 15.4631 16.1434 15.4693 16.1129 15.4693Z" fill="black"/>
<path d="M16.832 12.6758L17.6639 14.5555L16.832 12.6758Z" fill="#DBDBDB"/>
<path d="M17.6639 14.782C17.577 14.782 17.4941 14.7315 17.4567 14.6471L16.6249 12.7677C16.5743 12.6536 16.6258 12.5196 16.7404 12.4692C16.8538 12.4174 16.988 12.47 17.0388 12.5846L17.8707 14.464C17.9213 14.5781 17.8698 14.7121 17.7552 14.7625C17.7256 14.7758 17.6944 14.782 17.6639 14.782Z" fill="black"/>
<path d="M18.3867 11.9883L19.2186 13.8675L18.3867 11.9883Z" fill="#DBDBDB"/>
<path d="M19.2184 14.0944C19.1315 14.0944 19.0486 14.044 19.0112 13.9595L18.1796 12.0801C18.129 11.966 18.1805 11.832 18.295 11.7816C18.4089 11.7299 18.5429 11.7829 18.5935 11.897L19.4251 13.7764C19.4758 13.8905 19.4242 14.0245 19.3097 14.0749C19.2801 14.0882 19.2489 14.0944 19.2184 14.0944Z" fill="black"/>
</svg>
