<svg width="24" height="24" viewBox="0 0 24 24" fill="none" xmlns="http://www.w3.org/2000/svg">
<path d="M17.2043 8.3678C17.2043 9.93009 16.7411 11.4573 15.8731 12.7563C15.0051 14.0553 13.7715 15.0677 12.3281 15.6656C10.8847 16.2634 9.29649 16.4199 7.76422 16.1151C6.23195 15.8103 4.82448 15.0579 3.71978 13.9532C2.61509 12.8485 1.86279 11.441 1.55801 9.90874C1.25324 8.37647 1.40969 6.78823 2.00757 5.34487C2.60546 3.90151 3.61792 2.66785 4.91693 1.79991C6.21594 0.93197 7.74315 0.468722 9.30544 0.46875C11.4004 0.468787 13.4095 1.30102 14.8908 2.78238C16.3721 4.26373 17.2043 6.27286 17.2043 8.3678Z" fill="#FFDF40"/>
<path d="M9.89292 16.2451C9.69886 16.2593 9.50298 16.2666 9.3053 16.2668C7.21034 16.2668 5.20119 15.4346 3.71983 13.9533C2.23847 12.4719 1.40625 10.4628 1.40625 8.3678C1.40625 6.27284 2.23847 4.26369 3.71983 2.78233C5.20119 1.30097 7.21034 0.46875 9.3053 0.46875C9.50295 0.46875 9.69883 0.476 9.89292 0.4905C7.90506 0.638641 6.0467 1.53287 4.69056 2.99383C3.33442 4.4548 2.58078 6.37447 2.58078 8.36784C2.58078 10.3612 3.33442 12.2809 4.69056 13.7419C6.0467 15.2028 7.90506 16.097 9.89292 16.2452V16.2451Z" fill="#FFBE40"/>
<path d="M15.2515 8.36791C15.2515 9.54354 14.9029 10.6928 14.2498 11.6703C13.5967 12.6478 12.6683 13.4097 11.5822 13.8596C10.496 14.3095 9.30088 14.4272 8.14783 14.1979C6.99478 13.9685 5.93564 13.4024 5.10433 12.5711C4.27302 11.7398 3.70688 10.6807 3.47751 9.52767C3.24814 8.37463 3.36584 7.17946 3.81572 6.09331C4.2656 5.00716 5.02746 4.0788 6.00496 3.42564C6.98245 2.77248 8.13168 2.42385 9.30731 2.42383C10.0879 2.42381 10.8609 2.57754 11.5821 2.87625C12.3032 3.17496 12.9585 3.6128 13.5105 4.16476C14.0625 4.71672 14.5003 5.37199 14.7991 6.09317C15.0978 6.81435 15.2515 7.58731 15.2515 8.36791Z" fill="#EE9F27"/>
<path d="M9.91141 14.2814C9.70977 14.3019 9.50724 14.3121 9.30457 14.3121C8.52257 14.3143 7.74783 14.1621 7.02473 13.8644C6.30163 13.5667 5.64438 13.1292 5.09065 12.577C4.53692 12.0248 4.09758 11.3688 3.79782 10.6465C3.49805 9.92426 3.34375 9.14995 3.34375 8.36795C3.34375 7.58596 3.49805 6.81164 3.79782 6.08938C4.09758 5.36712 4.53692 4.7111 5.09065 4.15892C5.64438 3.60675 6.30163 3.16925 7.02473 2.87152C7.74783 2.57378 8.52257 2.42166 9.30457 2.42385C9.50724 2.42381 9.70978 2.43403 9.91141 2.45446C8.44765 2.60478 7.09165 3.29265 6.10575 4.38498C5.11985 5.47732 4.57411 6.89649 4.57411 8.36795C4.57411 9.83942 5.11985 11.2586 6.10575 12.3509C7.09165 13.4433 8.44765 14.1311 9.91141 14.2814Z" fill="#EC9006"/>
<path d="M10.541 11.9428C10.1436 12.1549 9.6999 12.2656 9.2494 12.2651C8.89013 12.2658 8.53437 12.1945 8.20311 12.0554C7.61553 11.807 7.208 11.3768 7.05561 10.8437C7.04376 10.8023 7.0402 10.7589 7.04511 10.7161C7.05002 10.6733 7.06332 10.6319 7.08424 10.5942C7.12649 10.5182 7.19724 10.462 7.28091 10.4381C7.36458 10.4141 7.45433 10.4244 7.53041 10.4667C7.56808 10.4876 7.60126 10.5157 7.62806 10.5495C7.65486 10.5832 7.67475 10.6219 7.68659 10.6634C7.78329 11.0017 8.05747 11.2815 8.45853 11.4509C8.74231 11.5665 9.04794 11.6187 9.35401 11.6038C9.66009 11.5889 9.9592 11.5072 10.2304 11.3646C10.7383 11.0918 11.0252 10.5247 10.9279 9.9855C10.8017 9.28561 10.1049 8.79872 9.01615 8.64956C8.15042 8.53102 7.51615 8.0633 7.27573 7.36636C7.17076 7.05586 7.15314 6.72248 7.22479 6.40265C7.29643 6.08281 7.4546 5.78881 7.682 5.55277C8.01551 5.20927 8.48567 4.98291 8.99501 4.90894V3.86719C8.99501 3.78016 9.02958 3.6967 9.09112 3.63517C9.15265 3.57363 9.23611 3.53906 9.32314 3.53906C9.41016 3.53906 9.49362 3.57363 9.55516 3.63517C9.61669 3.6967 9.65126 3.78016 9.65126 3.86719V4.89984C10.2916 4.97298 10.8771 5.29653 11.2797 5.79984C11.3346 5.86741 11.3603 5.95399 11.3513 6.04055C11.3424 6.12712 11.2994 6.20657 11.2318 6.26142C11.1642 6.31628 11.0776 6.34205 10.9911 6.33306C10.9045 6.32408 10.8251 6.28108 10.7702 6.21352C10.6101 6.01282 10.4087 5.84885 10.1798 5.7327C9.95078 5.61656 9.69953 5.55094 9.443 5.5403C8.94983 5.51817 8.45553 5.69841 8.1529 6.01008C8.00954 6.15871 7.90977 6.34388 7.8645 6.54536C7.81924 6.74684 7.83021 6.95689 7.89622 7.15256C8.05297 7.60725 8.49359 7.91573 9.10526 7.9995C10.4737 8.187 11.3966 8.88567 11.5738 9.86897C11.7232 10.6974 11.3082 11.5309 10.541 11.9428Z" fill="#FFDF40"/>
<path d="M22.5972 14.195C21.7207 18.4875 19.2525 21.5315 15.6949 23.4247C15.5645 23.4942 15.419 23.5305 15.2713 23.5305C15.1235 23.5305 14.978 23.4942 14.8477 23.4247C11.2898 21.5313 8.82164 18.4873 7.94531 14.195C8.58543 12.778 9.10175 11.3083 9.48848 9.80225C11.9899 9.16072 12.8822 8.95808 15.2713 8.35156C17.6602 8.95808 18.5525 9.16072 21.054 9.80225C21.4408 11.3083 21.9571 12.778 22.5972 14.195Z" fill="#66CCFF"/>
<path d="M15.3673 23.5251C15.1879 23.5445 15.0069 23.5095 14.8477 23.4247C11.2898 21.5313 8.82164 18.4873 7.94531 14.195C8.58543 12.778 9.10175 11.3083 9.48848 9.80225C11.9899 9.16072 12.8822 8.95808 15.2713 8.35156C15.2847 8.35498 12.63 9.47708 10.2139 10.0967C9.82777 11.581 9.39787 12.7726 8.74889 14.195C9.60169 18.372 11.9625 21.6093 15.3673 23.5251Z" fill="#4DA6FF"/>
<path d="M15.2712 22.055C12.1909 20.3408 10.224 17.7495 9.41797 14.3447C9.89275 13.2444 10.2969 12.1149 10.628 10.9632C11.5679 10.7244 12.2689 10.5507 13.0022 10.3693C13.6728 10.2033 14.3637 10.0322 15.2712 9.80273C16.1792 10.0324 16.8703 10.2035 17.5411 10.3695C18.2742 10.551 18.975 10.7245 19.9145 10.9632C20.2456 12.1149 20.6498 13.2444 21.1245 14.3448C20.3186 17.7495 18.3516 20.3408 15.2712 22.055Z" fill="#F5F5F5"/>
<path d="M15.3074 22.0343C15.2952 22.0411 15.2834 22.0484 15.2712 22.055C12.1909 20.3408 10.224 17.7495 9.41797 14.3447C9.89275 13.2444 10.2969 12.1149 10.628 10.9632C11.5679 10.7244 12.2689 10.5507 13.0022 10.3693C13.6728 10.2033 14.3637 10.0322 15.2713 9.80273C14.5588 10.3677 12.0531 11.1668 11.1132 11.4053C10.7715 12.5868 10.4977 13.2776 10.0348 14.3447C10.8272 17.6921 12.4884 20.0768 15.3074 22.0343Z" fill="#E6E6E6"/>
<path d="M13.971 17.8297L12.007 15.8683C11.2395 15.1018 12.2333 14.1066 13.0007 14.8731L14.6008 16.4711L17.8111 13.3311C18.6165 12.5433 19.6 13.5488 18.7947 14.3365L15.2168 17.8364C15.0501 17.9995 14.8258 18.0902 14.5926 18.089C14.3593 18.0877 14.136 17.9946 13.971 17.8297Z" fill="#EE9F27"/>
<path d="M19.0251 13.4102C19.1524 13.6667 19.1183 14.0188 18.7942 14.3359L15.2163 17.8357C15.0496 17.9988 14.8253 18.0896 14.5921 18.0884C14.3589 18.0872 14.1356 17.9941 13.9706 17.8292L12.0065 15.8678C11.7033 15.565 11.6757 15.2268 11.7997 14.9754C11.8508 15.0835 11.9209 15.1816 12.0065 15.2651L14.2149 17.4711C14.5583 17.8141 14.6652 17.7764 15.0121 17.437L18.794 13.7332C18.8908 13.6411 18.9692 13.5315 19.0251 13.4102Z" fill="#EC9006"/>
</svg>
