<svg width="18" height="16" viewBox="0 0 18 16" fill="none" xmlns="http://www.w3.org/2000/svg">
<path d="M17.319 6.00796C17.2392 5.76056 17.0926 5.54006 16.8953 5.37085C16.698 5.20165 16.4577 5.09034 16.2011 5.04925L12.1737 4.39474L10.3067 0.766786C10.1878 0.535825 10.0076 0.342083 9.78578 0.20682C9.56399 0.0715573 9.30923 0 9.04945 0C8.78967 0 8.53491 0.0715573 8.31312 0.20682C8.09133 0.342083 7.91109 0.535825 7.79217 0.766786L5.9252 4.39474L1.89791 5.04925C1.64151 5.09098 1.40156 5.20253 1.20439 5.37166C1.00721 5.54079 0.860433 5.76097 0.780156 6.00803C0.699878 6.25509 0.689204 6.51949 0.749305 6.77221C0.809405 7.02494 0.937958 7.25623 1.12086 7.4407L3.99434 10.3374L3.37239 14.3698C3.33248 14.6267 3.36418 14.8895 3.46399 15.1295C3.56381 15.3695 3.72788 15.5773 3.93816 15.7301C4.14844 15.8829 4.39678 15.9747 4.65587 15.9955C4.91496 16.0163 5.17476 15.9652 5.40669 15.8478L9.04945 14.0101L12.6923 15.8478C12.9243 15.9649 13.184 16.0158 13.443 15.9949C13.702 15.9741 13.9502 15.8822 14.1604 15.7295C14.3706 15.5768 14.5347 15.3691 14.6345 15.1292C14.7344 14.8894 14.7663 14.6266 14.7266 14.3698L14.1047 10.3374L16.9781 7.4407C17.1616 7.25659 17.2906 7.02529 17.3507 6.77242C17.4109 6.51955 17.3999 6.25497 17.319 6.00796Z" fill="#ABA1A1"/>
</svg>
