<svg width="17" height="16" viewBox="0 0 17 16" fill="none" xmlns="http://www.w3.org/2000/svg">
<path d="M16.608 6.00796C16.5283 5.76056 16.3817 5.54006 16.1844 5.37085C15.987 5.20165 15.7468 5.09034 15.4901 5.04925L11.4628 4.39474L9.59579 0.766786C9.47687 0.535825 9.29663 0.342083 9.07484 0.20682C8.85305 0.0715573 8.59829 0 8.33851 0C8.07873 0 7.82397 0.0715573 7.60218 0.20682C7.38039 0.342083 7.20015 0.535825 7.08123 0.766786L5.21427 4.39474L1.18698 5.04925C0.930575 5.09098 0.690624 5.20253 0.493449 5.37166C0.296274 5.54079 0.149495 5.76097 0.0692182 6.00803C-0.0110591 6.25509 -0.0217331 6.51949 0.0383673 6.77221C0.0984678 7.02494 0.22702 7.25623 0.40992 7.4407L3.2834 10.3374L2.66145 14.3698C2.62154 14.6267 2.65324 14.8895 2.75306 15.1295C2.85287 15.3695 3.01695 15.5773 3.22722 15.7301C3.4375 15.8829 3.68584 15.9747 3.94493 15.9955C4.20402 16.0163 4.46382 15.9652 4.69575 15.8478L8.33851 14.0101L11.9814 15.8478C12.2133 15.9649 12.4731 16.0158 12.732 15.9949C12.991 15.9741 13.2393 15.8822 13.4495 15.7295C13.6597 15.5768 13.8237 15.3691 13.9236 15.1292C14.0235 14.8894 14.0553 14.6266 14.0157 14.3698L13.3937 10.3374L16.2672 7.4407C16.4507 7.25659 16.5796 7.02529 16.6398 6.77242C16.6999 6.51955 16.6889 6.25497 16.608 6.00796Z" fill="#FFC700"/>
</svg>
