<svg width="24" height="20" viewBox="0 0 24 20" fill="none" xmlns="http://www.w3.org/2000/svg">
<path d="M23.9989 2.55409C23.1157 2.94517 22.1672 3.20884 21.1712 3.32898C22.1878 2.71961 22.9685 1.75431 23.3354 0.604469C22.3849 1.16842 21.3308 1.57858 20.2095 1.79973C19.3117 0.84175 18.0315 0.244141 16.6157 0.244141C13.8963 0.244141 11.6919 2.44863 11.6919 5.16878C11.6919 5.5555 11.7351 5.9305 11.8193 6.29228C7.72748 6.0857 4.10002 4.12581 1.67142 1.14494C1.24664 1.87295 1.0042 2.71961 1.0042 3.62191C1.0042 5.3313 1.87359 6.83856 3.19477 7.72183C2.38767 7.69544 1.62891 7.47428 0.963891 7.10659V7.16664C0.963891 9.55427 2.66156 11.5449 4.91367 11.999C4.50136 12.1103 4.06556 12.1704 3.61664 12.1704C3.29948 12.1704 2.99044 12.1396 2.69016 12.0825C3.31706 14.0395 5.13558 15.4632 7.28953 15.5028C5.60433 16.8225 3.48187 17.6106 1.17483 17.6106C0.777141 17.6106 0.385312 17.5886 0 17.5417C2.17959 18.9407 4.76644 19.7565 7.5473 19.7565C16.6047 19.7565 21.5557 12.2495 21.5557 5.73991C21.5557 5.52752 21.5513 5.31367 21.5425 5.10274C22.5034 4.40852 23.3391 3.54138 23.9989 2.55409Z" fill="white"/>
</svg>
