<svg width="56" height="56" viewBox="0 0 56 56" fill="none" xmlns="http://www.w3.org/2000/svg">
<g clip-path="url(#clip0_39_2360)">
<path d="M39.9219 47.0312H4.92188C2.20795 47.0312 0 44.8233 0 42.1094V12.5781C0 11.6721 0.734562 10.9375 1.64062 10.9375H43.2031C44.1092 10.9375 44.8438 11.6721 44.8438 12.5781V42.1094C44.8438 44.8233 42.6358 47.0312 39.9219 47.0312Z" fill="#F9F9F9"/>
<path d="M43.2031 10.9375H22.4219V47.0312H39.9219C42.6358 47.0312 44.8438 44.8233 44.8438 42.1094V12.5781C44.8438 11.6721 44.1092 10.9375 43.2031 10.9375Z" fill="#E4E4FF"/>
<path d="M36.6406 20.7812H13.125C12.2189 20.7812 11.4844 20.0467 11.4844 19.1406C11.4844 18.2346 12.2189 17.5 13.125 17.5H36.6406C37.5467 17.5 38.2812 18.2346 38.2812 19.1406C38.2812 20.0467 37.5467 20.7812 36.6406 20.7812Z" fill="#00429B"/>
<path d="M6.5625 20.7812C7.46859 20.7812 8.20312 20.0467 8.20312 19.1406C8.20312 18.2345 7.46859 17.5 6.5625 17.5C5.65641 17.5 4.92188 18.2345 4.92188 19.1406C4.92188 20.0467 5.65641 20.7812 6.5625 20.7812Z" fill="#FF7038"/>
<path d="M6.5625 27.3438C7.46859 27.3438 8.20312 26.6092 8.20312 25.7031C8.20312 24.797 7.46859 24.0625 6.5625 24.0625C5.65641 24.0625 4.92188 24.797 4.92188 25.7031C4.92188 26.6092 5.65641 27.3438 6.5625 27.3438Z" fill="#FF7038"/>
<path d="M18.5938 27.3438H13.125C12.2189 27.3438 11.4844 26.6092 11.4844 25.7031C11.4844 24.7971 12.2189 24.0625 13.125 24.0625H18.5938C19.4998 24.0625 20.2344 24.7971 20.2344 25.7031C20.2344 26.6092 19.4998 27.3438 18.5938 27.3438Z" fill="#00429B"/>
<path d="M18.5938 33.9062H13.125C12.2189 33.9062 11.4844 33.1717 11.4844 32.2656C11.4844 31.3596 12.2189 30.625 13.125 30.625H18.5938C19.4998 30.625 20.2344 31.3596 20.2344 32.2656C20.2344 33.1717 19.4998 33.9062 18.5938 33.9062Z" fill="#00429B"/>
<path d="M6.5625 33.9062C7.46859 33.9062 8.20312 33.1717 8.20312 32.2656C8.20312 31.3595 7.46859 30.625 6.5625 30.625C5.65641 30.625 4.92188 31.3595 4.92188 32.2656C4.92188 33.1717 5.65641 33.9062 6.5625 33.9062Z" fill="#FF7038"/>
<path d="M24.6094 40.4688H13.125C12.2189 40.4688 11.4844 39.7342 11.4844 38.8281C11.4844 37.9221 12.2189 37.1875 13.125 37.1875H24.6094C25.5154 37.1875 26.25 37.9221 26.25 38.8281C26.25 39.7342 25.5154 40.4688 24.6094 40.4688Z" fill="#00429B"/>
<path d="M6.5625 40.4688C7.46859 40.4688 8.20312 39.7342 8.20312 38.8281C8.20312 37.922 7.46859 37.1875 6.5625 37.1875C5.65641 37.1875 4.92188 37.922 4.92188 38.8281C4.92188 39.7342 5.65641 40.4688 6.5625 40.4688Z" fill="#FF7038"/>
<path d="M24.6094 37.1875H22.4219V40.4688H24.6094C25.5154 40.4688 26.25 39.7342 26.25 38.8281C26.25 37.9221 25.5154 37.1875 24.6094 37.1875Z" fill="#002659"/>
<path d="M36.6406 17.5H22.4219V20.7812H36.6406C37.5467 20.7812 38.2812 20.0467 38.2812 19.1406C38.2812 18.2346 37.5467 17.5 36.6406 17.5Z" fill="#002659"/>
<path d="M39.9219 0H22.4219C21.5158 0 20.7812 0.734562 20.7812 1.64062V10.9375C20.7812 11.8436 21.5158 12.5781 22.4219 12.5781H44.8438V4.92188C44.8438 2.20358 42.6402 0 39.9219 0Z" fill="#002659"/>
<path d="M22.4219 0H4.92188C2.20358 0 0 2.20358 0 4.92188V12.5781H22.4219V0Z" fill="#00429B"/>
<path d="M5.74219 7.92969C6.64828 7.92969 7.38281 7.19515 7.38281 6.28906C7.38281 5.38297 6.64828 4.64844 5.74219 4.64844C4.8361 4.64844 4.10156 5.38297 4.10156 6.28906C4.10156 7.19515 4.8361 7.92969 5.74219 7.92969Z" fill="#C1DA4A"/>
<path d="M11.2109 7.92969C12.117 7.92969 12.8516 7.19515 12.8516 6.28906C12.8516 5.38297 12.117 4.64844 11.2109 4.64844C10.3048 4.64844 9.57031 5.38297 9.57031 6.28906C9.57031 7.19515 10.3048 7.92969 11.2109 7.92969Z" fill="#FFF16B"/>
<path d="M16.6797 7.92969C17.5858 7.92969 18.3203 7.19515 18.3203 6.28906C18.3203 5.38297 17.5858 4.64844 16.6797 4.64844C15.7736 4.64844 15.0391 5.38297 15.0391 6.28906C15.0391 7.19515 15.7736 7.92969 16.6797 7.92969Z" fill="#FF7038"/>
<path d="M44.5156 44.8436H37.7344C37.2693 44.8436 36.826 44.6462 36.5149 44.3006L26.6712 33.3631C26.2377 32.8815 26.1284 32.1899 26.392 31.5981C26.6556 31.0063 27.2428 30.625 27.8907 30.625H54.3595C55.0074 30.625 55.5946 31.0063 55.8581 31.5981C56.1217 32.1899 56.0123 32.8815 55.5789 33.3631L45.7351 44.3006C45.424 44.6462 44.9807 44.8436 44.5156 44.8436Z" fill="#FFB454"/>
<path d="M54.3594 30.625H41.125V44.8438H44.5156C44.9807 44.8438 45.424 44.6463 45.735 44.3007L55.5788 33.3632C56.0122 32.8816 56.1216 32.19 55.858 31.5982C55.5945 31.0063 55.0073 30.625 54.3594 30.625Z" fill="#FF8659"/>
<path d="M54.3594 24.0625H27.8906C26.9846 24.0625 26.25 24.7971 26.25 25.7031V32.2656C26.25 32.2687 26.2504 32.2718 26.2504 32.2748L55.9995 32.275C55.9995 32.2719 55.9999 32.2688 55.9999 32.2656V25.7031C56 24.7971 55.2654 24.0625 54.3594 24.0625Z" fill="#FFF16B"/>
<path d="M54.3594 24.0625H41.125V32.2749L55.9996 32.275C55.9996 32.2719 56 32.2688 56 32.2656V25.7031C56 24.7971 55.2654 24.0625 54.3594 24.0625Z" fill="#FFB454"/>
<path d="M36.0938 43.832V51.0775C36.0938 51.7066 36.4535 52.2803 37.0198 52.5542L43.8011 55.8355C44.0274 55.945 44.2718 55.9993 44.5155 55.9993C44.8191 55.9993 45.1218 55.9151 45.3872 55.7488C45.8657 55.4486 46.1562 54.9235 46.1562 54.3587V43.832H36.0938Z" fill="#FFF16B"/>
<path d="M41.125 54.5407L43.8011 55.8356C44.0274 55.9451 44.2718 55.9994 44.5155 55.9994C44.8191 55.9994 45.1218 55.9152 45.3872 55.7489C45.8657 55.4486 46.1562 54.9235 46.1562 54.3587V43.832H41.125V54.5407Z" fill="#FFB454"/>
</g>
<defs>
<clipPath id="clip0_39_2360">
<rect width="56" height="56" fill="white"/>
</clipPath>
</defs>
</svg>
