<svg width="54" height="54" viewBox="0 0 54 54" fill="none" xmlns="http://www.w3.org/2000/svg">
<g clip-path="url(#clip0_37_2220)">
<path d="M25.505 35.0162C19.0018 35.0162 13.7109 29.7151 13.7109 23.1991V11.8406C13.7109 5.32459 19.0018 0.0234375 25.505 0.0234375C32.0084 0.0234375 37.2992 5.32459 37.2992 11.8406V23.1991C37.2992 29.7151 32.0084 35.0162 25.505 35.0162Z" fill="#DADA3B"/>
<path d="M25.5039 0.0234375V35.0162C32.0073 35.0162 37.2981 29.7151 37.2981 23.1991V11.8406C37.298 5.32459 32.0072 0.0234375 25.5039 0.0234375Z" fill="#9DBC29"/>
<path d="M25.4221 11.3828C24.5501 11.3828 23.8431 12.0911 23.8431 12.9648V17.7866L22.7908 16.7218C22.1773 16.1009 21.1777 16.096 20.5579 16.7108C19.9382 17.3255 19.9332 18.3272 20.5468 18.9481L23.843 22.2838V52.3979C23.843 53.2716 24.5499 53.9799 25.422 53.9799C26.294 53.9799 27.0009 53.2716 27.0009 52.3979V12.9648C27.001 12.0911 26.2941 11.3828 25.4221 11.3828Z" fill="#A34F3E"/>
<path d="M25.5039 11.3887V53.9776C26.3387 53.9359 27.0033 53.2464 27.0033 52.3996V12.9666C27.0032 12.1198 26.3387 11.4304 25.5039 11.3887Z" fill="#873F2E"/>
<path d="M8.89929 53.8912C8.02727 53.8912 7.32031 53.1829 7.32031 52.3092V42.5703C7.32031 41.6966 8.02727 40.9883 8.89929 40.9883C9.7713 40.9883 10.4783 41.6966 10.4783 42.5703V52.3092C10.4783 53.1829 9.7713 53.8912 8.89929 53.8912Z" fill="#C86E59"/>
<path d="M8.89844 40.9883V53.8912C9.77045 53.8912 10.4774 53.1829 10.4774 52.3092V42.5703C10.4774 41.6965 9.77045 40.9883 8.89844 40.9883Z" fill="#A34F3E"/>
<path d="M8.89952 44.1519C6.34434 44.1519 4.03079 42.3508 2.38495 39.0804C0.912508 36.1543 0.101562 32.2989 0.101562 28.2246C0.101562 19.8769 7.32224 9.98848 7.62968 9.57167C7.92742 9.16794 8.39865 8.92969 8.89963 8.92969C9.4006 8.92969 9.87183 9.16794 10.1696 9.57167C10.4769 9.98859 17.6976 19.8769 17.6976 28.2246C17.6976 32.2989 16.8866 36.1543 15.4141 39.0804C13.7684 42.3508 11.4547 44.1519 8.89952 44.1519Z" fill="#DADA3B"/>
<path d="M10.1684 9.57167C9.87064 9.16794 9.39941 8.92969 8.89844 8.92969V44.1519C11.4536 44.1519 13.7672 42.3508 15.413 39.0804C16.8856 36.1543 17.6965 32.2989 17.6965 28.2246C17.6964 19.8769 10.4757 9.98848 10.1684 9.57167Z" fill="#9DBC29"/>
<path d="M47.9789 13.8637C43.0968 14.5385 39.002 10.0955 40.279 5.12825C40.8936 2.73759 42.7752 0.852234 45.1613 0.236508C50.1188 -1.04304 54.5531 3.0598 53.8796 7.95144C53.4574 11.0185 51.04 13.4406 47.9789 13.8637Z" fill="#FFDD54"/>
<path d="M46.9961 0V13.9308C47.3195 13.9308 47.6477 13.9094 47.9797 13.8636C51.0407 13.4405 53.4582 11.0183 53.8805 7.95129C54.4694 3.674 51.1529 0 46.9961 0Z" fill="#FFB454"/>
<path d="M47.1571 32.4263C46.2851 32.4263 45.5781 31.718 45.5781 30.8443V21.9961C45.5781 21.1224 46.2851 20.4141 47.1571 20.4141C48.0291 20.4141 48.7361 21.1224 48.7361 21.9961V30.8443C48.7361 31.718 48.0291 32.4263 47.1571 32.4263Z" fill="#FF405C"/>
<path d="M15.5742 54.0002V33.1802C15.5742 33.0295 15.6388 32.8857 15.7513 32.7857L32.5578 17.8477C32.6542 17.7621 32.7782 17.7148 32.907 17.7148C33.0359 17.7148 33.1599 17.7621 33.2563 17.8477L50.0627 32.7857C50.1752 32.8857 50.2398 33.0296 50.2398 33.1802V54.0001H15.5742V54.0002Z" fill="#FFF2DE"/>
<path d="M50.0619 32.7857L33.2556 17.8477C33.1592 17.7621 33.0351 17.7148 32.9062 17.7148V54.0001H50.239V33.1802C50.239 33.0296 50.1745 32.8857 50.0619 32.7857Z" fill="#FDE4C3"/>
<path d="M29.2589 54.0007H19.7852V37.4824C19.7852 36.6087 20.4921 35.9004 21.3641 35.9004H27.6799C28.5519 35.9004 29.2589 36.6087 29.2589 37.4824V54.0007Z" fill="#A34F3E"/>
<path d="M42.8418 45.1276H37.4449C36.8282 45.1276 36.3281 44.6267 36.3281 44.0087V38.6013C36.3281 37.9834 36.8282 37.4824 37.4449 37.4824H42.8418C43.4586 37.4824 43.9586 37.9834 43.9586 38.6013V44.0087C43.9586 44.6267 43.4586 45.1276 42.8418 45.1276Z" fill="#C8FFFF"/>
<path d="M43.9554 46.7097H36.3251C35.4531 46.7097 34.7461 46.0013 34.7461 45.1276V37.4824C34.7461 36.6087 35.4531 35.9004 36.3251 35.9004H43.9554C44.8274 35.9004 45.5344 36.6087 45.5344 37.4824V45.1276C45.5343 46.0013 44.8274 46.7097 43.9554 46.7097ZM37.9039 43.5456H42.3763V39.0645H37.9039V43.5456Z" fill="#A34F3E"/>
<path d="M52.3169 37.0748C51.9442 37.0749 51.5702 36.9435 51.2697 36.6762L32.9091 20.357L14.5486 36.6762C13.8964 37.256 12.8984 37.1963 12.3197 36.5426C11.741 35.889 11.8007 34.889 12.4531 34.3093L31.8614 17.0587C32.4593 16.5273 33.3591 16.5273 33.9569 17.0587L53.3652 34.3093C54.0175 34.8891 54.0772 35.889 53.4986 36.5426C53.1866 36.8949 52.7527 37.0748 52.3169 37.0748Z" fill="#FF405C"/>
<path d="M53.3624 34.3094L33.9541 17.0587C33.6552 16.793 33.2808 16.6602 32.9062 16.6602V20.3569L51.2668 36.6762C51.5674 36.9435 51.9415 37.0748 52.314 37.0748C52.7499 37.0748 53.1838 36.895 53.4958 36.5426C54.0745 35.8891 54.0148 34.8892 53.3624 34.3094Z" fill="#E20059"/>
<path d="M52.4208 54.0007H1.57897C0.706954 53.9805 0 53.2721 0 52.3984C0 51.5247 0.706954 50.8164 1.57897 50.8164H52.4208C53.2928 50.8164 53.9998 51.5247 53.9998 52.3984C53.9998 53.2721 53.2928 53.9805 52.4208 54.0007Z" fill="#DADA3B"/>
<path d="M52.4185 50.8164H27V54.0007H52.4185C53.2905 53.9805 53.9975 53.2721 53.9975 52.3984C53.9975 51.5246 53.2905 50.8164 52.4185 50.8164Z" fill="#9DBC29"/>
</g>
<defs>
<clipPath id="clip0_37_2220">
<rect width="54" height="54" fill="white"/>
</clipPath>
</defs>
</svg>
