<svg width="54" height="54" viewBox="0 0 54 54" fill="none" xmlns="http://www.w3.org/2000/svg">
<path d="M26.999 12.3809C24.4168 12.3809 21.8908 13.1344 19.7305 14.5489C17.5702 15.9635 15.8697 17.9776 14.8372 20.3444C13.8048 22.7112 13.4854 25.3278 13.9182 27.8735C14.3509 30.4192 15.5171 32.7832 17.2736 34.6759L15.9012 39.7962C15.82 40.0985 15.8303 40.418 15.9308 40.7144C16.0313 41.0108 16.2175 41.2707 16.4658 41.4613C16.714 41.6519 17.0132 41.7645 17.3255 41.785C17.6378 41.8055 17.9492 41.7329 18.2202 41.5764L23.5897 38.4756C25.4142 38.9606 27.3211 39.0508 29.1832 38.74C31.0453 38.4293 32.8196 37.7248 34.3877 36.6737C35.9558 35.6225 37.2816 34.2489 38.2765 32.6445C39.2714 31.0402 39.9126 29.242 40.1571 27.3701C40.4017 25.4981 40.2441 23.5956 39.6947 21.7895C39.1454 19.9833 38.217 18.3152 36.9716 16.8965C35.7262 15.4778 34.1924 14.3411 32.4726 13.5624C30.7529 12.7837 28.8868 12.3809 26.999 12.3809Z" fill="#2EC4B6"/>
<path d="M27 12.3809V38.9177C30.519 38.9177 33.8939 37.5198 36.3822 35.0315C38.8705 32.5432 40.2684 29.1683 40.2684 25.6493C40.2684 22.1303 38.8705 18.7554 36.3822 16.2671C33.8939 13.7788 30.519 12.3809 27 12.3809Z" fill="#2AB5A4"/>
<path d="M53.135 26.775C53.1522 26.1294 53.1701 25.4618 53.1405 24.7625C53.0529 22.817 52.2158 20.9809 50.8046 19.6388C49.3933 18.2967 47.5175 17.5528 45.57 17.563C42.4419 10.4068 35.2961 5.39258 26.9999 5.39258C18.7037 5.39258 11.5579 10.4068 8.43011 17.563C6.4821 17.5526 4.60568 18.2967 3.19429 19.6394C1.78289 20.9821 0.946137 22.8191 0.859459 24.7652C0.830033 25.4613 0.847857 26.1294 0.865049 26.775C0.883295 27.4605 0.902174 28.1697 0.868424 28.9645C0.785785 30.9583 1.49674 32.9035 2.84553 34.3741C4.19433 35.8446 6.07101 36.7207 8.06445 36.8102C8.17477 36.815 8.28481 36.8173 8.39457 36.8174C9.3478 36.818 10.2924 36.6364 11.1775 36.2826C11.4024 36.2124 11.6089 36.0929 11.7817 35.9327C11.9546 35.7725 12.0895 35.5758 12.1765 35.3568C12.2636 35.1378 12.3006 34.9021 12.285 34.667C12.2693 34.4319 12.2013 34.2032 12.0859 33.9977C10.6578 31.4466 9.90813 28.5716 9.90868 25.648C9.90868 16.2239 17.5763 8.55675 26.9999 8.55675C36.4235 8.55675 44.0911 16.2243 44.0911 25.648C44.1029 29.6371 42.7142 33.5039 40.1671 36.574C37.62 39.6441 34.0761 41.7229 30.1534 42.4479C29.7403 41.5126 29.0134 40.751 28.0983 40.2948C27.1833 39.8386 26.1376 39.7164 25.142 39.9494C24.1465 40.1823 23.2636 40.7558 22.646 41.5707C22.0284 42.3856 21.7149 43.3906 21.7597 44.4121C21.8045 45.4336 22.2048 46.4073 22.8914 47.165C23.5779 47.9227 24.5076 48.4166 25.5198 48.5616C26.5319 48.7065 27.5629 48.4932 28.4345 47.9586C29.3061 47.424 29.9635 46.6017 30.2931 45.6339C33.0797 45.1731 35.7393 44.1356 38.1016 42.5877C40.464 41.0397 42.4771 39.0155 44.012 36.6447C44.5355 36.7591 45.0698 36.817 45.6056 36.8173C45.7157 36.8173 45.826 36.815 45.9365 36.8102C47.9296 36.7203 49.8058 35.8443 51.1544 34.3739C52.5029 32.9035 53.2137 30.9586 53.1312 28.9652C53.0977 28.1699 53.1165 27.4608 53.135 26.775Z" fill="#2EA8E6"/>
<path d="M53.1348 26.7762C53.152 26.1306 53.1698 25.463 53.1402 24.7637C53.0507 22.7703 52.1746 20.8936 50.7039 19.545C49.2331 18.1964 47.2877 17.4859 45.294 17.5691C44.9492 17.5847 44.6058 17.6235 44.2661 17.6851C44.0387 17.7255 43.8229 17.8153 43.6339 17.948C43.4449 18.0808 43.2872 18.2533 43.172 18.4535C43.0568 18.6536 42.9868 18.8766 42.9669 19.1067C42.9471 19.3369 42.9779 19.5685 43.0571 19.7855C43.8994 22.0978 44.2332 24.5646 44.0357 27.0176C43.8383 29.4706 43.1142 31.8522 41.9129 34C41.7977 34.2055 41.7299 34.4341 41.7144 34.6691C41.6988 34.9042 41.736 35.1397 41.8231 35.3586C41.9102 35.5774 42.0451 35.774 42.2179 35.9341C42.3907 36.0942 42.5971 36.2136 42.8219 36.2838C43.7072 36.6377 44.652 36.8192 45.6054 36.8185C45.7154 36.8185 45.8257 36.8161 45.9362 36.8114C47.9293 36.7215 49.8056 35.8454 51.1541 34.375C52.5026 32.9046 53.2134 30.9598 53.131 28.9663C53.0974 28.1711 53.1162 27.4619 53.1348 26.7762Z" fill="#176F93"/>
<path d="M43.0712 19.8306C43.0662 19.8152 43.0628 19.799 43.0572 19.7839C42.9779 19.5669 42.9472 19.3353 42.967 19.1051C42.9868 18.875 43.0568 18.652 43.1721 18.4519C43.2873 18.2517 43.4449 18.0792 43.634 17.9464C43.823 17.8137 44.0388 17.7239 44.2662 17.6835C44.6058 17.6219 44.9492 17.5831 45.2941 17.5675C45.3865 17.5635 45.4781 17.5632 45.5698 17.5626C42.442 10.4068 35.2963 5.39268 27 5.39258V8.55664C34.3828 8.55675 40.6863 13.2619 43.0712 19.8306Z" fill="#1794C6"/>
<path d="M12.0859 33.9992C10.8848 31.8514 10.161 29.4699 9.96374 27.017C9.76646 24.5641 10.1004 22.0975 10.9427 19.7854C11.0219 19.5684 11.0527 19.3368 11.0329 19.1067C11.013 18.8765 10.943 18.6536 10.8278 18.4534C10.7126 18.2532 10.5549 18.0807 10.3659 17.9479C10.1769 17.8152 9.96111 17.7254 9.73371 17.685C9.3929 17.6233 9.04833 17.5845 8.70233 17.569C6.70858 17.4863 4.7634 18.1976 3.29323 19.5468C1.82306 20.8961 0.947843 22.7732 0.859459 24.7667C0.830033 25.4628 0.847857 26.1309 0.865049 26.7765C0.883295 27.462 0.902174 28.1712 0.868424 28.966C0.785785 30.9598 1.49674 32.905 2.84553 34.3756C4.19433 35.8461 6.07101 36.7222 8.06445 36.8117C8.17477 36.8165 8.28481 36.8188 8.39457 36.8189C9.3478 36.8195 10.2924 36.6379 11.1775 36.2841C11.4024 36.2139 11.6089 36.0944 11.7817 35.9342C11.9546 35.774 12.0895 35.5773 12.1765 35.3583C12.2636 35.1393 12.3006 34.9036 12.285 34.6685C12.2693 34.4334 12.2013 34.2047 12.0859 33.9992Z" fill="#176F93"/>
<path d="M9.90696 25.6495C9.90466 23.6493 10.2545 21.6643 10.9406 19.7854C11.0198 19.5685 11.0506 19.3368 11.0307 19.1067C11.0109 18.8765 10.9409 18.6536 10.8257 18.4534C10.7105 18.2532 10.5528 18.0807 10.3638 17.9479C10.1748 17.8152 9.95898 17.7254 9.73157 17.685C9.39076 17.6233 9.04619 17.5845 8.70019 17.569C8.27155 17.5512 7.84218 17.57 7.41674 17.6252C6.3338 19.2591 5.72754 21.1624 5.66596 23.1216C5.63316 24.0165 5.65299 24.874 5.67218 25.7033C5.69254 26.584 5.71363 27.4948 5.67598 28.5156C5.55142 31.8871 6.94973 34.9357 9.16657 36.7778C9.85591 36.7068 10.5321 36.5406 11.1758 36.2839C11.4007 36.2137 11.6072 36.0942 11.78 35.934C11.9529 35.7738 12.0878 35.5771 12.1748 35.3581C12.2619 35.1391 12.2989 34.9034 12.2832 34.6683C12.2676 34.4331 12.1995 34.2045 12.0842 33.999C10.6561 31.4479 9.90649 28.5731 9.90696 25.6495Z" fill="#0D647F"/>
<path d="M44.0899 25.6495C44.0922 23.6493 43.7423 21.6643 43.0563 19.7854C42.977 19.5685 42.9463 19.3368 42.9661 19.1067C42.9859 18.8765 43.0559 18.6536 43.1712 18.4534C43.2864 18.2532 43.444 18.0807 43.6331 17.9479C43.8221 17.8152 44.0379 17.7254 44.2653 17.685C44.6061 17.6233 44.9507 17.5845 45.2968 17.569C45.7254 17.5512 46.1547 17.57 46.5801 17.6252C47.663 19.2591 48.2693 21.1624 48.3309 23.1216C48.3637 24.0165 48.3439 24.874 48.3247 25.7033C48.3043 26.584 48.2833 27.4948 48.3209 28.5156C48.4463 31.8867 47.048 34.9353 44.8312 36.7777C44.1419 36.7067 43.4656 36.5405 42.8219 36.2838C42.597 36.2136 42.3905 36.0941 42.2177 35.9339C42.0448 35.7737 41.9099 35.577 41.8229 35.358C41.7358 35.139 41.6988 34.9033 41.7144 34.6682C41.7301 34.433 41.7982 34.2044 41.9135 33.9989C43.3413 31.4477 44.0906 28.573 44.0899 25.6495Z" fill="#0D647F"/>
<path d="M21.7281 27.2305C21.3085 27.2309 20.906 27.0646 20.609 26.7682C20.312 26.4718 20.1449 26.0695 20.1445 25.65C20.1441 25.2304 20.3104 24.8278 20.6068 24.5309C20.9032 24.2339 21.3055 24.0668 21.725 24.0664H21.7281C22.1477 24.0664 22.5501 24.2331 22.8468 24.5298C23.1434 24.8265 23.3101 25.2289 23.3101 25.6484C23.3101 26.068 23.1434 26.4704 22.8468 26.7671C22.5501 27.0638 22.1477 27.2305 21.7281 27.2305Z" fill="#E6E9F2"/>
<path d="M27 27.2298C26.9479 27.23 26.8958 27.2275 26.8439 27.2223C26.7926 27.2173 26.7415 27.2096 26.691 27.1992C26.6404 27.1887 26.5897 27.176 26.5402 27.1613C26.4908 27.1462 26.4422 27.1286 26.3946 27.1085C26.3467 27.0893 26.2999 27.0675 26.2543 27.0432C26.209 27.0189 26.1647 26.9915 26.1215 26.9629C26.0785 26.9345 26.0369 26.9039 25.997 26.8712C25.9569 26.8385 25.9179 26.8026 25.881 26.7668C25.8441 26.7311 25.8093 26.6908 25.7766 26.6508C25.7439 26.6109 25.7133 26.5694 25.6848 26.5264C25.6563 26.4831 25.6289 26.4388 25.6047 26.3935C25.5804 26.3481 25.5593 26.3007 25.5393 26.2532C25.5192 26.2056 25.5016 26.157 25.4865 26.1076C25.4718 26.058 25.4591 26.0073 25.4486 25.9567C25.438 25.9061 25.4306 25.8545 25.4254 25.8039C25.4203 25.752 25.4178 25.6999 25.418 25.6478C25.4178 25.596 25.4203 25.5443 25.4254 25.4928C25.4306 25.4411 25.4391 25.3894 25.4486 25.3388C25.4581 25.2882 25.4718 25.2375 25.4865 25.189C25.5014 25.1392 25.519 25.0903 25.5393 25.0424C25.5593 24.995 25.5815 24.9485 25.6047 24.9032C25.6291 24.8572 25.6559 24.8125 25.6848 24.7693C25.7133 24.7271 25.7439 24.6849 25.7766 24.6448C25.8093 24.6047 25.8451 24.5657 25.881 24.5288C25.9168 24.4919 25.9569 24.4581 25.997 24.4245C26.0371 24.3928 26.0782 24.3612 26.1215 24.3327C26.1647 24.3042 26.209 24.2779 26.2543 24.2536C26.2997 24.2294 26.3472 24.2072 26.3946 24.1872C26.4422 24.1675 26.4908 24.1502 26.5402 24.1354C26.6392 24.1054 26.741 24.085 26.8439 24.0743C26.9474 24.0638 27.0516 24.0638 27.155 24.0743C27.2068 24.0788 27.2582 24.0866 27.309 24.0975C27.3597 24.1069 27.4097 24.1195 27.4588 24.1354C27.5085 24.1502 27.5574 24.1675 27.6054 24.1872C27.6529 24.2072 27.6993 24.2294 27.7446 24.2536C27.7902 24.2777 27.8346 24.3041 27.8775 24.3327C27.9208 24.3612 27.9629 24.3928 28.003 24.4245C28.0431 24.4581 28.0821 24.493 28.118 24.5288C28.1538 24.5645 28.1897 24.6048 28.2234 24.6448C28.2551 24.6849 28.2867 24.7271 28.3152 24.7693C28.3438 24.8125 28.3702 24.8572 28.3943 24.9032C28.4186 24.9485 28.4407 24.995 28.4608 25.0424C28.4808 25.0899 28.4977 25.1393 28.5135 25.189C28.5293 25.2387 28.5409 25.2882 28.5515 25.3388C28.562 25.3894 28.5694 25.4411 28.5747 25.4928C28.5799 25.5444 28.582 25.5961 28.582 25.6478C28.582 25.6995 28.5789 25.7522 28.5747 25.8039C28.5704 25.8556 28.5609 25.9061 28.5515 25.9567C28.542 26.0073 28.5283 26.058 28.5135 26.1076C28.4987 26.1573 28.4808 26.2057 28.4608 26.2532C28.4407 26.3007 28.4186 26.3481 28.3943 26.3935C28.37 26.4388 28.3437 26.4831 28.3152 26.5264C28.2867 26.5696 28.2551 26.6107 28.2234 26.6508C28.1897 26.6908 28.1549 26.7299 28.118 26.7668C28.0811 26.8037 28.0431 26.8385 28.003 26.8712C27.9627 26.9039 27.9208 26.9345 27.8775 26.9629C27.8346 26.9919 27.7903 27.0187 27.7446 27.0432C27.6995 27.0675 27.653 27.0893 27.6054 27.1085C27.5575 27.1286 27.5085 27.1462 27.4588 27.1613C27.4103 27.176 27.3597 27.1887 27.309 27.1992C27.2581 27.2097 27.2067 27.2174 27.155 27.2223C27.1035 27.2275 27.0518 27.23 27 27.2298Z" fill="#E6E9F2"/>
<path d="M28.5516 25.3388C28.541 25.2882 28.5283 25.2375 28.5136 25.189C28.4988 25.1405 28.4809 25.0899 28.4608 25.0424C28.4408 24.995 28.4187 24.9485 28.3944 24.9032C28.3703 24.8572 28.3439 24.8125 28.3153 24.7693C28.2868 24.7271 28.2552 24.6849 28.2235 24.6448C28.1898 24.6047 28.155 24.5657 28.1181 24.5288C28.0812 24.4919 28.0432 24.4582 28.0031 24.4245C27.963 24.3928 27.9208 24.3612 27.8776 24.3327C27.8347 24.3041 27.7903 24.2777 27.7447 24.2536C27.6994 24.2294 27.653 24.2072 27.6055 24.1872C27.5575 24.1675 27.5086 24.1502 27.4589 24.1354C27.4098 24.1195 27.3598 24.1069 27.3091 24.0975C27.2583 24.0866 27.2069 24.0788 27.1551 24.0743C27.1036 24.069 27.0518 24.0664 27 24.0664V27.2299C27.0518 27.2301 27.1035 27.2276 27.155 27.2225C27.2067 27.2175 27.2581 27.2098 27.309 27.1994C27.3596 27.1888 27.4103 27.1762 27.4588 27.1614C27.5085 27.1463 27.5575 27.1287 27.6054 27.1087C27.653 27.0894 27.6994 27.0676 27.7446 27.0433C27.7902 27.0188 27.8346 26.9921 27.8775 26.9631C27.9207 26.9345 27.9629 26.9039 28.003 26.8713C28.0431 26.8388 28.0821 26.8027 28.118 26.7669C28.1538 26.7312 28.1897 26.6909 28.2234 26.6509C28.2551 26.6108 28.2867 26.5697 28.3152 26.5265C28.3437 26.4832 28.37 26.4389 28.3943 26.3936C28.4186 26.3482 28.4407 26.3008 28.4607 26.2533C28.4808 26.2058 28.4977 26.1563 28.5135 26.1078C28.5293 26.0592 28.5409 26.0075 28.5514 25.9568C28.562 25.9062 28.5694 25.8546 28.5746 25.804C28.5799 25.7534 28.582 25.6996 28.582 25.6479C28.582 25.5962 28.5789 25.5446 28.5746 25.4929C28.5704 25.4412 28.5609 25.3894 28.5516 25.3388Z" fill="#CFD7E6"/>
<path d="M32.271 27.2305C31.8514 27.2309 31.4489 27.0646 31.1519 26.7681C30.8549 26.4717 30.6879 26.0695 30.6875 25.6499C30.6871 25.2303 30.8534 24.8278 31.1498 24.5308C31.4462 24.2339 31.8485 24.0668 32.2681 24.0664H32.271C32.6906 24.0664 33.093 24.2331 33.3897 24.5298C33.6864 24.8265 33.853 25.2289 33.853 25.6484C33.853 26.068 33.6864 26.4704 33.3897 26.7671C33.093 27.0638 32.6906 27.2305 32.271 27.2305Z" fill="#CFD7E6"/>
<path d="M27.1566 48.4701C29.5136 47.913 30.9727 45.5505 30.4155 43.1935C29.8584 40.8365 27.4959 39.3774 25.1389 39.9345C22.7819 40.4917 21.3228 42.8541 21.8799 45.2112C22.4371 47.5682 24.7995 49.0273 27.1566 48.4701Z" fill="#176F93"/>
<path d="M26.1406 39.834V48.6067C27.304 48.6067 28.4196 48.1445 29.2422 47.3219C30.0648 46.4993 30.527 45.3837 30.527 44.2203C30.527 43.057 30.0648 41.9413 29.2422 41.1187C28.4196 40.2961 27.304 39.834 26.1406 39.834Z" fill="#0D647F"/>
<path d="M42.8212 36.2824C42.6132 36.2175 42.4209 36.1104 42.2562 35.9677C42.0915 35.825 41.9581 35.6498 41.8643 35.4531C41.7705 35.2564 41.7184 35.0425 41.7111 34.8247C41.7039 34.6069 41.7417 34.39 41.8223 34.1875C40.5932 36.3289 38.9127 38.177 36.8975 39.6035C34.8822 41.0299 32.5805 42.0005 30.1523 42.4477C30.5986 43.4543 30.6485 44.5922 30.292 45.634C33.0785 45.1733 35.7382 44.1357 38.1006 42.5877C40.463 41.0397 42.476 39.0154 44.0109 36.6445C43.6051 36.5566 43.2072 36.4355 42.8212 36.2824Z" fill="#1794C6"/>
</svg>
